<?xml version="1.0" encoding="UTF-8" standalone="no"?>
<!-- Created with Inkscape (http://www.inkscape.org/) -->

<svg
   xmlns:dc="http://purl.org/dc/elements/1.1/"
   xmlns:cc="http://creativecommons.org/ns#"
   xmlns:rdf="http://www.w3.org/1999/02/22-rdf-syntax-ns#"
   xmlns:svg="http://www.w3.org/2000/svg"
   xmlns="http://www.w3.org/2000/svg"
   xmlns:sodipodi="http://sodipodi.sourceforge.net/DTD/sodipodi-0.dtd"
   xmlns:inkscape="http://www.inkscape.org/namespaces/inkscape"
   width="1016.5312"
   height="1015.875"
   id="svg2"
   version="1.1"
   inkscape:version="0.48.4 r9939"
   sodipodi:docname="college.svg">
  <defs
     id="defs4">
    <inkscape:path-effect
       is_visible="true"
       id="path-effect3786"
       effect="spiro" />
    <inkscape:path-effect
       effect="spiro"
       id="path-effect3782"
       is_visible="true" />
  </defs>
  <sodipodi:namedview
     id="base"
     pagecolor="#ffffff"
     bordercolor="#666666"
     borderopacity="1.0"
     inkscape:pageopacity="0.0"
     inkscape:pageshadow="2"
     inkscape:zoom="0.35"
     inkscape:cx="378.125"
     inkscape:cy="515.70032"
     inkscape:document-units="px"
     inkscape:current-layer="layer1"
     showgrid="false"
     showborder="false"
     inkscape:showpageshadow="false"
     fit-margin-top="0"
     fit-margin-left="0"
     fit-margin-right="0"
     fit-margin-bottom="0"
     inkscape:window-width="1311"
     inkscape:window-height="744"
     inkscape:window-x="55"
     inkscape:window-y="24"
     inkscape:window-maximized="1" />
  <metadata
     id="metadata7">
    <rdf:RDF>
      <cc:Work
         rdf:about="">
        <dc:format>image/svg+xml</dc:format>
        <dc:type
           rdf:resource="http://purl.org/dc/dcmitype/StillImage" />
        <dc:title />
      </cc:Work>
    </rdf:RDF>
  </metadata>
  <g
     inkscape:label="Layer 1"
     inkscape:groupmode="layer"
     id="layer1"
     transform="translate(3.125,-32.1875)">
    <path
       inkscape:connector-curvature="0"
       style="color:#000000;fill:none;stroke:#ffffff;stroke-width:8;stroke-linecap:butt;stroke-linejoin:miter;stroke-miterlimit:4;stroke-opacity:1;stroke-dasharray:none;stroke-dashoffset:0;marker:none;visibility:visible;display:inline;overflow:visible;enable-background:accumulate"
       d="m 74.28125,418.0625 0,517.15625 117.28125,0 0,-389 c 0,-30.07429 24.20696,-54.3125 54.28125,-54.3125 l 16.875,0 c 30.07429,0 54.28125,24.23821 54.28125,54.3125 l 0,389 116.5625,0 0,-397.59375 c 0,-30.07429 24.20696,-54.28125 54.28125,-54.28125 l 16.875,0 C 534.79304,483.34375 559,507.55071 559,537.625 l 0,397.59375 123.125,0 0,-394.71875 c 0,-30.07429 24.20696,-54.28125 54.28125,-54.28125 l 16.90625,0 c 30.07429,0 54.28125,24.20696 54.28125,54.28125 l 0,394.71875 120.96875,0 0,-517.15625 -854.28125,0 z"
       id="rect2987" />
    <path
       style="fill:none;stroke:#ffffff;stroke-width:8;stroke-linecap:butt;stroke-linejoin:miter;stroke-miterlimit:4;stroke-opacity:1;stroke-dasharray:none"
       d="m 68.571428,363.21933 857.142862,0 L 496.57144,37.219325 68.571428,363.21933"
       id="path3780"
       inkscape:path-effect="#path-effect3782"
       inkscape:original-d="m 68.571428,363.21933 857.142862,0 L 496.57144,37.219325 z"
       inkscape:connector-curvature="0"
       sodipodi:nodetypes="cccc" />
    <rect
       style="color:#000000;fill:none;stroke:#ffffff;stroke-width:8;stroke-linecap:butt;stroke-linejoin:miter;stroke-miterlimit:4;stroke-opacity:1;stroke-dasharray:none;stroke-dashoffset:0;marker:none;visibility:visible;display:inline;overflow:visible;enable-background:accumulate"
       id="rect2989"
       width="937.14288"
       height="54.285713"
       x="35.142857"
       y="363.79074" />
    <rect
       y="935.79077"
       x="35.142857"
       height="54.285713"
       width="937.14288"
       id="rect2991"
       style="color:#000000;fill:none;stroke:#ffffff;stroke-width:8;stroke-linecap:butt;stroke-linejoin:miter;stroke-miterlimit:4;stroke-opacity:1;stroke-dasharray:none;stroke-dashoffset:0;marker:none;visibility:visible;display:inline;overflow:visible;enable-background:accumulate" />
    <rect
       style="color:#000000;fill:none;stroke:#ffffff;stroke-width:8;stroke-linecap:butt;stroke-linejoin:miter;stroke-miterlimit:4;stroke-opacity:1;stroke-dasharray:none;stroke-dashoffset:0;marker:none;visibility:visible;display:inline;overflow:visible;enable-background:accumulate"
       id="rect2993"
       width="1008.5344"
       height="54.248676"
       x="0.87566096"
       y="989.80933" />
    <path
       inkscape:connector-curvature="0"
       inkscape:original-d="m 156.27289,336.17312 677.45422,0 L 498.39095,81.408387 z"
       inkscape:path-effect="#path-effect3786"
       id="path3784"
       d="m 156.27289,336.17312 677.45422,0 L 498.39095,81.408387 156.27289,336.17312"
       style="fill:none;stroke:#ffffff;stroke-width:8;stroke-linecap:butt;stroke-linejoin:miter;stroke-miterlimit:4;stroke-opacity:1;stroke-dasharray:none"
       sodipodi:nodetypes="cccc" />
    <path
       sodipodi:type="arc"
       style="fill:none;stroke:#ffffff;stroke-width:7.04000044;stroke-linecap:round;stroke-linejoin:round;stroke-miterlimit:4;stroke-opacity:1;stroke-dasharray:none"
       id="path3788"
       sodipodi:cx="457.14285"
       sodipodi:cy="200.93361"
       sodipodi:rx="62.857143"
       sodipodi:ry="62.857143"
       d="m 520,200.93361 c 0,34.71504 -28.14211,62.85714 -62.85715,62.85714 -34.71504,0 -62.85714,-28.1421 -62.85714,-62.85714 0,-34.71504 28.1421,-62.85714 62.85714,-62.85714 32.76574,0 60.03546,25.1695 62.65582,57.83029"
       sodipodi:start="0"
       sodipodi:end="6.2031272"
       sodipodi:open="true"
       transform="matrix(1.1363636,0,0,1.1363636,-16.623375,9.7428196)" />
    <path
       transform="matrix(0.86363633,0,0,0.86363633,108.05195,64.542894)"
       sodipodi:open="true"
       sodipodi:end="6.2031272"
       sodipodi:start="0"
       d="m 520,200.93361 c 0,34.71504 -28.14211,62.85714 -62.85715,62.85714 -34.71504,0 -62.85714,-28.1421 -62.85714,-62.85714 0,-34.71504 28.1421,-62.85714 62.85714,-62.85714 32.76574,0 60.03546,25.1695 62.65582,57.83029"
       sodipodi:ry="62.857143"
       sodipodi:rx="62.857143"
       sodipodi:cy="200.93361"
       sodipodi:cx="457.14285"
       id="path3790"
       style="fill:none;stroke:#ffffff;stroke-width:9.26315784;stroke-linecap:round;stroke-linejoin:round;stroke-miterlimit:4;stroke-opacity:1;stroke-dasharray:none"
       sodipodi:type="arc" />
  </g>
</svg>
