<?xml version="1.0" encoding="UTF-8" standalone="no"?>
<!-- Created with Inkscape (http://www.inkscape.org/) -->

<svg
   xmlns:dc="http://purl.org/dc/elements/1.1/"
   xmlns:cc="http://creativecommons.org/ns#"
   xmlns:rdf="http://www.w3.org/1999/02/22-rdf-syntax-ns#"
   xmlns:svg="http://www.w3.org/2000/svg"
   xmlns="http://www.w3.org/2000/svg"
   xmlns:sodipodi="http://sodipodi.sourceforge.net/DTD/sodipodi-0.dtd"
   xmlns:inkscape="http://www.inkscape.org/namespaces/inkscape"
   width="800"
   height="768"
   id="svg2"
   version="1.1"
   inkscape:version="0.48.4 r9939"
   sodipodi:docname="1.svg">
  <defs
     id="defs4" />
  <sodipodi:namedview
     id="base"
     pagecolor="#ffffff"
     bordercolor="#666666"
     borderopacity="1.0"
     inkscape:pageopacity="0.0"
     inkscape:pageshadow="2"
     inkscape:zoom="0.77734378"
     inkscape:cx="514.96462"
     inkscape:cy="383.99997"
     inkscape:document-units="px"
     inkscape:current-layer="layer1"
     showgrid="false"
     showborder="false"
     inkscape:showpageshadow="false"
     inkscape:window-width="1311"
     inkscape:window-height="744"
     inkscape:window-x="55"
     inkscape:window-y="24"
     inkscape:window-maximized="1"
     fit-margin-top="0"
     fit-margin-left="0"
     fit-margin-right="0"
     fit-margin-bottom="0" />
  <metadata
     id="metadata7">
    <rdf:RDF>
      <cc:Work
         rdf:about="">
        <dc:format>image/svg+xml</dc:format>
        <dc:type
           rdf:resource="http://purl.org/dc/dcmitype/StillImage" />
        <dc:title />
      </cc:Work>
    </rdf:RDF>
  </metadata>
  <g
     inkscape:label="Layer 1"
     inkscape:groupmode="layer"
     id="layer1"
     transform="translate(728.5072,-844.01087)">
    <rect
       style="color:#000000;fill:#333333;fill-opacity:1;fill-rule:evenodd;stroke:#000000;stroke-width:0.63206667px;stroke-linecap:butt;stroke-linejoin:miter;stroke-miterlimit:4;stroke-opacity:1;stroke-dasharray:none;stroke-dashoffset:0;marker:none;visibility:visible;display:inline;overflow:visible;enable-background:accumulate"
       id="rect4194"
       width="799.36792"
       height="767.36792"
       x="-728.19116"
       y="844.3269" />
    <g
       id="g4149"
       transform="matrix(0.72734795,0,0,0.72734795,-404.20605,408.90218)">
      <g
         id="g3947">
        <g
           id="g4089">
          <path
             style="fill:#c87137;stroke:#000000;stroke-width:0.2;stroke-linecap:butt;stroke-linejoin:miter;stroke-miterlimit:4;stroke-opacity:1;stroke-dasharray:none"
             d="m 33.370218,1088.4048 c -12.89001,19.4644 7.02376,71.8301 7.02376,71.8301 l 36.94508,104.4557 c 0,0 -6.550133,49.7322 -6.16863,74.7211 0.26374,17.2752 2.581223,34.5345 5.83938,51.5017 6.999629,36.4514 29.328952,107.4202 29.328952,107.4202 l -3.04562,36.3808 -0.28509,24.1526 10.2766,33.5961 c 0,0 9.42388,-15.5829 12.12678,-24.1874 2.11395,-6.7296 3.0139,-13.8887 3.03651,-20.9425 0.0344,-10.743 -2.02675,-21.4516 -4.42009,-31.9247 -1.23236,-5.3927 -5.09018,-15.7953 -5.09018,-15.7953 l 0.28508,-24.1526 -13.88096,-403.4732 c 0,0 -57.545162,-5.3668 -71.971572,16.4174 z"
             id="path3893"
             inkscape:connector-curvature="0"
             sodipodi:nodetypes="accaaccccaaaccca" />
          <path
             sodipodi:nodetypes="ccaacc"
             style="fill:#2b1100;stroke:#000000;stroke-width:1px;stroke-linecap:butt;stroke-linejoin:miter;stroke-opacity:1"
             d="m 95.817864,1554.1141 34.356906,-3.9771 c 0,0 0.19711,14.4182 -1.38415,21.3838 -1.8891,8.3217 -1.08394,22.6013 -9.53874,23.7567 -7.44958,1.0181 -13.71276,-17.9096 -13.71276,-17.9096 z"
             id="path3928"
             inkscape:connector-curvature="0" />
          <path
             style="fill:#2b1100;stroke:#000000;stroke-width:1px;stroke-linecap:butt;stroke-linejoin:miter;stroke-opacity:1"
             d="m 109.87137,1558.474 -1.21736,-58.1504 -11.363411,1.8668 -1.333453,-8.1168 22.726824,-3.7336 1.06676,6.4934 -10.83003,5.1135 z"
             id="path3930"
             inkscape:connector-curvature="0" />
          <path
             sodipodi:nodetypes="cccaacaaccaccccac"
             inkscape:connector-curvature="0"
             id="path3891"
             d="m 178.74563,1067.4948 c 12.89001,19.4644 -7.02376,71.8301 -7.02376,71.8301 l -36.94508,94.4557 c 0,0 7.57307,45.6605 8.16863,68.7211 0.49595,19.2035 -0.86008,38.5242 -3.83938,57.5017 -6.25679,39.8544 -29.32895,117.4202 -29.32895,117.4202 0,0 2.88312,24.2125 3.04562,36.3808 0.13443,10.0662 0.63307,20.3631 -1.71491,30.1526 -3.53226,14.7271 -18.276591,41.5961 -18.276591,41.5961 l -11.20041,-34.2692 c 0,0 -0.556131,-12.6018 0.0371,-18.8607 1.08598,-11.4576 6.42009,-33.9247 6.42009,-33.9247 l 5.09018,-19.7953 -0.28509,-24.1526 13.880961,-403.4732 c 0,0 57.54516,-5.3668 71.97157,16.4174 z"
             style="fill:#ff9955;stroke:#000000;stroke-width:0;stroke-linecap:butt;stroke-linejoin:miter;stroke-miterlimit:4;stroke-opacity:1;stroke-dasharray:none" />
          <path
             inkscape:connector-curvature="0"
             id="path3908"
             d="m 78.965009,1542.6033 34.547191,1.6451 -4.83237,20.8765 c 0,0 -4.73348,22.1267 -13.263777,21.8962 -7.51608,-0.2031 -10.628043,-19.8957 -10.628043,-19.8957 z"
             style="fill:#2b1100;stroke:#000000;stroke-width:1px;stroke-linecap:butt;stroke-linejoin:miter;stroke-opacity:1"
             sodipodi:nodetypes="cccacc" />
          <path
             inkscape:connector-curvature="0"
             id="path3910"
             d="m 92.125844,1549.1837 8.225526,-57.5786 -11.515735,0 0,-8.2256 23.031465,0 0,6.5805 -11.51573,3.2902 z"
             style="fill:#2b1100;stroke:#000000;stroke-width:1px;stroke-linecap:butt;stroke-linejoin:miter;stroke-opacity:1" />
          <path
             id="path3755"
             d="m 92.017933,656.50236 c -29.876172,0.27089 -55.227441,15.77799 -60.163246,38.82324 -1.214151,5.66887 -1.102448,11.341 0.173748,16.84207 0.915316,5.86933 3.636479,12.6819 2.293478,18.07205 -0.747079,2.9984 -3.10603,5.59228 -5.316698,8.14703 -0.0054,0.006 -0.01776,0.006 -0.02317,0.0122 -16.264231,11.79462 -26.3509918,32.96708 -23.2359396,50.80632 3.5615901,20.39646 23.0391326,28.72552 43.4949926,18.60787 8.056046,-3.98459 15.057044,-10.23581 20.374884,-17.59711 9.05647,2.93002 19.616986,4.60326 30.892448,4.60326 33.63119,2e-5 60.89299,-14.95645 60.89299,-33.40404 0,-6.99291 -3.92483,-13.47446 -10.62181,-18.83925 7.19098,-6.23747 12.21855,-14.07925 14.14311,-23.065 5.84985,-27.31288 -19.19966,-54.86679 -55.94695,-61.54725 -5.74177,-1.04382 -11.425215,-1.51152 -16.95784,-1.46135 z"
             style="fill:#501616;fill-opacity:1;fill-rule:evenodd;stroke:#000000;stroke-width:0;stroke-miterlimit:4;stroke-opacity:1;stroke-dasharray:none"
             inkscape:connector-curvature="0" />
          <path
             sodipodi:nodetypes="cscccssccccaccccccccccccccccsscccscssssc"
             inkscape:connector-curvature="0"
             id="path3780"
             d="m 82.3125,701.28125 c -5.157939,8.86171 -8.28125,20.51298 -8.28125,33.28125 0,18.33382 6.454568,34.35806 16.09375,43.125 l 0,30.125 c -17.157278,1.72958 -43.04212,6.52708 -49.09375,19.9375 -2.980606,3.3362 -4.889053,7.76259 -6.9375,11.875 -2.111786,4.23956 -3.815106,8.74603 -5.15625,13.34375 C 17.698629,891.49785 5.0883955,965.56174 1.875,984.90625 l 5.78125,-10 L -72.625,1126.4062 -96,1156 c 0,0 -3.419722,10.4596 -1.0625,14.8125 2.688849,4.9653 14.8125,8.2187 14.8125,8.2187 l 11.5,0 -12.21875,-13.875 4.34375,-8.8124 3.875,-5.8438 4.9375,19.375 L -59,1131.0938 22.3125,999.125 l 4,-17.625 26.03125,-108.9375 c 10.993017,50.68088 44.9375,122.90625 44.9375,122.90625 l 11.8125,0.65625 14.1875,0 c 0,0 27.30907,-66.5361 36.09375,-112.53125 l 13.8125,110.78125 22.90625,2.28125 c 0,0 -3.07545,-93.68458 -10.3125,-139.75 -0.74711,-4.75548 -1.84688,-9.4849 -3.40625,-14 -1.96322,-5.6844 -3.59517,-11.92773 -7.375,-16.375 -5.21603,-14.45328 -32.74675,-18.41597 -51.46875,-19.4375 L 122.40625,779 c 10.47071,-8.41933 17.625,-25.1644 17.625,-44.4375 0,-1.16609 -0.0111,-2.32251 -0.0625,-3.46875 -0.95329,-1.55954 -1.90875,-3.13813 -3.03125,-4.375 -3.6758,-4.05032 -7.15092,-8.46293 -11.34375,-11.75 -4.67959,-3.66867 -9.83042,-6.69412 -15.1875,-8.71875 -6.07452,-2.29577 -12.58133,-2.50923 -18.875,-3.75 -3.03451,-0.59824 -6.135752,-0.82436 -9.21875,-1.21875 z"
             style="fill:#ff9955;fill-opacity:1;fill-rule:evenodd;stroke:#000000;stroke-width:0;stroke-miterlimit:4;stroke-opacity:1;stroke-dasharray:none" />
          <g
             transform="matrix(0.37066305,0,0,0.38969371,139.97136,583.694)"
             id="g3865">
            <path
               inkscape:connector-curvature="0"
               style="fill:#216778;stroke:#000000;stroke-width:0.98074746px;stroke-linecap:butt;stroke-linejoin:miter;stroke-opacity:1"
               d="m -238.16676,597.19474 1.44801,67.05526 c -19.3588,13.43645 -32.34375,38.19622 -32.34375,66.53125 0,34.42151 19.15222,63.55942 45.625,73.53125 l 2,21.1875 62.5,243.125 156.75,5.4375 38.46875,-197.15625 11,-70.75 c 28.106658,-8.76158 48.8125,-38.86912 48.8125,-74.65625 0,-25.87971 -10.841646,-48.76829 -27.46875,-62.78125 L 74.823014,594.0625 -83,611.03125 z"
               id="path3809"
               sodipodi:nodetypes="ccsccccccscccc" />
            <g
               id="g3854"
               transform="translate(10.922632,10.922632)">
              <path
                 inkscape:connector-curvature="0"
                 id="path3837"
                 d="m 41.290146,1113.9262 c -3.231305,0.041 -6.446318,0.159 -9.583161,0.3288 -46.752458,2.5354 -82.601185,19.1989 -97.792737,44.4722 -33.579082,-11.8813 -72.849638,-17.8256 -113.703008,-15.7311 -78.3846,4.0183 -141.00496,36.5174 -164.80094,79.9721 -6.28076,6.8909 -12.62184,14.3696 -20.83135,17.9445 -8.13522,3.5428 -20.51593,7.1267 -32.41259,10.1984 -49.85415,3.9674 -87.89252,22.1406 -95.4247,49.4369 -6.25734,22.6765 9.88606,46.7558 40.25673,66.0054 -66.3792,47.3209 -97.13138,105.8612 -69.70924,142.4786 33.1337,44.244 138.64623,39.7197 235.62019,-10.0789 10.29901,-5.2887 20.07314,-10.8729 29.30452,-16.6881 12.05996,53.988 85.30384,93.8713 166.243946,89.7219 53.683794,-2.7522 97.5890376,-24.1865 119.253102,-54.1622 3.483812,21.7019 20.344255,44.1722 48.581864,60.7717 49.808158,29.2799 116.150108,29.1933 148.150638,-0.1794 18.86735,-17.3181 21.54684,-40.9488 10.39719,-63.4335 2.93963,0.1549 5.87869,0.2992 8.80615,0.4189 154.81715,6.3175 232.66791,-39.6375 173.82907,-102.6123 -28.6355,-30.6485 -84.37924,-59.6621 -151.88769,-82.1255 28.08434,-8.966 46.20797,-22.6606 48.35986,-39.4777 2.84573,-22.2397 -22.88202,-44.7757 -64.64015,-61.2203 -10.42096,-54.1753 -89.49016,-105.3132 -177.788145,-114.6049 -10.444222,-1.0992 -20.535619,-1.5595 -30.229549,-1.4355 z"
                 style="opacity:0.64197531;fill:#d4ff2a;fill-opacity:1;fill-rule:evenodd;stroke:#000000;stroke-width:0;stroke-miterlimit:4;stroke-opacity:1;stroke-dasharray:none" />
              <path
                 inkscape:connector-curvature="0"
                 id="path3818"
                 d="m 1.0031768,942.0327 c -34.3789868,0.1438 -62.5644428,15.5431 -76.7354108,40.9687 -23.010752,-14.12 -50.893016,-22.3749 -80.919326,-22.3749 -57.6109,0 -107.24176,30.4095 -129.91357,74.2499 -5.42225,6.8187 -10.95152,14.226 -17.37234,17.5 -6.36272,3.2445 -15.81509,6.3195 -24.86094,8.875 -36.81487,1.4653 -66.77573,18.2857 -75.61363,46.2188 -7.34211,23.2055 1.48433,49.0587 21.25307,70.6562 -54.17602,45.5875 -83.76577,104.7191 -68.27663,144.1876 18.71527,47.6891 96.13076,48.6249 172.9048,2.0937 8.1537,-4.9418 15.96534,-10.2362 23.40566,-15.7813 2.16349,56.6821 50.65696,102 110.14609,102 53.76221,0 98.517344,-37.0059 108.236045,-85.9687 44.0002626,22.1698 94.158141,38.6189 142.950395,45.0625 112.03806,14.7961 174.39952,-28.7502 139.25158,-97.25 -17.10571,-33.3373 -54.15963,-66.4341 -100.59585,-93.3438 21.56484,-7.8124 36.44914,-21.0644 40.08068,-38.4062 4.80251,-22.9336 -11.18479,-47.708 -39.59559,-67 C 144.40201,1016.931 93.06759,959.6576 29.866121,945.314 19.898519,943.0518 10.229801,941.9941 1.0031768,942.0327 z"
                 style="fill:#216778;fill-opacity:1;fill-rule:evenodd;stroke:#000000;stroke-width:0;stroke-miterlimit:4;stroke-opacity:1;stroke-dasharray:none" />
              <path
                 style="opacity:0.5884774;fill:#216778;fill-opacity:1;fill-rule:evenodd;stroke:#000000;stroke-width:0;stroke-miterlimit:4;stroke-opacity:1;stroke-dasharray:none"
                 d="m -61.13927,1053.4435 c -37.760047,0.1438 -68.71746,15.5431 -84.2821,40.9687 -25.27378,-14.12 -55.89818,-22.3749 -88.87748,-22.3749 -63.27675,0 -117.78866,30.4095 -142.69016,74.2499 -5.95551,6.8187 -12.02858,14.226 -19.08086,17.5 -6.98847,3.2445 -17.37045,6.3195 -27.30592,8.875 -40.43552,1.4653 -73.34292,18.2857 -83.05001,46.2188 -8.06418,23.2055 1.63032,49.0587 23.34325,70.6562 -59.50407,45.5875 -92.00387,104.7191 -74.99143,144.1876 20.55586,47.6891 105.58493,48.6249 189.90944,2.0937 8.9556,-4.9418 17.53549,-10.2362 25.70754,-15.7813 2.37627,56.6821 55.63891,102 120.97862,102 59.04954,0 108.20621,-37.0059 118.88072,-85.9687 48.327542,22.1698 103.41828728,38.6189 157.009107,45.0625 123.056653,14.7961 191.551173,-28.7502 152.946533,-97.25 -18.788,-33.3373 -59.48606,-66.4341 -110.489142,-93.3438 23.685682,-7.8124 40.033812,-21.0644 44.022492,-38.4062 5.27482,-22.9336 -12.28477,-47.708 -43.489683,-67 -1.039263,-56.7892 -57.422256,-114.0626 -126.839395,-128.4062 -10.947878,-2.2622 -21.567488,-3.3199 -31.701522,-3.2813 z"
                 id="path3844"
                 inkscape:connector-curvature="0" />
            </g>
          </g>
          <path
             sodipodi:type="arc"
             style="fill:#ffffff;fill-opacity:1;fill-rule:evenodd;stroke:#000000;stroke-width:0;stroke-miterlimit:4;stroke-opacity:1;stroke-dasharray:none"
             id="path4051"
             sodipodi:cx="185.65309"
             sodipodi:cy="239.14635"
             sodipodi:rx="3.1466625"
             sodipodi:ry="3.1466625"
             d="m 188.79975,239.14635 c 0,1.73785 -1.4088,3.14666 -3.14666,3.14666 -1.73785,0 -3.14666,-1.40881 -3.14666,-3.14666 0,-1.73786 1.40881,-3.14667 3.14666,-3.14667 1.73786,0 3.14666,1.40881 3.14666,3.14667 z"
             transform="translate(-96.318018,658.07209)" />
          <path
             transform="translate(-108.90467,678.5254)"
             d="m 188.79975,239.14635 c 0,1.73785 -1.4088,3.14666 -3.14666,3.14666 -1.73785,0 -3.14666,-1.40881 -3.14666,-3.14666 0,-1.73786 1.40881,-3.14667 3.14666,-3.14667 1.73786,0 3.14666,1.40881 3.14666,3.14667 z"
             sodipodi:ry="3.1466625"
             sodipodi:rx="3.1466625"
             sodipodi:cy="239.14635"
             sodipodi:cx="185.65309"
             id="path4053"
             style="fill:#ffffff;fill-opacity:1;fill-rule:evenodd;stroke:#000000;stroke-width:0;stroke-miterlimit:4;stroke-opacity:1;stroke-dasharray:none"
             sodipodi:type="arc" />
          <path
             sodipodi:type="arc"
             style="fill:#ffffff;fill-opacity:1;fill-rule:evenodd;stroke:#000000;stroke-width:0;stroke-miterlimit:4;stroke-opacity:1;stroke-dasharray:none"
             id="path4055"
             sodipodi:cx="185.65309"
             sodipodi:cy="239.14635"
             sodipodi:rx="3.1466625"
             sodipodi:ry="3.1466625"
             d="m 188.79975,239.14635 c 0,1.73785 -1.4088,3.14666 -3.14666,3.14666 -1.73785,0 -3.14666,-1.40881 -3.14666,-3.14666 0,-1.73786 1.40881,-3.14667 3.14666,-3.14667 1.73786,0 3.14666,1.40881 3.14666,3.14667 z"
             transform="translate(-80.584708,694.25871)" />
          <path
             transform="translate(-91.598024,722.57867)"
             d="m 188.79975,239.14635 c 0,1.73785 -1.4088,3.14666 -3.14666,3.14666 -1.73785,0 -3.14666,-1.40881 -3.14666,-3.14666 0,-1.73786 1.40881,-3.14667 3.14666,-3.14667 1.73786,0 3.14666,1.40881 3.14666,3.14667 z"
             sodipodi:ry="3.1466625"
             sodipodi:rx="3.1466625"
             sodipodi:cy="239.14635"
             sodipodi:cx="185.65309"
             id="path4057"
             style="fill:#ffffff;fill-opacity:1;fill-rule:evenodd;stroke:#000000;stroke-width:0;stroke-miterlimit:4;stroke-opacity:1;stroke-dasharray:none"
             sodipodi:type="arc" />
          <path
             sodipodi:type="arc"
             style="fill:#ffffff;fill-opacity:1;fill-rule:evenodd;stroke:#000000;stroke-width:0;stroke-miterlimit:4;stroke-opacity:1;stroke-dasharray:none"
             id="path4059"
             sodipodi:cx="185.65309"
             sodipodi:cy="239.14635"
             sodipodi:rx="3.1466625"
             sodipodi:ry="3.1466625"
             d="m 188.79975,239.14635 c 0,1.73785 -1.4088,3.14666 -3.14666,3.14666 -1.73785,0 -3.14666,-1.40881 -3.14666,-3.14666 0,-1.73786 1.40881,-3.14667 3.14666,-3.14667 1.73786,0 3.14666,1.40881 3.14666,3.14667 z"
             transform="translate(-88.451362,631.32546)" />
          <path
             transform="translate(-118.34465,639.19212)"
             d="m 188.79975,239.14635 c 0,1.73785 -1.4088,3.14666 -3.14666,3.14666 -1.73785,0 -3.14666,-1.40881 -3.14666,-3.14666 0,-1.73786 1.40881,-3.14667 3.14666,-3.14667 1.73786,0 3.14666,1.40881 3.14666,3.14667 z"
             sodipodi:ry="3.1466625"
             sodipodi:rx="3.1466625"
             sodipodi:cy="239.14635"
             sodipodi:cx="185.65309"
             id="path4061"
             style="fill:#ffffff;fill-opacity:1;fill-rule:evenodd;stroke:#000000;stroke-width:0;stroke-miterlimit:4;stroke-opacity:1;stroke-dasharray:none"
             sodipodi:type="arc" />
          <path
             sodipodi:type="arc"
             style="fill:#ffffff;fill-opacity:1;fill-rule:evenodd;stroke:#000000;stroke-width:0;stroke-miterlimit:4;stroke-opacity:1;stroke-dasharray:none"
             id="path4063"
             sodipodi:cx="185.65309"
             sodipodi:cy="239.14635"
             sodipodi:rx="3.1466625"
             sodipodi:ry="3.1466625"
             d="m 188.79975,239.14635 c 0,1.73785 -1.4088,3.14666 -3.14666,3.14666 -1.73785,0 -3.14666,-1.40881 -3.14666,-3.14666 0,-1.73786 1.40881,-3.14667 3.14666,-3.14667 1.73786,0 3.14666,1.40881 3.14666,3.14667 z"
             transform="translate(-113.62466,609.29882)" />
          <path
             sodipodi:type="arc"
             style="fill:#ffffff;fill-opacity:1;fill-rule:evenodd;stroke:#000000;stroke-width:0;stroke-miterlimit:4;stroke-opacity:1;stroke-dasharray:none"
             id="path4065"
             sodipodi:cx="185.65309"
             sodipodi:cy="239.14635"
             sodipodi:rx="3.1466625"
             sodipodi:ry="3.1466625"
             d="m 188.79975,239.14635 c 0,1.73785 -1.4088,3.14666 -3.14666,3.14666 -1.73785,0 -3.14666,-1.40881 -3.14666,-3.14666 0,-1.73786 1.40881,-3.14667 3.14666,-3.14667 1.73786,0 3.14666,1.40881 3.14666,3.14667 z"
             transform="translate(-171.83792,796.52524)" />
          <path
             transform="translate(-115.19799,776.07193)"
             d="m 188.79975,239.14635 c 0,1.73785 -1.4088,3.14666 -3.14666,3.14666 -1.73785,0 -3.14666,-1.40881 -3.14666,-3.14666 0,-1.73786 1.40881,-3.14667 3.14666,-3.14667 1.73786,0 3.14666,1.40881 3.14666,3.14667 z"
             sodipodi:ry="3.1466625"
             sodipodi:rx="3.1466625"
             sodipodi:cy="239.14635"
             sodipodi:cx="185.65309"
             id="path4067"
             style="fill:#ffffff;fill-opacity:1;fill-rule:evenodd;stroke:#000000;stroke-width:0;stroke-miterlimit:4;stroke-opacity:1;stroke-dasharray:none"
             sodipodi:type="arc" />
          <path
             sodipodi:type="arc"
             style="fill:#ffffff;fill-opacity:1;fill-rule:evenodd;stroke:#000000;stroke-width:0;stroke-miterlimit:4;stroke-opacity:1;stroke-dasharray:none"
             id="path4069"
             sodipodi:cx="185.65309"
             sodipodi:cy="239.14635"
             sodipodi:rx="3.1466625"
             sodipodi:ry="3.1466625"
             d="m 188.79975,239.14635 c 0,1.73785 -1.4088,3.14666 -3.14666,3.14666 -1.73785,0 -3.14666,-1.40881 -3.14666,-3.14666 0,-1.73786 1.40881,-3.14667 3.14666,-3.14667 1.73786,0 3.14666,1.40881 3.14666,3.14667 z"
             transform="translate(-145.09129,772.92527)" />
          <path
             transform="translate(-113.62466,744.60531)"
             d="m 188.79975,239.14635 c 0,1.73785 -1.4088,3.14666 -3.14666,3.14666 -1.73785,0 -3.14666,-1.40881 -3.14666,-3.14666 0,-1.73786 1.40881,-3.14667 3.14666,-3.14667 1.73786,0 3.14666,1.40881 3.14666,3.14667 z"
             sodipodi:ry="3.1466625"
             sodipodi:rx="3.1466625"
             sodipodi:cy="239.14635"
             sodipodi:cx="185.65309"
             id="path4071"
             style="fill:#ffffff;fill-opacity:1;fill-rule:evenodd;stroke:#000000;stroke-width:0;stroke-miterlimit:4;stroke-opacity:1;stroke-dasharray:none"
             sodipodi:type="arc" />
          <path
             sodipodi:type="arc"
             style="fill:#ffffff;fill-opacity:1;fill-rule:evenodd;stroke:#000000;stroke-width:0;stroke-miterlimit:4;stroke-opacity:1;stroke-dasharray:none"
             id="path4073"
             sodipodi:cx="185.65309"
             sodipodi:cy="239.14635"
             sodipodi:rx="3.1466625"
             sodipodi:ry="3.1466625"
             d="m 188.79975,239.14635 c 0,1.73785 -1.4088,3.14666 -3.14666,3.14666 -1.73785,0 -3.14666,-1.40881 -3.14666,-3.14666 0,-1.73786 1.40881,-3.14667 3.14666,-3.14667 1.73786,0 3.14666,1.40881 3.14666,3.14667 z"
             transform="translate(-72.718049,669.08541)" />
          <path
             transform="translate(-151.38461,831.13853)"
             d="m 188.79975,239.14635 c 0,1.73785 -1.4088,3.14666 -3.14666,3.14666 -1.73785,0 -3.14666,-1.40881 -3.14666,-3.14666 0,-1.73786 1.40881,-3.14667 3.14666,-3.14667 1.73786,0 3.14666,1.40881 3.14666,3.14667 z"
             sodipodi:ry="3.1466625"
             sodipodi:rx="3.1466625"
             sodipodi:cy="239.14635"
             sodipodi:cx="185.65309"
             id="path4075"
             style="fill:#ffffff;fill-opacity:1;fill-rule:evenodd;stroke:#000000;stroke-width:0;stroke-miterlimit:4;stroke-opacity:1;stroke-dasharray:none"
             sodipodi:type="arc" />
          <path
             sodipodi:type="arc"
             style="fill:#ffffff;fill-opacity:1;fill-rule:evenodd;stroke:#000000;stroke-width:0;stroke-miterlimit:4;stroke-opacity:1;stroke-dasharray:none"
             id="path4077"
             sodipodi:cx="185.65309"
             sodipodi:cy="239.14635"
             sodipodi:rx="3.1466625"
             sodipodi:ry="3.1466625"
             d="m 188.79975,239.14635 c 0,1.73785 -1.4088,3.14666 -3.14666,3.14666 -1.73785,0 -3.14666,-1.40881 -3.14666,-3.14666 0,-1.73786 1.40881,-3.14667 3.14666,-3.14667 1.73786,0 3.14666,1.40881 3.14666,3.14667 z"
             transform="translate(-129.35797,807.53856)" />
          <path
             transform="translate(-168.69125,861.03182)"
             d="m 188.79975,239.14635 c 0,1.73785 -1.4088,3.14666 -3.14666,3.14666 -1.73785,0 -3.14666,-1.40881 -3.14666,-3.14666 0,-1.73786 1.40881,-3.14667 3.14666,-3.14667 1.73786,0 3.14666,1.40881 3.14666,3.14667 z"
             sodipodi:ry="3.1466625"
             sodipodi:rx="3.1466625"
             sodipodi:cy="239.14635"
             sodipodi:cx="185.65309"
             id="path4079"
             style="fill:#ffffff;fill-opacity:1;fill-rule:evenodd;stroke:#000000;stroke-width:0;stroke-miterlimit:4;stroke-opacity:1;stroke-dasharray:none"
             sodipodi:type="arc" />
          <path
             sodipodi:type="arc"
             style="fill:#ffffff;fill-opacity:1;fill-rule:evenodd;stroke:#000000;stroke-width:0;stroke-miterlimit:4;stroke-opacity:1;stroke-dasharray:none"
             id="path4081"
             sodipodi:cx="185.65309"
             sodipodi:cy="239.14635"
             sodipodi:rx="3.1466625"
             sodipodi:ry="3.1466625"
             d="m 188.79975,239.14635 c 0,1.73785 -1.4088,3.14666 -3.14666,3.14666 -1.73785,0 -3.14666,-1.40881 -3.14666,-3.14666 0,-1.73786 1.40881,-3.14667 3.14666,-3.14667 1.73786,0 3.14666,1.40881 3.14666,3.14667 z"
             transform="translate(-184.42457,832.71186)" />
        </g>
      </g>
      <g
         transform="translate(0.4266688,-1.5733312)"
         id="g4135">
        <g
           id="g4011"
           transform="matrix(1.1428497,0,0,1.2970949,46.798202,-186.72267)">
          <g
             id="g4015"
             transform="matrix(0.24228208,0,0,0.28499036,101.33143,504.6064)">
            <path
               sodipodi:nodetypes="sscscsscs"
               inkscape:connector-curvature="0"
               id="path3998"
               d="m -209.91351,785.55412 c -8.2072,-1.95874 -17.00254,1.6647 -26.93785,5.60689 -9.22109,3.6588 -16.40923,4.50837 -16.40923,4.50837 0,0 24.94465,18.17593 52.31585,18.17593 27.3712,0 53.06252,-17.29191 53.06252,-17.29191 0,0 -4.3379,-0.94299 -10.56333,-3.84075 -9.99372,-4.65179 -19.60156,-8.82562 -29.18666,-7.03353 -3.25126,0.60788 -12.50003,2.94744 -12.50003,2.94744 0.0467,-0.14009 -6.75839,-2.351 -9.78127,-3.07244 z"
               style="fill:#aa0000;fill-opacity:1;fill-rule:evenodd;stroke:#000000;stroke-width:0;stroke-miterlimit:4;stroke-opacity:1;stroke-dasharray:none" />
            <path
               style="fill:#ffffff;fill-opacity:1;fill-rule:evenodd;stroke:#000000;stroke-width:0;stroke-miterlimit:4;stroke-opacity:1;stroke-dasharray:none"
               d="m -239.9143,798.06521 c 6.19536,5.30209 16.87382,5.51776 37.20419,5.51776 20.33037,0 35.72881,-1.789 41.92418,-7.09109 -6.19362,3.05214 -21.59158,3.22093 -41.92418,3.22093 -20.33261,0 -31.01057,1.40454 -37.20419,-1.6476 z"
               id="path3996"
               inkscape:connector-curvature="0"
               sodipodi:nodetypes="cscsc" />
          </g>
        </g>
        <g
           id="g4025"
           transform="matrix(0.55555555,0,0,0.52173847,281.64785,106.58864)">
          <path
             transform="translate(-97.891349,656.49876)"
             d="m -275.33296,594.71924 c 0,5.21356 -2.81761,9.43999 -6.29332,9.43999 -3.47571,0 -6.29333,-4.22643 -6.29333,-9.43999 0,-5.21356 2.81762,-9.43999 6.29333,-9.43999 3.47571,0 6.29332,4.22643 6.29332,9.43999 z"
             sodipodi:ry="9.4399872"
             sodipodi:rx="6.2933249"
             sodipodi:cy="594.71924"
             sodipodi:cx="-281.62628"
             id="path4021"
             style="fill:#ccff00;fill-opacity:1;fill-rule:evenodd;stroke:#000000;stroke-width:0;stroke-miterlimit:4;stroke-opacity:1;stroke-dasharray:none"
             sodipodi:type="arc" />
          <path
             transform="translate(-83.731368,636.04545)"
             d="m -287.91961,633.26581 c 0,4.7791 -3.16982,8.65332 -7.07999,8.65332 -3.91017,0 -7.07999,-3.87422 -7.07999,-8.65332 0,-4.7791 3.16982,-8.65332 7.07999,-8.65332 3.91017,0 7.07999,3.87422 7.07999,8.65332 z"
             sodipodi:ry="8.6533213"
             sodipodi:rx="7.0799904"
             sodipodi:cy="633.26581"
             sodipodi:cx="-294.9996"
             id="path4023"
             style="fill:#ccff00;fill-opacity:1;fill-rule:evenodd;stroke:#000000;stroke-width:0;stroke-miterlimit:4;stroke-opacity:1;stroke-dasharray:none"
             sodipodi:type="arc" />
        </g>
        <g
           transform="matrix(0.55555555,0,0,0.47826015,352.02108,163.4324)"
           id="g4029">
          <path
             sodipodi:type="arc"
             style="fill:#ccff00;fill-opacity:1;fill-rule:evenodd;stroke:#000000;stroke-width:0;stroke-miterlimit:4;stroke-opacity:1;stroke-dasharray:none"
             id="path4031"
             sodipodi:cx="-281.62628"
             sodipodi:cy="594.71924"
             sodipodi:rx="6.2933249"
             sodipodi:ry="9.4399872"
             d="m -275.33296,594.71924 c 0,5.21356 -2.81761,9.43999 -6.29332,9.43999 -3.47571,0 -6.29333,-4.22643 -6.29333,-9.43999 0,-5.21356 2.81762,-9.43999 6.29333,-9.43999 3.47571,0 6.29332,4.22643 6.29332,9.43999 z"
             transform="translate(-97.891349,656.49876)" />
          <path
             sodipodi:type="arc"
             style="fill:#ccff00;fill-opacity:1;fill-rule:evenodd;stroke:#000000;stroke-width:0;stroke-miterlimit:4;stroke-opacity:1;stroke-dasharray:none"
             id="path4033"
             sodipodi:cx="-294.9996"
             sodipodi:cy="633.26581"
             sodipodi:rx="7.0799904"
             sodipodi:ry="8.6533213"
             d="m -287.91961,633.26581 c 0,4.7791 -3.16982,8.65332 -7.07999,8.65332 -3.91017,0 -7.07999,-3.87422 -7.07999,-8.65332 0,-4.7791 3.16982,-8.65332 7.07999,-8.65332 3.91017,0 7.07999,3.87422 7.07999,8.65332 z"
             transform="translate(-83.731368,636.04545)" />
        </g>
      </g>
    </g>
  </g>
</svg>
