<?xml version="1.0" encoding="UTF-8" standalone="no"?>
<!-- Created with Inkscape (http://www.inkscape.org/) -->

<svg
   xmlns:dc="http://purl.org/dc/elements/1.1/"
   xmlns:cc="http://creativecommons.org/ns#"
   xmlns:rdf="http://www.w3.org/1999/02/22-rdf-syntax-ns#"
   xmlns:svg="http://www.w3.org/2000/svg"
   xmlns="http://www.w3.org/2000/svg"
   xmlns:sodipodi="http://sodipodi.sourceforge.net/DTD/sodipodi-0.dtd"
   xmlns:inkscape="http://www.inkscape.org/namespaces/inkscape"
   inkscape:version="0.48.4 r9939"
   version="1.1"
   id="svg2"
   height="768"
   width="1366"
   sodipodi:docname="dragon2.svg"
   inkscape:export-filename="/home/atul/Desktop/dragon8.png"
   inkscape:export-xdpi="90"
   inkscape:export-ydpi="90">
  <defs
     id="defs4">
    <filter
       id="filter4240"
       inkscape:label="Drop Shadow"
       color-interpolation-filters="sRGB">
      <feFlood
         id="feFlood4242"
         flood-opacity="0.1"
         flood-color="rgb(0,0,0)"
         result="flood" />
      <feComposite
         id="feComposite4244"
         in2="SourceGraphic"
         in="flood"
         operator="in"
         result="composite1" />
      <feGaussianBlur
         id="feGaussianBlur4246"
         stdDeviation="1"
         result="blur" />
      <feOffset
         id="feOffset4248"
         dx="0"
         dy="30"
         result="offset" />
      <feComposite
         id="feComposite4250"
         in2="offset"
         in="SourceGraphic"
         operator="over"
         result="composite2" />
    </filter>
  </defs>
  <sodipodi:namedview
     id="base"
     pagecolor="#ffffff"
     bordercolor="#666666"
     borderopacity="1.0"
     inkscape:pageopacity="0.0"
     inkscape:pageshadow="2"
     inkscape:zoom="0.77734375"
     inkscape:cx="683"
     inkscape:cy="384"
     inkscape:document-units="px"
     inkscape:current-layer="layer1"
     showgrid="false"
     showborder="false"
     inkscape:showpageshadow="false"
     inkscape:window-width="1311"
     inkscape:window-height="744"
     inkscape:window-x="55"
     inkscape:window-y="24"
     inkscape:window-maximized="1"
     fit-margin-top="0"
     fit-margin-left="0"
     fit-margin-right="0"
     fit-margin-bottom="0" />
  <metadata
     id="metadata7">
    <rdf:RDF>
      <cc:Work
         rdf:about="">
        <dc:format>image/svg+xml</dc:format>
        <dc:type
           rdf:resource="http://purl.org/dc/dcmitype/StillImage" />
        <dc:title></dc:title>
      </cc:Work>
    </rdf:RDF>
  </metadata>
  <g
     inkscape:label="Layer 1"
     inkscape:groupmode="layer"
     id="layer1"
     transform="translate(608.57471,-552.87512)">
    <rect
       style="color:#000000;fill:#808080;fill-opacity:1;fill-rule:evenodd;stroke:#000000;stroke-width:0;stroke-linecap:butt;stroke-linejoin:miter;stroke-miterlimit:4;stroke-opacity:1;stroke-dasharray:none;stroke-dashoffset:0;marker:none;visibility:visible;display:inline;overflow:visible;enable-background:accumulate"
       id="rect2985"
       width="1366"
       height="768"
       x="-608.57471"
       y="552.87512" />
    <g
       id="g4018"
       style="filter:url(#filter4240)"
       transform="matrix(1.191946,0,0,1.3046329,489.23528,-130.8301)">
      <g
         transform="matrix(0.33700069,0,0,0.38254327,-369.29363,592.91455)"
         id="g3837">
        <g
           transform="matrix(0.79301075,0,0,0.79301075,17.707288,137.94411)"
           id="g4002">
          <g
             id="g3969"
             transform="matrix(1.6685379,0,0,1.3832599,-615.33751,-137.15591)">
            <g
               id="g3973"
               transform="matrix(0.94503964,0,0,1.0115621,17.337422,-31.478912)">
              <g
                 id="g3983">
                <g
                   id="g3987"
                   transform="translate(-1.8836867,0)">
                  <g
                     id="g3991">
                    <path
                       sodipodi:nodetypes="cscscscsccc"
                       inkscape:connector-curvature="0"
                       id="path3813"
                       d="m 425.86681,776.57878 c 0,0 -21.74072,6.38378 -36.20118,17.78028 -20.88528,16.45989 -43.44141,47.58519 -43.44141,47.58519 0,0 18.63788,-5.72409 21.7207,2.82277 7.85525,21.77796 -47.06153,71.41431 -47.06153,71.41431 0,0 46.16111,-31.00923 47.06153,-20.35863 2.56814,30.37698 -52.49171,85.14969 -52.49171,85.14969 0,0 34.45914,-27.88658 50.68165,-22.61936 13.43718,4.3628 7.24024,58.24097 7.24024,58.24097 l 52.43191,-91.68747 z"
                       style="fill:#1a1a1a;stroke:#000000;stroke-width:0;stroke-linecap:butt;stroke-linejoin:miter;stroke-miterlimit:4;stroke-opacity:1;stroke-dasharray:none" />
                    <path
                       style="fill:#d40000;stroke:#000000;stroke-width:0;stroke-linecap:butt;stroke-linejoin:miter;stroke-miterlimit:4;stroke-opacity:1;stroke-dasharray:none"
                       d="m 424.35936,777.55432 c 0,0 20.4282,9.56285 36.16909,21.55848 20.03928,15.27126 45.39053,50.87433 45.39053,50.87433 0,0 -13.36727,-5.34083 -16.20236,3.29136 -7.22406,21.9954 39.8403,62.86189 39.8403,62.86189 0,0 -47.03601,-29.66536 -47.62897,-18.99323 -1.69121,30.43834 51.19929,79.99183 51.19929,79.99183 0,0 -31.52314,-23.27253 -47.58704,-17.53976 -13.3058,4.7485 -3.69508,60.23008 -3.69508,60.23008 l -56.91808,-92.04472 z"
                       id="path3820"
                       inkscape:connector-curvature="0"
                       sodipodi:nodetypes="cscscscsccc" />
                  </g>
                </g>
              </g>
            </g>
          </g>
          <path
             style="fill:#1a1a1a;stroke:#000000;stroke-width:0;stroke-linecap:butt;stroke-linejoin:miter;stroke-miterlimit:4;stroke-opacity:1;stroke-dasharray:none"
             d="m 1011.3438,86.5625 c -10e-5,0 -55.00632,32.19655 -78.6563,53.15625 -17.51761,15.52479 -33.61349,33.1629 -45.9375,52.96875 -4.03697,6.48775 -8.36134,13.36211 -8.875,21.09375 -0.45785,6.89169 1.29122,14.63889 5.34375,19.5625 3.8739,4.70659 10.41962,5.1076 15.875,6.8125 7.53081,2.35355 36.625,11.28125 36.625,11.28125 0,0 -32.77692,-0.71052 -42.46875,1.875 -5.57795,1.48806 -16.8125,4.0625 -16.8125,4.0625 0,0 -11.00968,4.84584 -14.9375,9.65625 -4.65381,5.69959 -8.74228,13.35289 -8.875,21.09375 -0.12515,7.30439 7.71875,19.75 7.71875,19.75 l 38.71875,41.5 c 0,0 -45.47015,-25.41877 -68.125,-27.59375 -9.35693,-0.89833 -19.09601,-2.49377 -28.25,0.34375 -8.22272,2.54886 -16.95364,6.83789 -22.40625,14.5 -4.64757,6.53078 -5.86976,15.68794 -6.78125,24 -0.60146,5.48402 -0.45388,11.24525 0.9375,16.46875 3.11113,11.6801 16.09375,31.40625 16.09375,31.40625 0,0 -39.24729,-33.93863 -62.0625,-43.46875 -9.50243,-3.96928 -19.93777,-5.20195 -30.125,-5.28125 -9.58293,-0.0746 -19.60403,0.37979 -28.59375,4.53125 -9.60252,4.43447 -18.5244,11.86654 -25.3125,20.96875 -5.58045,7.48285 -9.56649,16.80478 -11.6875,26.3125 -2.76404,12.39028 -3.91508,26.01654 -0.9375,38.15625 3.26967,13.33059 19.78125,34.4375 19.78125,34.4375 0,0 -51.50741,-30.47844 -77.65625,-44.78125 -10.39613,-5.68646 -20.40271,-12.66728 -31.5,-16.3125 -12.71326,-4.17605 -26.11147,-7.35527 -39.40625,-6.09375 -10.87967,1.03235 -22.32527,4.01657 -31.53125,11.0625 -8.06293,6.17109 -14.92387,15.43931 -18.6875,25.71875 -2.1583,5.89485 -0.66485,12.69665 -1.625,18.96875 -1.80415,11.78524 -7.71875,34.84375 -7.71875,34.84375 0,0 -8.17876,-27.77098 -15.375,-39.53125 -5.71531,-9.34012 -13.24586,-17.27145 -21.46875,-23.625 -11.57562,-8.94409 -24.56282,-16.32043 -38.28125,-19.625 -9.92171,-2.38999 -20.64321,-2.87982 -30.5625,0.15625 -10.97203,3.35829 -22.5514,9.14714 -29.875,19.3125 -8.86837,12.30948 -13.3125,45.3125 -13.3125,45.3125 l -0.9375,10.84375 c 0,0 -13.53043,-35.28116 -22.9375,-46.96875 -8.98609,-11.16454 -15.56472,-11.87633 -27.90625,-17.40625 -9.63579,-4.31755 -19.3159,-4.79576 -29.65625,-6.6875 -9.23079,-1.68875 -34.80025,7.28481 -48.9375,10.03125 -11.20974,10.84276 -21.25522,22.16394 -27.125,32.34375 -7.35258,12.7514 -10,29.55913 -10,29.55913 0,0 80.92359,47.52772 106.90962,76.09712 25.57898,28.12188 56.3125,58.33295 56.3125,58.33295 0,0 -41.52203,-22.20062 -59.12634,-13.46604 -10.70918,5.31348 8.06654,48.40962 8.06654,48.40962 0,0 -38.76084,-33.33134 -56.4701,-26.90692 -12.06052,4.37522 -8.06047,53.78596 -8.06047,53.78596 0,0 -28.85366,-56.03613 -48.37635,-53.78461 -16.04756,1.85074 -33.563178,333.35477 -33.563178,333.35477 0,0 -6.731939,204.14747 -14.463985,220.45657 C 71.32857,1212.3085 63.516996,1043.073 59.128368,979.78674 48.050165,820.03326 41.716943,644.27663 32.245951,643.74663 14.487487,642.75286 -2.6915493,692.1549 -2.6915493,692.1549 c 0,0 -8.2695437,-57.91394 -26.8736507,-59.15962 -17.080923,-1.14369 -48.378374,40.34443 -48.378374,40.34443 0,0 18.092363,-52.13065 2.662325,-56.47213 -16.27485,-4.57919 -51.064521,16.15356 -51.064521,16.15356 0,0 43.420976,-41.69485 69.22077,-67.21269 28.633208,-28.32029 97.436825,-61.84307 97.436825,-61.84307 0,0 -5.281075,-21.12937 -14.749325,-34.93413 C 15.587761,454.48803 21.610725,451.516 0.75,440.96875 c -7.0139766,-3.54629 -35.13091,-13.93658 -42.8125,-12.53125 -10.34035,1.89174 -22.020474,0.36995 -31.65625,4.6875 -12.341516,5.52992 -24.920191,12.24171 -33.90625,23.40625 -9.40707,11.68759 -14.9375,44.96875 -14.9375,44.96875 L -123.5,490.65625 c 0,0 -4.44409,-33.00302 -13.3125,-45.3125 -7.32358,-10.16536 -18.90295,-15.95421 -29.875,-19.3125 -9.91928,-3.03607 -20.64076,-2.54624 -30.5625,-0.15625 -13.71841,3.30457 -26.70566,10.64966 -38.28125,19.59375 -8.22291,6.35355 -15.75342,14.31613 -21.46875,23.65625 -7.19622,11.76026 -15.375,39.53125 -15.375,39.53125 0,0 -5.91461,-23.05851 -7.71875,-34.84375 -0.96018,-6.2721 0.53332,-13.0739 -1.625,-18.96875 -3.76361,-10.27944 -10.62454,-19.57891 -18.6875,-25.75 -9.20597,-7.04593 -20.65157,-10.03015 -31.53125,-11.0625 -13.29478,-1.26152 -26.693,1.94895 -39.40625,6.125 -11.0973,3.64522 -21.10386,10.62604 -31.5,16.3125 C -428.99259,454.77156 -480.5,485.25 -480.5,485.25 c 0,0 16.51157,-21.10691 19.78125,-34.4375 2.97758,-12.13971 1.82655,-25.76597 -0.9375,-38.15625 -2.12101,-9.50772 -6.10705,-18.82965 -11.6875,-26.3125 -6.7881,-9.10221 -15.70998,-16.53428 -25.3125,-20.96875 -8.98971,-4.15146 -19.01082,-4.60585 -28.59375,-4.53125 -10.18723,0.0793 -20.62257,1.31197 -30.125,5.28125 -22.81521,9.53012 -62.0625,43.46875 -62.0625,43.46875 0,0 12.98263,-19.72615 16.09375,-31.40625 1.39139,-5.2235 1.53896,-10.98473 0.9375,-16.46875 -0.91149,-8.31205 -2.13368,-17.46922 -6.78125,-24 -5.45261,-7.66211 -14.18353,-11.95114 -22.40625,-14.5 -9.15399,-2.83752 -18.89307,-1.24208 -28.25,-0.34375 -22.65484,2.17498 -68.125,27.59375 -68.125,27.59375 l 38.71875,-41.5 c 0,0 7.84391,-12.44561 7.71875,-19.75 -0.13271,-7.74085 -4.22119,-15.39416 -8.875,-21.09375 -3.92781,-4.81041 -14.9375,-9.6875 -14.9375,-9.6875 0,0 -11.23454,-2.54319 -16.8125,-4.03125 -9.69183,-2.58552 -42.46875,-1.875 -42.46875,-1.875 0,0 29.09419,-8.9277 36.625,-11.28125 5.45538,-1.7049 12.0011,-2.10591 15.875,-6.8125 4.05253,-4.92361 5.8016,-12.67081 5.34375,-19.5625 -0.51366,-7.73164 -4.83803,-14.606 -8.875,-21.09375 -12.32401,-19.80585 -28.41989,-37.44396 -45.9375,-52.96875 C -785.24373,119.8528 -840.25,87.65625 -840.25,87.65625 c 0,0 92.69001,16.93419 111.46875,17.40625 69.54204,1.74818 94.25387,19.39619 163.625,27.28125 48.48217,5.51073 76.00402,35.0511 125.0625,44.3125 51.35374,9.69469 136.27766,32.64556 185.34375,53.53125 20.57979,8.7601 78.82885,20.83215 99.90625,27.65625 C -133.60335,264.7206 -77.375,281 -77.375,281 l 95.125,27.12495 c -6.29542,-14.5092 -9.875,-31.24828 -9.875,-49.0625 0,-36.37817 14.94845,-68.22887 37.375,-85.875 0.0296,-0.0293 0.09519,-0.0642 0.125,-0.0937 8.6252,-8.5208 25.956603,-23.96816 38.65625,-24.15625 11.958105,-0.17712 28.2369,12.43065 38.15625,21.28125 24.65293,16.87486 41.4375,50.31968 41.4375,88.84375 0,17.26036 -3.37409,33.52784 -9.3125,47.71875 l 94.15625,-26.875 c 0,0 56.22837,-16.2794 77.46875,-23.15625 21.07742,-6.8241 79.32644,-18.89616 99.90625,-27.65625 49.06609,-20.88569 133.99001,-43.80531 185.34375,-53.5 49.05849,-9.2614 76.58034,-38.83302 125.0625,-44.34375 69.3711,-7.88506 94.08295,-25.53307 163.625,-27.28125 18.77874,-0.47207 111.4687,-17.40625 111.4688,-17.40625 z"
             id="path2987"
             inkscape:connector-curvature="0"
             sodipodi:nodetypes="cssssscscscccssscscsssssscsssssscsssssccssscscscscscscssscscscscsssssccssssscsssssscsssssscscsssccsscscssssscsssssccsccscsccsssssc" />
        </g>
      </g>
      <path
         sodipodi:type="arc"
         style="fill:#b3b3b3;fill-opacity:1;fill-rule:evenodd;stroke:#000000;stroke-width:0;stroke-linejoin:miter;stroke-miterlimit:4;stroke-opacity:1;stroke-dasharray:none"
         id="path4014"
         sodipodi:cx="-317.58792"
         sodipodi:cy="754.07074"
         sodipodi:rx="13.668342"
         sodipodi:ry="7.2361808"
         d="m -303.91958,754.07074 a 13.668342,7.2361808 0 1 1 -27.33668,0 13.668342,7.2361808 0 1 1 27.33668,0 z"
         transform="matrix(0.41664797,-0.3126016,-0.31348401,-0.41547518,18.550731,923.49699)" />
      <path
         transform="matrix(-0.41664797,-0.3126016,0.31348401,-0.41547518,-699.18379,923.49699)"
         d="m -303.91958,754.07074 a 13.668342,7.2361808 0 1 1 -27.33668,0 13.668342,7.2361808 0 1 1 27.33668,0 z"
         sodipodi:ry="7.2361808"
         sodipodi:rx="13.668342"
         sodipodi:cy="754.07074"
         sodipodi:cx="-317.58792"
         id="path4016"
         style="fill:#b3b3b3;fill-opacity:1;fill-rule:evenodd;stroke:#000000;stroke-width:0;stroke-linejoin:miter;stroke-miterlimit:4;stroke-opacity:1;stroke-dasharray:none"
         sodipodi:type="arc" />
    </g>
  </g>
</svg>
