<?xml version="1.0" encoding="UTF-8" standalone="no"?>
<!-- Created with Inkscape (http://www.inkscape.org/) -->

<svg
   xmlns:dc="http://purl.org/dc/elements/1.1/"
   xmlns:cc="http://creativecommons.org/ns#"
   xmlns:rdf="http://www.w3.org/1999/02/22-rdf-syntax-ns#"
   xmlns:svg="http://www.w3.org/2000/svg"
   xmlns="http://www.w3.org/2000/svg"
   xmlns:sodipodi="http://sodipodi.sourceforge.net/DTD/sodipodi-0.dtd"
   xmlns:inkscape="http://www.inkscape.org/namespaces/inkscape"
   width="550.85425"
   height="545.42712"
   id="svg2"
   version="1.1"
   inkscape:version="0.48.4 r9939"
   sodipodi:docname="13.svg">
  <defs
     id="defs4" />
  <sodipodi:namedview
     id="base"
     pagecolor="#ffffff"
     bordercolor="#666666"
     borderopacity="1.0"
     inkscape:pageopacity="0.0"
     inkscape:pageshadow="2"
     inkscape:zoom="1.1055556"
     inkscape:cx="270.90452"
     inkscape:cy="274.52262"
     inkscape:document-units="px"
     inkscape:current-layer="g3861"
     showgrid="false"
     showborder="false"
     inkscape:showpageshadow="false"
     inkscape:window-width="1311"
     inkscape:window-height="744"
     inkscape:window-x="55"
     inkscape:window-y="24"
     inkscape:window-maximized="1"
     fit-margin-top="0"
     fit-margin-left="0"
     fit-margin-right="0"
     fit-margin-bottom="0" />
  <metadata
     id="metadata7">
    <rdf:RDF>
      <cc:Work
         rdf:about="">
        <dc:format>image/svg+xml</dc:format>
        <dc:type
           rdf:resource="http://purl.org/dc/dcmitype/StillImage" />
        <dc:title />
      </cc:Work>
    </rdf:RDF>
  </metadata>
  <g
     inkscape:label="Layer 1"
     inkscape:groupmode="layer"
     id="layer1"
     transform="translate(0.90452262,-511.45768)">
    <g
       id="g3861"
       transform="matrix(1.4064315,0,0,1.4064315,-136.97796,-191.94818)">
      <rect
         style="color:#000000;fill:#d7f4ee;fill-opacity:1;fill-rule:evenodd;stroke:#000000;stroke-width:0;stroke-linecap:butt;stroke-linejoin:miter;stroke-miterlimit:4;stroke-opacity:1;stroke-dasharray:none;stroke-dashoffset:0;marker:none;visibility:visible;display:inline;overflow:visible;enable-background:accumulate"
         id="rect2999"
         width="550.85425"
         height="545.42712"
         x="-0.9045226"
         y="-0.90450084"
         transform="matrix(0.71101934,0,0,0.71101934,97.393979,500.77829)" />
      <path
         sodipodi:nodetypes="ccccccc"
         inkscape:connector-curvature="0"
         id="path3774"
         d="m 246.04891,669.90587 1.89681,123.40436 97.97946,0.16614 1.72811,-112.72342 26.75271,-40.67655 -10.55145,-27.1177 z"
         style="fill:#37c8ab;stroke:#000000;stroke-width:0;stroke-linecap:butt;stroke-linejoin:miter;stroke-miterlimit:4;stroke-opacity:1;stroke-dasharray:none" />
      <path
         inkscape:connector-curvature="0"
         id="path3755"
         d="m 416.41632,543.23684 c -21.07416,0.15008 -39.01728,16.23994 -41.03933,37.67414 -0.15472,1.64007 -0.21169,3.26367 -0.17627,4.87151 l -201.03022,90.53972 34.53329,1.15378 -102.30186,50.28559 182.90624,-47.305 -31.55268,-4.42282 134.59168,-57.56082 c 5.8248,4.23699 12.82076,7.0144 20.51166,7.73994 22.86313,2.15686 43.16107,-14.63472 45.31793,-37.49786 0.33924,-3.59607 0.1954,-7.12033 -0.35255,-10.52825 l -35.35055,18.55664 -15.83243,-5.94518 2.11527,-16.52149 36.18383,-20.04694 c -6.45734,-5.95749 -14.85547,-9.91181 -24.27746,-10.80066 -1.42895,-0.13481 -2.84161,-0.2023 -4.24655,-0.1923 z"
         style="fill:#4d4d4d;stroke:#000000;stroke-width:0;stroke-linecap:butt;stroke-linejoin:miter;stroke-miterlimit:4;stroke-opacity:1;stroke-dasharray:none" />
      <path
         sodipodi:nodetypes="cccasccc"
         inkscape:connector-curvature="0"
         id="path3778"
         d="m 347.98281,673.3999 27.32711,-34.84811 -37.49897,-74.5266 c 0,0 -8.95228,9.33346 -11.68057,15.07516 -1.97896,4.16472 -4.90085,10.13963 -3.12635,13.47502 13.23062,24.86857 20.91844,46.52907 20.91844,46.52907 l -21.36931,20.39189 z"
         style="fill:#37c8ab;stroke:#000000;stroke-width:0;stroke-linecap:butt;stroke-linejoin:miter;stroke-miterlimit:4;stroke-opacity:1;stroke-dasharray:none" />
      <path
         id="path3780"
         d="m 236.42427,606.8295 -20.71997,16.77789 c 2.41054,3.80036 7.60928,12.09249 20.39948,32.73852 1.77407,2.86373 9.39182,1.87052 14.05368,1.26595 5.25692,-0.68173 14.95107,-5.41636 14.95107,-5.41636 l -28.68426,-45.366 z"
         style="fill:#37c8ab;stroke:#000000;stroke-width:0;stroke-linecap:butt;stroke-linejoin:miter;stroke-miterlimit:4;stroke-opacity:1;stroke-dasharray:none"
         inkscape:connector-curvature="0" />
      <path
         id="path3784"
         d="m 260.81391,587.08703 -21.47314,17.37081 c 5.45994,8.60577 15.56004,24.62387 30.20661,48.26648 1.77408,2.86373 9.46361,2.29666 14.05369,1.28198 4.85205,-1.0726 12.8999,-7.48355 12.8999,-7.48355 l -35.68706,-59.43572 z"
         style="fill:#37c8ab;stroke:#000000;stroke-width:0;stroke-linecap:butt;stroke-linejoin:miter;stroke-miterlimit:4;stroke-opacity:1;stroke-dasharray:none"
         inkscape:connector-curvature="0" />
      <path
         inkscape:connector-curvature="0"
         id="path3788"
         d="m 285.9567,566.9119 -21.69748,17.5631 c 6.89379,12.24043 19.9659,35.07463 34.99801,59.33957 1.77408,2.86373 9.51841,2.50278 14.05368,1.26595 2.14994,-0.58631 5.17712,-2.90123 7.05088,-4.29462 1.87376,-1.3934 3.62159,-5.28816 3.62159,-5.28816 L 285.9567,566.9119 z"
         style="fill:#37c8ab;stroke:#000000;stroke-width:0;stroke-linecap:butt;stroke-linejoin:miter;stroke-miterlimit:4;stroke-opacity:1;stroke-dasharray:none" />
      <path
         inkscape:connector-curvature="0"
         id="path3792"
         d="m 310.65081,546.92907 -21.72953,17.57912 34.56534,62.15992 c 0,0 8.72219,-6.37313 11.77817,-10.70452 2.71006,-3.84109 7.13738,-10.10669 5.43238,-13.01208 -13.13285,-22.37884 -23.81543,-43.3249 -30.04636,-56.02244 z"
         style="fill:#37c8ab;stroke:#000000;stroke-width:0;stroke-linecap:butt;stroke-linejoin:miter;stroke-miterlimit:4;stroke-opacity:1;stroke-dasharray:none" />
      <path
         transform="matrix(0.41721558,0,0,0.45198357,139.42676,345.33496)"
         d="m 186.85157,757.10144 c 0,6.32801 -5.12987,11.45788 -11.45788,11.45788 -6.32801,0 -11.45788,-5.12987 -11.45788,-11.45788 0,-6.32801 5.12987,-11.45788 11.45788,-11.45788 6.32801,0 11.45788,5.12987 11.45788,11.45788 z"
         sodipodi:ry="11.45788"
         sodipodi:rx="11.45788"
         sodipodi:cy="757.10144"
         sodipodi:cx="175.39369"
         id="path3809"
         style="fill:#ffffff;fill-opacity:1;fill-rule:evenodd;stroke:#ffffff;stroke-width:0;stroke-linecap:round;stroke-linejoin:miter;stroke-miterlimit:4;stroke-opacity:1;stroke-dasharray:none"
         sodipodi:type="arc" />
      <path
         inkscape:connector-curvature="0"
         id="path3813"
         d="m 213.05718,685.26823 c -4.24411,0 -7.68828,22.06523 -7.68828,49.27361 0,27.20839 3.44417,49.26255 7.68828,49.26255 4.2441,0 7.68828,-22.05416 7.68828,-49.26255 0,-27.20838 -3.44418,-49.27361 -7.68828,-49.27361 z m -0.3317,7.48446 c 2.21432,0 4.00407,18.42794 4.00407,41.159 0,22.73105 -1.78975,41.159 -4.00407,41.159 -2.21431,0 -4.01591,-18.42795 -4.01591,-41.159 0,-22.73106 1.8016,-41.159 4.01591,-41.159 z"
         style="fill:#4d4d4d;fill-opacity:1;fill-rule:evenodd;stroke:#ffffff;stroke-width:0;stroke-linecap:round;stroke-linejoin:miter;stroke-miterlimit:4;stroke-opacity:1;stroke-dasharray:none" />
      <path
         sodipodi:nodetypes="ccccccccccccc"
         inkscape:connector-curvature="0"
         id="path3822"
         d="m 180.30431,778.40825 14.57123,53.66779 11.36942,-3.08688 -5.87549,-21.64024 16.44759,-4.00094 5.52296,20.34182 10.82012,-2.93774 -14.68873,-54.1006 -10.50382,2.85187 6.38176,24.75575 -16.44759,4.00094 -6.34452,-22.90703 z"
         style="fill:#37c8ab;stroke:#4d4d4d;stroke-width:1.02558255;stroke-linecap:butt;stroke-linejoin:miter;stroke-miterlimit:4;stroke-opacity:1;stroke-dasharray:none" />
      <path
         sodipodi:type="arc"
         style="fill:#ffffff;fill-opacity:1;fill-rule:evenodd;stroke:#4d4d4d;stroke-width:2;stroke-linecap:round;stroke-linejoin:miter;stroke-miterlimit:4;stroke-opacity:1;stroke-dasharray:none"
         id="path3877"
         sodipodi:cx="395.79175"
         sodipodi:cy="660.26941"
         sodipodi:rx="7.3979769"
         sodipodi:ry="7.3979769"
         d="m 403.18972,660.26941 c 0,4.08579 -3.31218,7.39798 -7.39797,7.39798 -4.08579,0 -7.39798,-3.31219 -7.39798,-7.39798 0,-4.08579 3.31219,-7.39798 7.39798,-7.39798 4.08579,0 7.39797,3.31219 7.39797,7.39798 z"
         transform="matrix(0.36460452,0,0,0.36460452,71.264972,532.48991)" />
      <path
         sodipodi:nodetypes="ccccc"
         inkscape:connector-curvature="0"
         id="path3824"
         d="m 216.365,764.67089 -2.62602,7.74159 2.84521,3.14159 2.76804,-9.93477 z"
         style="fill:#4d4d4d;stroke:#000000;stroke-width:0;stroke-linecap:butt;stroke-linejoin:miter;stroke-miterlimit:4;stroke-opacity:1;stroke-dasharray:none" />
      <text
         transform="scale(1.1129604,0.89850456)"
         sodipodi:linespacing="125%"
         id="text3826"
         y="916.31366"
         x="214.2709"
         style="font-size:25.84408951px;font-style:normal;font-weight:normal;line-height:125%;letter-spacing:0px;word-spacing:0px;fill:#4d4d4d;fill-opacity:1;stroke:none;font-family:Sans"
         xml:space="preserve"><tspan
           y="916.31366"
           x="214.2709"
           id="tspan3828"
           sodipodi:role="line">ACKATHON</tspan></text>
    </g>
  </g>
</svg>
