<?xml version="1.0" encoding="UTF-8" standalone="no"?>
<!-- Created with Inkscape (http://www.inkscape.org/) -->

<svg
   xmlns:dc="http://purl.org/dc/elements/1.1/"
   xmlns:cc="http://creativecommons.org/ns#"
   xmlns:rdf="http://www.w3.org/1999/02/22-rdf-syntax-ns#"
   xmlns:svg="http://www.w3.org/2000/svg"
   xmlns="http://www.w3.org/2000/svg"
   xmlns:sodipodi="http://sodipodi.sourceforge.net/DTD/sodipodi-0.dtd"
   xmlns:inkscape="http://www.inkscape.org/namespaces/inkscape"
   width="708.43494"
   height="711.94244"
   id="svg2"
   version="1.1"
   inkscape:version="0.48.4 r9939"
   sodipodi:docname="14.svg">
  <defs
     id="defs4">
    <inkscape:path-effect
       is_visible="true"
       id="path-effect3836"
       effect="spiro" />
    <inkscape:path-effect
       effect="spiro"
       id="path-effect3832"
       is_visible="true" />
    <inkscape:path-effect
       effect="spiro"
       id="path-effect3828"
       is_visible="true" />
    <inkscape:path-effect
       is_visible="true"
       id="path-effect3824"
       effect="spiro" />
    <inkscape:path-effect
       is_visible="true"
       id="path-effect4031"
       effect="spiro" />
    <inkscape:path-effect
       effect="spiro"
       id="path-effect4027"
       is_visible="true" />
    <inkscape:path-effect
       effect="spiro"
       id="path-effect4023"
       is_visible="true" />
    <inkscape:path-effect
       effect="spiro"
       id="path-effect4019"
       is_visible="true" />
    <inkscape:path-effect
       effect="spiro"
       id="path-effect3936"
       is_visible="true" />
    <inkscape:path-effect
       effect="spiro"
       id="path-effect3096"
       is_visible="true" />
    <filter
       inkscape:collect="always"
       id="filter4013"
       x="-0.11986833"
       width="1.2397367"
       y="-0.51303643"
       height="2.026073"
       color-interpolation-filters="sRGB">
      <feGaussianBlur
         inkscape:collect="always"
         stdDeviation="12.509823"
         id="feGaussianBlur4015" />
    </filter>
  </defs>
  <sodipodi:namedview
     id="base"
     pagecolor="#ffffff"
     bordercolor="#666666"
     borderopacity="1.0"
     inkscape:pageopacity="0.0"
     inkscape:pageshadow="2"
     inkscape:zoom="0.56790886"
     inkscape:cx="209.54557"
     inkscape:cy="397.75237"
     inkscape:document-units="px"
     inkscape:current-layer="layer1"
     showgrid="false"
     showborder="false"
     inkscape:showpageshadow="false"
     fit-margin-top="0"
     fit-margin-left="0"
     fit-margin-right="0"
     fit-margin-bottom="0"
     inkscape:window-width="1311"
     inkscape:window-height="744"
     inkscape:window-x="55"
     inkscape:window-y="24"
     inkscape:window-maximized="1" />
  <metadata
     id="metadata7">
    <rdf:RDF>
      <cc:Work
         rdf:about="">
        <dc:format>image/svg+xml</dc:format>
        <dc:type
           rdf:resource="http://purl.org/dc/dcmitype/StillImage" />
        <dc:title />
      </cc:Work>
    </rdf:RDF>
  </metadata>
  <g
     inkscape:label="Layer 1"
     inkscape:groupmode="layer"
     id="layer1"
     transform="translate(476.75275,107.15063)">
    <rect
       y="-107.15063"
       x="-476.75275"
       height="708.43494"
       width="708.43494"
       id="rect4069"
       style="color:#000000;fill:#ffcc00;fill-opacity:1;fill-rule:evenodd;stroke:none;stroke-width:13.06376553;marker:none;visibility:visible;display:inline;overflow:visible;enable-background:accumulate" />
    <path
       sodipodi:type="arc"
       style="opacity:0.82304526;fill:#333333;fill-opacity:1;fill-rule:evenodd;stroke:#ffcc00;stroke-width:3;stroke-linecap:round;stroke-linejoin:round;stroke-miterlimit:4;stroke-opacity:1;stroke-dasharray:none;filter:url(#filter4013)"
       id="path3971"
       sodipodi:cx="-90.122849"
       sodipodi:cy="592.38452"
       sodipodi:rx="125.23565"
       sodipodi:ry="29.260666"
       d="m 35.112801,592.38452 c 0,16.16022 -56.06991,29.26067 -125.23565,29.26067 -69.165741,0 -125.235651,-13.10045 -125.235651,-29.26067 0,-16.16022 56.06991,-29.26066 125.235651,-29.26066 69.16574,0 125.23565,13.10044 125.23565,29.26066 z"
       transform="translate(-40.163161,-48.376933)" />
    <g
       id="g3973"
       transform="matrix(0.94722582,0,0,0.94722582,-6.5596269,12.154209)">
      <g
         transform="matrix(0.83413049,0,0,0.83413049,-45.136028,52.283757)"
         style="fill:#333333"
         id="g3832">
        <g
           style="font-size:144px;font-style:normal;font-variant:normal;font-weight:bold;font-stretch:normal;text-align:start;line-height:125%;letter-spacing:0px;word-spacing:0px;writing-mode:lr-tb;text-anchor:start;fill:#333333;fill-opacity:1;stroke:none;font-family:Standard Symbols L;-inkscape-font-specification:Standard Symbols L Bold"
           id="text3006"
           transform="matrix(0.55319204,0,0,0.55319204,-113.32322,-287.34892)">
          <path
             d="m -269.37671,484.93112 -42.32812,0 -42.19537,111.24293 -34.98258,20.42911 82.17013,-217.5236 32.27344,0 45.54027,144.26388 -22.3251,8 -18.15267,-66.41232 m -35.57812,-19.47656 28.75781,0 -14.34375,-41.76563 -14.41406,41.76563"
             id="path3011"
             inkscape:connector-curvature="0"
             sodipodi:nodetypes="ccccccccccccc"
             style="fill:#333333" />
          <path
             d="m -221.70483,399.07956 44.92968,0 c 13.35931,10e-5 23.60148,2.97666 30.72657,8.92969 7.17177,5.90634 10.75771,14.34383 10.75781,25.3125 -1e-4,11.01568 -3.58604,19.50005 -10.75781,25.45312 -7.12509,5.90629 -17.36726,8.85941 -30.72657,8.85938 l -17.85937,0 -2.88582,64.39426 -24.18449,6.65747 0,-139.60642 m 27.07031,19.61719 0,29.32031 14.97656,0 c 5.24994,6e-5 9.30462,-1.26557 12.16406,-3.79688 2.85931,-2.57806 4.28899,-6.21087 4.28907,-10.89843 -8e-5,-4.68743 -1.42976,-8.2968 -4.28907,-10.82813 -2.85944,-2.53116 -6.91412,-3.79679 -12.16406,-3.79687 l -14.97656,0"
             id="path3013"
             inkscape:connector-curvature="0"
             sodipodi:nodetypes="cscccscccccccccccc"
             style="fill:#333333" />
          <path
             d="m -116.23608,399.07956 44.929684,0 c 13.359303,10e-5 23.60148,2.97666 30.726562,8.92969 7.171779,5.90634 10.757713,14.34383 10.757813,25.3125 -10e-5,11.01568 -3.586034,19.50005 -10.757813,25.45312 -7.125082,5.90629 -17.367259,8.85941 -30.726562,8.85938 l -17.859375,0 -1.114179,45.07933 -25.95613,3.34254 0,-116.97656 m 27.070309,19.61719 0,29.32031 14.976562,0 c 5.24994,6e-5 9.304623,-1.26557 12.164063,-3.79688 2.859304,-2.57806 4.28899,-6.21087 4.289062,-10.89843 -7.2e-5,-4.68743 -1.429758,-8.2968 -4.289062,-10.82813 -2.85944,-2.53116 -6.914123,-3.79679 -12.164063,-3.79687 l -14.976562,0"
             id="path3015"
             inkscape:connector-curvature="0"
             sodipodi:nodetypes="cscccscccccccccccc"
             style="fill:#333333" />
          <path
             d="m -23.282959,399.07956 96.75,0 0,20.46094 -34.804687,0 0,82.51562 -27.070313,0 0,-82.51562 -34.875,0 0,-20.46094"
             id="path3017"
             inkscape:connector-curvature="0"
             sodipodi:nodetypes="ccccccccc"
             style="fill:#333333" />
          <path
             d="m 87.388916,399.07956 73.054684,0 0,20.46094 -45.98437,0 0,19.54687 43.24219,0 0,20.46094 -43.24219,0 0,24.04687 47.53125,5.64866 5.77164,23.46974 -80.373204,-8.65746 0,-104.97656"
             id="path3019"
             inkscape:connector-curvature="0"
             sodipodi:nodetypes="ccccccccccccc"
             style="fill:#333333" />
          <path
             d="m 255.1782,484.93112 -42.32812,0 -13.33715,32.66829 -23.4393,-3.77165 41.76863,-114.7482 32.27344,0 51.31192,140.06313 -27.21093,-6.88582 -19.03849,-47.32575 m -35.57812,-19.47656 28.75781,0 -14.34375,-41.76563 -14.41406,41.76563"
             id="path3021"
             inkscape:connector-curvature="0"
             sodipodi:nodetypes="ccccccccccccc"
             style="fill:#333333" />
          <path
             d="m 305.67441,399.07956 34.45312,0 23.90625,56.17969 24.04688,-56.17969 28.38281,0 35.77164,209.32285 -26.47957,-9.54329 -28.88582,-171.58425 -24.1875,56.60156 -17.15625,0 -24.1875,-56.60156 0,122.78125 -25.66406,-8 0,-142.97656"
             id="path3023"
             inkscape:connector-curvature="0"
             sodipodi:nodetypes="cccccccccccccc"
             style="fill:#333333" />
        </g>
        <g
           style="font-size:144px;font-style:normal;font-variant:normal;font-weight:bold;font-stretch:normal;text-align:start;line-height:125%;letter-spacing:0px;word-spacing:0px;writing-mode:lr-tb;text-anchor:start;fill:#333333;fill-opacity:1;stroke:none;font-family:Standard Symbols L;-inkscape-font-specification:Standard Symbols L Bold"
           id="text3879"
           transform="matrix(0.46750582,0,0,0.46750582,-59.46716,-190.43142)">
          <g
             id="g3965"
             style="fill:#333333">
            <path
               sodipodi:nodetypes="cccccccccc"
               inkscape:connector-curvature="0"
               id="path3901"
               d="m -257.87115,458.57831 30.23437,10 38.17969,92 0,-86 25.66406,4 0,114.97656 -30.23437,0 -40.17969,-94 2,94 -25.66406,0"
               style="fill:#333333" />
            <path
               sodipodi:nodetypes="cccc"
               inkscape:connector-curvature="0"
               id="path3903"
               d="m -137.2149,482.57831 27.07031,2 0,108.97656 -27.07031,0"
               style="fill:#333333" />
            <path
               sodipodi:nodetypes="cccccccc"
               inkscape:connector-curvature="0"
               id="path3905"
               d="m -96.01178,484.57831 96.75000021,-2 0,24.46094 -34.80468721,0 0,86.51562 -27.070313,0 0,-86.51562 -34.875,0"
               style="fill:#333333" />
            <path
               sodipodi:nodetypes="cccccccccccc"
               inkscape:connector-curvature="0"
               id="path3907"
               d="m 14.660095,478.57831 27.070313,-4 0,54.00781 39.9375,0 0,-62.00781 27.070312,-6 0,132.97656 -27.070312,0 0,-44.50781 -39.9375,0 0,44.50781 -27.070313,0"
               style="fill:#333333" />
          </g>
        </g>
        <path
           style="fill:#333333;stroke:#000000;stroke-width:3;stroke-linecap:butt;stroke-linejoin:miter;stroke-miterlimit:4;stroke-opacity:1;stroke-dasharray:none"
           d="m -207.07764,10.712627 226.20531,0"
           id="path3934"
           inkscape:path-effect="#path-effect3936"
           inkscape:original-d="m -207.07764,10.712627 226.20531,0"
           inkscape:connector-curvature="0" />
        <path
           inkscape:connector-curvature="0"
           inkscape:original-d="m 10.174364,59.995165 32.632422,0"
           inkscape:path-effect="#path-effect3824"
           id="path3822"
           d="m 10.174364,59.995165 32.632422,0"
           style="fill:#333333;stroke:#000000;stroke-width:3;stroke-linecap:butt;stroke-linejoin:miter;stroke-miterlimit:4;stroke-opacity:1;stroke-dasharray:none" />
        <path
           style="fill:#333333;stroke:#000000;stroke-width:3;stroke-linecap:butt;stroke-linejoin:miter;stroke-miterlimit:4;stroke-opacity:1;stroke-dasharray:none"
           d="m -235.82564,59.995165 32.63243,0"
           id="path3826"
           inkscape:path-effect="#path-effect3828"
           inkscape:original-d="m -235.82564,59.995165 32.63243,0"
           inkscape:connector-curvature="0" />
      </g>
      <g
         transform="matrix(0.83413049,0,0,0.83413049,-45.136028,70.283757)"
         id="g3886">
        <rect
           style="color:#000000;fill:#333333;fill-opacity:1;fill-rule:evenodd;stroke:#000000;stroke-width:0;stroke-linecap:butt;stroke-linejoin:miter;stroke-miterlimit:4;stroke-opacity:1;stroke-dasharray:none;stroke-dashoffset:0;marker:none;visibility:visible;display:inline;overflow:visible;enable-background:accumulate"
           id="rect3022"
           width="12.532462"
           height="53.829926"
           x="2.6537571"
           y="120.10137"
           ry="6.7287407"
           transform="matrix(0.87935831,0.47616065,-0.39533797,0.91853573,0,0)" />
        <rect
           transform="matrix(-0.87935831,0.47616065,0.39533797,0.91853573,0,0)"
           ry="6.7287407"
           y="26.815145"
           x="182.60695"
           height="53.829926"
           width="12.532462"
           id="rect3792"
           style="color:#000000;fill:#333333;fill-opacity:1;fill-rule:evenodd;stroke:#000000;stroke-width:0;stroke-linecap:butt;stroke-linejoin:miter;stroke-miterlimit:4;stroke-opacity:1;stroke-dasharray:none;stroke-dashoffset:0;marker:none;visibility:visible;display:inline;overflow:visible;enable-background:accumulate" />
        <path
           style="fill:#aa0000;stroke:#000000;stroke-width:0;stroke-linecap:butt;stroke-linejoin:miter;stroke-miterlimit:4;stroke-opacity:1;stroke-dasharray:none"
           d="m -33.026336,234.23531 c 10.359334,-5.901 22.536569,-8.55743 34.4123472,-7.50695 10.3951008,0.9195 20.3516958,4.57301 29.9036388,8.77587 12.336223,5.42794 24.260939,11.83513 36.939788,16.40587 8.192826,2.95353 16.718498,5.13266 25.408905,5.70059 8.690407,0.56793 17.568517,-0.51767 25.603177,-3.87771 6.74293,-2.81985 12.8166,-7.22571 17.59037,-12.76013 2.32822,7.94309 2.41938,16.52903 0.26033,24.51976 -2.15905,7.99074 -6.56186,15.36243 -12.57358,21.05212 -5.91472,5.59788 -13.2208,9.49481 -19.53605,14.63658 -3.15762,2.57089 -6.084641,5.47785 -8.300904,8.89372 -2.216262,3.41588 -3.700288,7.37209 -3.825723,11.44202 -0.11437,3.71089 0.888526,7.36287 2.067303,10.88341 1.178777,3.52055 2.548069,7.00019 3.209803,10.65339 1.15075,6.35289 0.04336,13.10061 -3.127273,18.72471 -3.170638,5.6241 -8.389419,10.07467 -14.463093,12.26417 -4.327331,1.55996 -8.964504,1.98175 -13.505231,2.71732 -4.540728,0.73557 -9.168084,1.85784 -12.880332,4.57418 -4.076741,2.98304 -6.635539,7.57976 -8.75097,12.16706 -2.115432,4.5873 -3.956386,9.38342 -7.080369,13.35319 -2.473702,3.14343 -5.718358,5.68315 -9.384087,7.28402 -3.665729,1.60088 -7.74691,2.2549 -11.724365,1.83036 -6.233051,-0.66529 -12.1262479,-4.05811 -15.8313378,-9.11438 l -36.9397892,-49.21763 -36.939789,-60.15487 39.467231,-63.24667"
           id="path4021"
           inkscape:path-effect="#path-effect4023"
           inkscape:original-d="m -33.026336,234.23531 c 0,0 22.67913,-7.92174 34.4123472,-7.50695 10.3817738,0.36702 20.1512858,5.1971 29.9036388,8.77587 12.648284,4.64146 23.865312,13.38061 36.939788,16.40587 16.605227,3.84225 34.699322,6.83304 51.012082,1.82288 6.86223,-2.10761 17.59037,-12.76013 17.59037,-12.76013 0,0 -4.77165,31.76154 -12.31325,45.57188 -7.53683,13.80159 -27.806617,19.72705 -31.662677,34.97232 -1.812434,7.16564 6.293826,14.21576 5.277106,21.5368 -1.633867,11.76485 -8.382878,23.73773 -17.590366,30.98888 -7.247279,5.70743 -19.030625,1.73394 -26.385563,7.2915 -7.885153,5.95821 -8.3494,19.02761 -15.831339,25.52025 -5.844101,5.07137 -13.497969,9.55772 -21.108452,9.11438 -6.027285,-0.3511 -15.8313378,-9.11438 -15.8313378,-9.11438 L -35.553778,357.63685 -72.493567,297.48198 z"
           inkscape:connector-curvature="0"
           sodipodi:nodetypes="caaaacaaaaaaacccc" />
        <path
           style="fill:#333333;fill-opacity:1;fill-rule:evenodd;stroke:#ffcc00;stroke-width:0;stroke-linecap:round;stroke-linejoin:round;stroke-miterlimit:4;stroke-opacity:1;stroke-dasharray:none"
           d="m -99.679059,133.14208 c -50.008341,0 -91.066881,38.30242 -95.469481,87.1645 l 190.9200585,0 C -8.6310852,171.4445 -49.670716,133.14208 -99.679059,133.14208 z"
           id="path2999"
           inkscape:connector-curvature="0" />
        <path
           style="color:#000000;fill:#333333;fill-opacity:1;fill-rule:evenodd;stroke:#ffcc00;stroke-width:0;stroke-linecap:butt;stroke-linejoin:miter;stroke-miterlimit:4;stroke-opacity:1;stroke-dasharray:none;stroke-dashoffset:0;marker:none;visibility:visible;display:inline;overflow:visible;enable-background:accumulate"
           d="m -194.85911,226.85005 0,155.19349 c 0,12.99541 10.82972,23.42765 24.30059,23.42765 l 2.99629,0 0,48.93149 c 0,9.65603 7.75546,17.43508 17.41149,17.43508 l 10.89988,0 c 9.65603,0 17.43508,-7.77905 17.43508,-17.43508 l 0,-48.93149 47.86981,0 0,47.42155 c 0,9.65603 7.755458,17.43508 17.411492,17.43508 l 10.899877,0 c 9.656035,0 17.435085,-7.77905 17.435085,-17.43508 l 0,-47.42155 0.707785,0 c 13.470871,0 24.3241844,-10.43224 24.3241844,-23.42765 l 0,-155.19349 -191.6915634,0 z"
           id="rect3075"
           inkscape:connector-curvature="0" />
        <path
           sodipodi:type="arc"
           style="fill:#ffffff;fill-opacity:1;fill-rule:evenodd;stroke:#ffcc00;stroke-width:0;stroke-linecap:round;stroke-linejoin:round;stroke-miterlimit:4;stroke-opacity:1;stroke-dasharray:none"
           id="path3090"
           sodipodi:cx="-121.2045"
           sodipodi:cy="33.667217"
           sodipodi:rx="18.677429"
           sodipodi:ry="11.543285"
           d="m -102.52707,33.667217 c 0,6.375181 -8.36217,11.543286 -18.67743,11.543286 -10.31526,0 -18.67743,-5.168105 -18.67743,-11.543286 0,-6.37518 8.36217,-11.543285 18.67743,-11.543285 10.31526,0 18.67743,5.168105 18.67743,11.543285 z"
           transform="matrix(0.46334672,0,0,0.75496985,-78.806929,147.2951)" />
        <path
           style="fill:none;stroke:#e3dbde;stroke-width:6.03975868;stroke-linecap:butt;stroke-linejoin:miter;stroke-miterlimit:4;stroke-opacity:1;stroke-dasharray:none"
           d="m -33.776415,161.44122 -3.460382,21.97465 c -0.682592,3.34053 -2.826595,6.35539 -5.757941,8.09673 -1.418558,0.84268 -3.005217,1.38806 -4.632045,1.66348 -1.626827,0.27541 -3.286412,0.27157 -4.936125,0.24213 l -20.503208,-0.36584 c -1.428548,-0.0255 -2.862268,-0.0569 -4.273285,-0.28149 -1.411016,-0.22457 -2.803401,-0.64483 -4.036311,-1.36686 -1.98957,-1.16516 -3.502539,-3.11892 -4.132725,-5.33677 l -3.325052,-22.70944 -22.139461,-0.73167 -3.08336,22.05467 c -0.85371,2.25886 -2.33093,4.27846 -4.22505,5.77632 -2.6449,2.09158 -6.10032,3.12963 -9.46,2.84192 l -15.03569,0 c -2.74905,0 -5.5049,0.048 -8.24102,-0.21828 -2.73612,-0.26626 -5.51578,-0.90434 -7.77304,-2.47343 -2.70678,-1.88157 -4.43731,-5.09582 -4.51784,-8.39134 l -2.29165,-22.14166 131.824185,1.36688"
           id="path3094"
           inkscape:path-effect="#path-effect3096"
           inkscape:original-d="m -33.776415,161.44122 -3.460382,21.97465 c 0,0 -2.978018,6.29676 -5.757941,8.09673 -2.729767,1.76751 -9.56817,1.90561 -9.56817,1.90561 l -20.503208,-0.36584 c 0,0 -5.907903,-0.16311 -8.309596,-1.64835 -1.913601,-1.18339 -4.132725,-5.33677 -4.132725,-5.33677 l -3.325052,-22.70944 -22.139461,-0.73167 -3.08336,22.05467 c 0,0 -2.27737,4.39888 -4.22505,5.77632 -2.68821,1.90117 -9.46,2.84192 -9.46,2.84192 l -15.03569,0 c 0,0 -11.61403,0.46094 -16.01406,-2.69171 -2.58232,-1.85024 -4.51784,-8.39134 -4.51784,-8.39134 l -2.29165,-22.14166 c 47.51621,3.2417 128.712376,9.05372 131.824185,1.36688 z"
           inkscape:connector-curvature="0"
           sodipodi:nodetypes="ccaccaccccaccaccc" />
        <path
           transform="matrix(0.46334672,0,0,0.75496985,-9.3497032,148.80504)"
           d="m -102.52707,33.667217 c 0,6.375181 -8.36217,11.543286 -18.67743,11.543286 -10.31526,0 -18.67743,-5.168105 -18.67743,-11.543286 0,-6.37518 8.36217,-11.543285 18.67743,-11.543285 10.31526,0 18.67743,5.168105 18.67743,11.543285 z"
           sodipodi:ry="11.543285"
           sodipodi:rx="18.677429"
           sodipodi:cy="33.667217"
           sodipodi:cx="-121.2045"
           id="path3092"
           style="fill:#ffffff;fill-opacity:1;fill-rule:evenodd;stroke:#ffcc00;stroke-width:0;stroke-linecap:round;stroke-linejoin:round;stroke-miterlimit:4;stroke-opacity:1;stroke-dasharray:none"
           sodipodi:type="arc" />
        <rect
           style="color:#000000;fill:#333333;fill-opacity:1;fill-rule:evenodd;stroke:#000000;stroke-width:0;stroke-linecap:butt;stroke-linejoin:miter;stroke-miterlimit:4;stroke-opacity:1;stroke-dasharray:none;stroke-dashoffset:0;marker:none;visibility:visible;display:inline;overflow:visible;enable-background:accumulate"
           id="rect3873"
           width="39.17514"
           height="148.11055"
           x="3.7260978"
           y="215.70155"
           ry="21.852377" />
        <rect
           ry="21.852377"
           y="120.7477"
           x="-239.40291"
           height="148.11055"
           width="39.17514"
           id="rect3875"
           style="color:#000000;fill:#333333;fill-opacity:1;fill-rule:evenodd;stroke:#000000;stroke-width:0;stroke-linecap:butt;stroke-linejoin:miter;stroke-miterlimit:4;stroke-opacity:1;stroke-dasharray:none;stroke-dashoffset:0;marker:none;visibility:visible;display:inline;overflow:visible;enable-background:accumulate" />
        <path
           inkscape:connector-curvature="0"
           inkscape:original-d="m -106.73694,210.77266 19.35441,0 7.741764,-5.80633"
           inkscape:path-effect="#path-effect4019"
           id="path4017"
           d="m -106.73694,210.77266 19.35441,0 7.741764,-5.80633"
           style="fill:#ffffff;stroke:#000000;stroke-width:0.82681px;stroke-linecap:butt;stroke-linejoin:miter;stroke-opacity:1" />
        <path
           style="fill:#aa0000;stroke:#000000;stroke-width:0;stroke-linecap:butt;stroke-linejoin:miter;stroke-miterlimit:4;stroke-opacity:1;stroke-dasharray:none"
           d="m -10.246715,228.19163 -103.349225,48.38602 56.616822,-48.32147 46.732403,-0.0645"
           id="path4025"
           inkscape:path-effect="#path-effect4027"
           inkscape:original-d="m -10.246715,228.19163 -103.349225,48.38602 56.616822,-48.32147 z"
           inkscape:connector-curvature="0"
           sodipodi:nodetypes="cccc" />
        <path
           inkscape:connector-curvature="0"
           inkscape:original-d="M -191.31608,228.19163 -71.430655,276.57765 -137.9692,228.25618 z"
           inkscape:path-effect="#path-effect4031"
           id="path4029"
           d="m -191.31608,228.19163 119.885425,48.38602 -66.538545,-48.32147 -53.34688,-0.0645"
           style="fill:#aa0000;stroke:#000000;stroke-width:0;stroke-linecap:butt;stroke-linejoin:miter;stroke-miterlimit:4;stroke-opacity:1;stroke-dasharray:none"
           sodipodi:nodetypes="cccc" />
        <path
           sodipodi:type="arc"
           style="opacity:0.82304526;fill:#aa0000;fill-opacity:1;fill-rule:evenodd;stroke:#00cc00;stroke-width:0;stroke-linecap:round;stroke-linejoin:round;stroke-miterlimit:4;stroke-opacity:1;stroke-dasharray:none"
           id="path4035"
           sodipodi:cx="-86.611572"
           sodipodi:cy="244.76779"
           sodipodi:rx="15.150321"
           sodipodi:ry="9.3634129"
           d="m -71.461251,244.76779 c 0,5.17127 -6.78303,9.36341 -15.150321,9.36341 -8.367292,0 -15.150318,-4.19214 -15.150318,-9.36341 0,-5.17127 6.783026,-9.36341 15.150318,-9.36341 8.367291,0 15.150321,4.19214 15.150321,9.36341 z"
           transform="matrix(0.82681,0,0,0.82681,-22.423002,58.154019)" />
        <path
           style="color:#000000;fill:#aa0000;fill-opacity:1;fill-rule:evenodd;stroke:#ffcc00;stroke-width:0;stroke-linecap:butt;stroke-linejoin:miter;stroke-miterlimit:4;stroke-opacity:1;stroke-dasharray:none;stroke-dashoffset:0;marker:none;visibility:visible;display:inline;overflow:visible;enable-background:accumulate"
           d="m -167.56586,449.46238 0,7.31751 c 0,8.34339 7.75022,15.06705 17.40625,15.06705 l 10.90625,0 c 9.65603,0 17.4375,-6.72366 17.4375,-15.06705 l 0,-7.31751 -45.75,0 z m 93.625,0 0,5.99442 c 0,8.34339 7.75022,15.06705 17.40625,15.06705 l 10.90625,0 c 9.65603,0 17.4375,-6.72366 17.4375,-15.06705 l 0,-5.99442 -45.75,0 z"
           id="path3881"
           inkscape:connector-curvature="0" />
      </g>
    </g>
  </g>
</svg>
