<?xml version="1.0" encoding="UTF-8" standalone="no"?>
<!-- Created with Inkscape (http://www.inkscape.org/) -->

<svg
   xmlns:dc="http://purl.org/dc/elements/1.1/"
   xmlns:cc="http://creativecommons.org/ns#"
   xmlns:rdf="http://www.w3.org/1999/02/22-rdf-syntax-ns#"
   xmlns:svg="http://www.w3.org/2000/svg"
   xmlns="http://www.w3.org/2000/svg"
   xmlns:sodipodi="http://sodipodi.sourceforge.net/DTD/sodipodi-0.dtd"
   xmlns:inkscape="http://www.inkscape.org/namespaces/inkscape"
   width="1365.375"
   height="763.34375"
   id="svg2"
   version="1.1"
   inkscape:version="0.48.4 r9939"
   sodipodi:docname="New document 1">
  <defs
     id="defs4">
    <inkscape:path-effect
       is_visible="true"
       id="path-effect3953"
       effect="spiro" />
    <inkscape:path-effect
       effect="spiro"
       id="path-effect3949"
       is_visible="true" />
    <inkscape:path-effect
       is_visible="true"
       id="path-effect3945"
       effect="spiro" />
    <inkscape:path-effect
       effect="spiro"
       id="path-effect3939"
       is_visible="true" />
    <inkscape:path-effect
       is_visible="true"
       id="path-effect3935"
       effect="spiro" />
    <inkscape:path-effect
       effect="spiro"
       id="path-effect3931"
       is_visible="true" />
    <inkscape:path-effect
       effect="spiro"
       id="path-effect3929"
       is_visible="true" />
    <inkscape:path-effect
       is_visible="true"
       id="path-effect3921"
       effect="spiro" />
    <inkscape:path-effect
       effect="spiro"
       id="path-effect3917"
       is_visible="true" />
    <inkscape:path-effect
       is_visible="true"
       id="path-effect3913"
       effect="spiro" />
    <inkscape:path-effect
       effect="spiro"
       id="path-effect3909"
       is_visible="true" />
    <inkscape:path-effect
       is_visible="true"
       id="path-effect3905"
       effect="spiro" />
    <inkscape:path-effect
       effect="spiro"
       id="path-effect3901"
       is_visible="true" />
    <inkscape:path-effect
       is_visible="true"
       id="path-effect3897"
       effect="spiro" />
    <inkscape:path-effect
       effect="spiro"
       id="path-effect3893"
       is_visible="true" />
    <inkscape:path-effect
       effect="spiro"
       id="path-effect3790"
       is_visible="true" />
    <inkscape:path-effect
       effect="spiro"
       id="path-effect3784"
       is_visible="true" />
    <filter
       inkscape:collect="always"
       id="filter3804"
       x="-0.13585187"
       width="1.2717037"
       y="-0.24544537"
       height="1.4908907"
       color-interpolation-filters="sRGB">
      <feGaussianBlur
         inkscape:collect="always"
         stdDeviation="6.7925933"
         id="feGaussianBlur3806" />
    </filter>
    <filter
       inkscape:collect="always"
       id="filter3828"
       x="-0.12260451"
       width="1.245209"
       y="-0.11745306"
       height="1.2349061"
       color-interpolation-filters="sRGB">
      <feGaussianBlur
         inkscape:collect="always"
         stdDeviation="16.639184"
         id="feGaussianBlur3830" />
    </filter>
    <filter
       inkscape:collect="always"
       id="filter3852"
       x="-0.14762434"
       width="1.2952487"
       y="-0.12895861"
       height="1.2579172"
       color-interpolation-filters="sRGB">
      <feGaussianBlur
         inkscape:collect="always"
         stdDeviation="20.184241"
         id="feGaussianBlur3854" />
    </filter>
    <filter
       inkscape:collect="always"
       id="filter3856"
       x="-0.1118847"
       width="1.2237694"
       y="-0.12938461"
       height="1.2587692"
       color-interpolation-filters="sRGB">
      <feGaussianBlur
         inkscape:collect="always"
         stdDeviation="4.7018213"
         id="feGaussianBlur3858" />
    </filter>
  </defs>
  <sodipodi:namedview
     id="base"
     pagecolor="#ffffff"
     bordercolor="#666666"
     borderopacity="1.0"
     inkscape:pageopacity="0.0"
     inkscape:pageshadow="2"
     inkscape:zoom="0.69764397"
     inkscape:cx="622.48657"
     inkscape:cy="377.37448"
     inkscape:document-units="px"
     inkscape:current-layer="layer1"
     showgrid="false"
     showborder="false"
     inkscape:showpageshadow="false"
     fit-margin-top="0"
     fit-margin-left="0"
     fit-margin-right="0"
     fit-margin-bottom="0"
     inkscape:window-width="1311"
     inkscape:window-height="744"
     inkscape:window-x="55"
     inkscape:window-y="24"
     inkscape:window-maximized="1" />
  <metadata
     id="metadata7">
    <rdf:RDF>
      <cc:Work
         rdf:about="">
        <dc:format>image/svg+xml</dc:format>
        <dc:type
           rdf:resource="http://purl.org/dc/dcmitype/StillImage" />
        <dc:title></dc:title>
      </cc:Work>
    </rdf:RDF>
  </metadata>
  <g
     inkscape:label="Layer 1"
     inkscape:groupmode="layer"
     id="layer1"
     transform="translate(402.84375,-287.75)">
    <rect
       style="color:#000000;fill:#93a7ac;fill-opacity:1;fill-rule:evenodd;stroke:#000000;stroke-width:0;stroke-linecap:butt;stroke-linejoin:miter;stroke-miterlimit:4;stroke-opacity:1;stroke-dasharray:none;stroke-dashoffset:0;marker:none;visibility:visible;display:inline;overflow:visible;enable-background:accumulate"
       id="rect2985"
       width="1365.267"
       height="763.26703"
       x="-402.78806"
       y="287.78555" />
    <g
       id="g4034"
       transform="translate(-31.534709,-11.467167)">
      <g
         transform="translate(90.303944,38.070514)"
         id="g3955">
        <g
           id="g3860"
           transform="matrix(0.41177236,0,0,0.41177236,142.1485,445.31822)">
          <path
             sodipodi:nodetypes="csccssscscc"
             inkscape:connector-curvature="0"
             id="path2987"
             d="m 862.71694,277.21875 c -62.52526,-0.13731 -130.14275,11.11761 -197.15705,34.9375 -144.06952,51.20877 -246.89265,146.86467 -275.83229,243.40964 -12.75797,59.71394 -7.22126,111.30675 26.81167,155.40286 -4.9539,-9.25485 -17.6617,-27.50372 -20.92807,-37.57143 -42.46995,-130.90191 87.98231,-270.48158 280.79507,-322.33482 192.81276,-51.85324 383.55953,12.22309 426.02953,143.125 11.5694,35.6595 10.9,72.60695 -0.034,108.53125 43.7048,-62.88863 57.63,-131.2989 31.681,-191.8125 C 1097.4504,325.47942 990.74491,277.4999 862.717,277.21875 z"
             style="fill:#000000;fill-opacity:1;fill-rule:evenodd;stroke:#ffffff;stroke-width:0;stroke-linecap:round;stroke-linejoin:round;stroke-miterlimit:4;stroke-opacity:1;stroke-dasharray:none" />
          <path
             transform="matrix(1,0,0,0.96638655,-54.285715,-49.188306)"
             d="m 988.57144,576.64789 c 0,93.88841 -72.91363,170 -162.85715,170 -89.94351,0 -162.85714,-76.11159 -162.85714,-170 0,-93.88841 72.91363,-170 162.85714,-170 89.94352,0 162.85715,76.11159 162.85715,170 z"
             sodipodi:ry="170"
             sodipodi:rx="162.85715"
             sodipodi:cy="576.64789"
             sodipodi:cx="825.71429"
             id="path3772"
             style="fill:#000000;fill-opacity:1;fill-rule:evenodd;stroke:#ffffff;stroke-width:0;stroke-linecap:round;stroke-linejoin:round;stroke-miterlimit:4;stroke-opacity:1;stroke-dasharray:none"
             sodipodi:type="arc" />
          <path
             sodipodi:type="arc"
             style="fill:#003380;fill-opacity:1;fill-rule:evenodd;stroke:#ffffff;stroke-width:0;stroke-linecap:round;stroke-linejoin:round;stroke-miterlimit:4;stroke-opacity:1;stroke-dasharray:none"
             id="path3774"
             sodipodi:cx="825.71429"
             sodipodi:cy="576.64789"
             sodipodi:rx="162.85715"
             sodipodi:ry="170"
             d="m 988.57144,576.64789 c 0,93.88841 -72.91363,170 -162.85715,170 -89.94351,0 -162.85714,-76.11159 -162.85714,-170 0,-93.88841 72.91363,-170 162.85714,-170 89.94352,0 162.85715,76.11159 162.85715,170 z"
             transform="matrix(0.89565217,0,0,0.86554621,31.875777,8.9610609)" />
          <path
             sodipodi:type="arc"
             style="fill:#002255;fill-opacity:1;fill-rule:evenodd;stroke:#ffffff;stroke-width:0;stroke-linecap:round;stroke-linejoin:round;stroke-miterlimit:4;stroke-opacity:1;stroke-dasharray:none;filter:url(#filter3828)"
             id="path3778"
             sodipodi:cx="825.71429"
             sodipodi:cy="576.64789"
             sodipodi:rx="162.85715"
             sodipodi:ry="170"
             d="m 988.57144,576.64789 c 0,93.88841 -72.91363,170 -162.85715,170 -89.94351,0 -162.85714,-76.11159 -162.85714,-170 0,-93.88841 72.91363,-170 162.85714,-170 89.94352,0 162.85715,76.11159 162.85715,170 z"
             transform="matrix(0.39130434,0,0,0.37815125,448.32299,290.01633)" />
          <path
             inkscape:transform-center-y="-25.109232"
             sodipodi:type="arc"
             style="fill:#d7f4ee;fill-opacity:1;fill-rule:evenodd;stroke:#000000;stroke-width:17.62571335;stroke-linecap:round;stroke-linejoin:round;stroke-miterlimit:4;stroke-opacity:1;stroke-dasharray:none;filter:url(#filter3852)"
             id="path3780"
             sodipodi:cx="825.71429"
             sodipodi:cy="576.64789"
             sodipodi:rx="162.85715"
             sodipodi:ry="170"
             d="m 988.57144,576.64789 c 0,93.88841 -72.91363,170 -162.85715,170 -89.94351,0 -162.85714,-76.11159 -162.85714,-170 0,-93.88841 72.91363,-170 162.85714,-170 89.94352,0 162.85715,76.11159 162.85715,170 z"
             transform="matrix(0.18462631,-0.25460186,0.22978692,0.07807958,562.18813,616.13758)" />
          <path
             sodipodi:nodetypes="cacacac"
             inkscape:connector-curvature="0"
             inkscape:original-d="m 742.85714,523.79075 c 0,0 -22.41355,26.06587 -32,40.28572 -9.72675,14.42795 -25.71429,45.42857 -25.71429,45.42857 0,0 -16.37746,-16.17733 -23.14285,-25.42857 -7.85872,-10.74631 -20,-34.57143 -20,-34.57143 0,0 39.27339,-21.34151 60.85714,-25.71429 13.06784,-2.64749 40,0 40,0 z"
             inkscape:path-effect="#path-effect3784"
             id="path3782"
             d="m 742.85714,523.79075 c -11.68641,12.57466 -22.39584,26.05707 -32,40.28572 -9.745,14.43731 -18.35181,29.64267 -25.71429,45.42857 -8.52761,-7.68538 -16.29226,-16.21691 -23.14285,-25.42857 -7.96225,-10.70646 -14.68773,-22.33192 -20,-34.57143 17.72279,-13.45674 38.85482,-22.38577 60.85714,-25.71429 13.23299,-2.00189 26.76701,-2.00189 40,0"
             style="fill:#d7f4ee;stroke:#000000;stroke-width:4;stroke-linecap:butt;stroke-linejoin:miter;stroke-miterlimit:4;stroke-opacity:1;stroke-dasharray:none;filter:url(#filter3856)" />
          <path
             transform="matrix(0.30434782,0,0,0.29411764,520.12423,338.47414)"
             d="m 988.57144,576.64789 c 0,93.88841 -72.91363,170 -162.85715,170 -89.94351,0 -162.85714,-76.11159 -162.85714,-170 0,-93.88841 72.91363,-170 162.85714,-170 89.94352,0 162.85715,76.11159 162.85715,170 z"
             sodipodi:ry="170"
             sodipodi:rx="162.85715"
             sodipodi:cy="576.64789"
             sodipodi:cx="825.71429"
             id="path3776"
             style="fill:#000000;fill-opacity:1;fill-rule:evenodd;stroke:#ffffff;stroke-width:0;stroke-linecap:round;stroke-linejoin:round;stroke-miterlimit:4;stroke-opacity:1;stroke-dasharray:none"
             sodipodi:type="arc" />
          <path
             sodipodi:type="arc"
             style="fill:#000000;fill-opacity:1;fill-rule:evenodd;stroke:#ffffff;stroke-width:0;stroke-linecap:round;stroke-linejoin:round;stroke-miterlimit:4;stroke-opacity:1;stroke-dasharray:none"
             id="path3786"
             sodipodi:cx="825.71429"
             sodipodi:cy="576.64789"
             sodipodi:rx="162.85715"
             sodipodi:ry="170"
             d="m 988.57144,576.64789 c 0,93.88841 -72.91363,170 -162.85715,170 -89.94351,0 -162.85714,-76.11159 -162.85714,-170 0,-93.88841 72.91363,-170 162.85714,-170 89.94352,0 162.85715,76.11159 162.85715,170 z"
             transform="matrix(0.30434782,0,0,0.29411764,520.12423,338.47414)" />
          <path
             sodipodi:nodetypes="caaac"
             inkscape:connector-curvature="0"
             inkscape:original-d="m 727.42857,573.21933 c 0,0 22.29079,10.31217 34.28572,11.42857 13.97422,1.30062 28.92675,0.0693 41.71428,-5.71429 11.9347,-5.39783 22.03849,-15.10034 29.71429,-25.71428 7.25525,-10.03242 14.28571,-34.28572 14.28571,-34.28572"
             inkscape:path-effect="#path-effect3790"
             id="path3788"
             d="m 727.42857,573.21933 c 10.53984,5.99104 22.25923,9.8975 34.28572,11.42857 14.10605,1.79581 28.80717,0.2533 41.71428,-5.71429 12.03109,-5.56257 22.17045,-14.81567 29.71429,-25.71428 7.0989,-10.25581 12.00212,-22.02353 14.28571,-34.28572"
             style="opacity:0.22222224;fill:none;stroke:#dbe3e2;stroke-width:10;stroke-linecap:butt;stroke-linejoin:miter;stroke-miterlimit:4;stroke-opacity:1;stroke-dasharray:none;filter:url(#filter3804)" />
        </g>
        <path
           style="fill:#000000;stroke:#000000;stroke-width:0.83429545px;stroke-linecap:butt;stroke-linejoin:miter;stroke-opacity:1"
           d="m 355.39933,609.5257 c 4.40423,-6.39097 7.73355,-13.52078 9.80631,-21.00045 1.99383,-7.19483 2.82503,-14.71049 2.45159,-22.16713 2.28936,5.9483 3.53962,12.2949 3.67736,18.66706 0.0931,4.30613 -0.31923,8.62296 -1.22578,12.83361 l -14.70948,11.66691"
           id="path3891"
           inkscape:path-effect="#path-effect3893"
           inkscape:original-d="m 355.39933,609.5257 c 0,0 7.72517,-13.60059 9.80631,-21.00045 2.01853,-7.17718 2.45159,-22.16713 2.45159,-22.16713 0,0 3.36258,12.34337 3.67736,18.66706 0.21359,4.2907 -1.22578,12.83361 -1.22578,12.83361 z"
           inkscape:connector-curvature="0"
           sodipodi:nodetypes="cacacc" />
        <path
           sodipodi:nodetypes="cacacc"
           inkscape:connector-curvature="0"
           inkscape:original-d="m 388.25953,587.66899 c 0,0 11.29911,-10.81593 15.41379,-17.30888 3.99089,-6.29756 8.70202,-20.53453 8.70202,-20.53453 0,0 -0.31619,12.78928 -1.82703,18.9379 -1.02513,4.17191 -4.85257,11.9439 -4.85257,11.9439 z"
           inkscape:path-effect="#path-effect3897"
           id="path3895"
           d="m 388.25953,587.66899 c 6.05116,-4.86058 11.28425,-10.73707 15.41379,-17.30888 3.97228,-6.32155 6.92266,-13.28368 8.70202,-20.53453 0.48849,6.3549 -0.13268,12.79359 -1.82703,18.9379 -1.14499,4.15215 -2.77725,8.16972 -4.85257,11.9439 l -17.43621,6.96161"
           style="fill:#000000;stroke:#000000;stroke-width:0.83429545px;stroke-linecap:butt;stroke-linejoin:miter;stroke-opacity:1" />
        <path
           style="fill:#000000;stroke:#000000;stroke-width:0.98541939px;stroke-linecap:butt;stroke-linejoin:miter;stroke-opacity:1"
           d="m 426.25807,573.07976 c 8.139,-4.41346 15.50965,-10.23933 21.68352,-17.13898 5.73771,-6.41222 10.44089,-13.74815 13.87283,-21.63863 -0.40804,7.1705 -2.15693,14.26247 -5.12946,20.80056 -2.05248,4.51444 -4.68439,8.76505 -7.81074,12.61456 l -22.61615,5.36249"
           id="path3899"
           inkscape:path-effect="#path-effect3901"
           inkscape:original-d="m 426.25807,573.07976 c 0,0 15.61137,-10.48261 21.68352,-17.13898 5.88946,-6.45604 13.87283,-21.63863 13.87283,-21.63863 0,0 -2.32933,14.1722 -5.12946,20.80056 -1.89993,4.49743 -7.81074,12.61456 -7.81074,12.61456 z"
           inkscape:connector-curvature="0"
           sodipodi:nodetypes="cacacc" />
        <path
           sodipodi:nodetypes="cacacc"
           inkscape:connector-curvature="0"
           inkscape:original-d="m 472.82864,563.59514 c 0,0 17.32795,-9.58127 24.38856,-16.18434 6.84816,-6.40434 16.93096,-22.25817 16.93096,-22.25817 0,0 -4.15359,15.49105 -7.85216,22.50506 -2.50953,4.7591 -9.5862,13.01311 -9.5862,13.01311 z"
           inkscape:path-effect="#path-effect3905"
           id="path3903"
           d="m 472.82864,563.59514 c 8.97336,-3.95053 17.26197,-9.45088 24.38856,-16.18434 6.8061,-6.43065 12.55047,-13.98244 16.93096,-22.25817 -1.25041,7.88906 -3.92351,15.55045 -7.85216,22.50506 -2.65632,4.7023 -5.88278,9.08217 -9.5862,13.01311 l -23.88116,2.92434"
           style="fill:#000000;stroke:#000000;stroke-width:1.06204665px;stroke-linecap:butt;stroke-linejoin:miter;stroke-opacity:1" />
        <path
           style="fill:#000000;stroke:#000000;stroke-width:1.06204665px;stroke-linecap:butt;stroke-linejoin:miter;stroke-opacity:1"
           d="m 511.69114,563.06232 c 9.47348,-2.52608 18.50825,-6.68874 26.5841,-12.24828 7.71267,-5.30952 14.54831,-11.8899 20.14738,-19.39501 -2.44673,7.60357 -6.26435,14.76375 -11.21411,21.03278 -3.34674,4.23874 -7.20736,8.07136 -11.47036,11.38714 l -24.04701,-0.77663"
           id="path3907"
           inkscape:path-effect="#path-effect3909"
           inkscape:original-d="m 511.69114,563.06232 c 0,0 18.59347,-6.80745 26.5841,-12.24828 7.75019,-5.27707 20.14738,-19.39501 20.14738,-19.39501 0,0 -6.48258,14.66973 -11.21411,21.03278 -3.21041,4.31741 -11.47036,11.38714 -11.47036,11.38714 z"
           inkscape:connector-curvature="0"
           sodipodi:nodetypes="cacacc" />
        <path
           sodipodi:nodetypes="cacacc"
           inkscape:connector-curvature="0"
           inkscape:original-d="m 556.1802,573.78992 c 0,0 19.75792,1.29749 29.26665,-0.44514 9.2226,-1.69015 26.27185,-9.58506 26.27185,-9.58506 0,0 -11.86362,10.79256 -18.76506,14.69717 -4.68271,2.64933 -15.09679,5.77261 -15.09679,5.77261 z"
           inkscape:path-effect="#path-effect3913"
           id="path3911"
           d="m 556.1802,573.78992 c 9.68549,1.52285 19.63195,1.37157 29.26665,-0.44514 9.20142,-1.73501 18.11498,-4.98704 26.27185,-9.58506 -5.31391,5.96349 -11.7021,10.96684 -18.76506,14.69717 -4.77556,2.52223 -9.85674,4.46514 -15.09679,5.77261 L 556.1802,573.78992"
           style="fill:#000000;stroke:#000000;stroke-width:1.06204665px;stroke-linecap:butt;stroke-linejoin:miter;stroke-opacity:1" />
        <path
           style="fill:#000000;stroke:#000000;stroke-width:1.06204665px;stroke-linecap:butt;stroke-linejoin:miter;stroke-opacity:1"
           d="m 588.73781,594.22079 c 7.59715,6.19768 16.26361,11.08105 25.50036,14.36894 8.82137,3.14003 18.15887,4.82477 27.52138,4.96562 -7.59554,2.47157 -15.63485,3.57239 -23.61521,3.23361 -5.39584,-0.22906 -10.7636,-1.11251 -15.94824,-2.62484 l -13.45829,-19.94333"
           id="path3915"
           inkscape:path-effect="#path-effect3917"
           inkscape:original-d="m 588.73781,594.22079 c 0,0 16.40974,11.08058 25.50036,14.36894 8.81705,3.18945 27.52138,4.96562 27.52138,4.96562 0,0 -15.6865,3.34045 -23.61521,3.23361 -5.37973,-0.0725 -15.94824,-2.62484 -15.94824,-2.62484 z"
           inkscape:connector-curvature="0"
           sodipodi:nodetypes="cacacc" />
        <path
           style="fill:#000000;stroke:#000000;stroke-width:0.79308915px;stroke-linecap:butt;stroke-linejoin:miter;stroke-opacity:1"
           d="m 335.31119,623.88006 c 6.80513,-4.22773 11.87595,-11.16193 13.84192,-18.92842 1.66855,-6.59157 1.11428,-13.72525 -1.55242,-19.97997 2.29171,5.30298 3.551,11.04985 3.68685,16.82524 0.0914,3.88725 -0.32278,7.78611 -1.22894,11.56738 l -14.74741,10.51577"
           id="path3923"
           inkscape:path-effect="#path-effect3931"
           inkscape:original-d="m 335.31119,623.88006 c 0,0 11.71581,-11.62348 13.84192,-18.92842 1.87981,-6.45878 -1.55242,-19.97997 -1.55242,-19.97997 0,0 3.37126,11.12549 3.68685,16.82524 0.21414,3.86735 -1.22894,11.56738 -1.22894,11.56738 z"
           inkscape:connector-curvature="0"
           sodipodi:nodetypes="cacacc" />
        <path
           sodipodi:nodetypes="cacacc"
           inkscape:connector-curvature="0"
           inkscape:original-d="m 370.97229,598.83464 c 0,0 13.05217,-11.51082 16.06424,-19.32804 2.66317,-6.91171 0.93573,-22.20143 0.93573,-22.20143 0,0 1.9637,12.64158 1.57062,18.96089 -0.2667,4.28772 -2.6507,12.61657 -2.6507,12.61657 z"
           inkscape:path-effect="#path-effect3929"
           id="path3927"
           d="m 370.97229,598.83464 c 7.37066,-4.32791 13.15727,-11.29019 16.06424,-19.32804 2.55861,-7.07461 2.88997,-14.93661 0.93573,-22.20143 1.61105,6.16668 2.14505,12.61318 1.57062,18.96089 -0.38818,4.2896 -1.2798,8.53343 -2.6507,12.61657 l -15.91989,9.95201"
           style="fill:#000000;stroke:#000000;stroke-width:0.83429545px;stroke-linecap:butt;stroke-linejoin:miter;stroke-opacity:1" />
        <path
           style="fill:#000000;stroke:#000000;stroke-width:0.87980926px;stroke-linecap:butt;stroke-linejoin:miter;stroke-opacity:1"
           d="m 411.02907,578.51081 c 8.17369,-3.5404 15.14972,-9.78342 19.57212,-17.51556 4.13542,-7.23037 6.02695,-15.72364 5.35075,-24.02561 0.36472,7.07589 -0.39852,14.20874 -2.25215,21.04725 -1.23517,4.55685 -2.95212,8.98295 -5.113,13.1807 l -17.55772,7.31322"
           id="path3933"
           inkscape:path-effect="#path-effect3935"
           inkscape:original-d="m 411.02907,578.51081 c 0,0 15.06456,-9.65424 19.57212,-17.51556 3.98542,-6.95071 5.35075,-24.02561 5.35075,-24.02561 0,0 -0.60519,14.23698 -2.25215,21.04725 -1.11748,4.62084 -5.113,13.1807 -5.113,13.1807 z"
           inkscape:connector-curvature="0"
           sodipodi:nodetypes="cacacc" />
        <path
           sodipodi:nodetypes="cacacc"
           inkscape:connector-curvature="0"
           inkscape:original-d="m 451.25116,567.63001 c 0,0 16.43414,-7.0756 22.16025,-14.09914 5.06282,-6.20998 9.18703,-22.83548 9.18703,-22.83548 0,0 -2.91263,13.949 -5.64528,20.40073 -1.85414,4.37757 -7.18863,12.17363 -7.18863,12.17363 z"
           inkscape:path-effect="#path-effect3939"
           id="path3937"
           d="m 451.25116,567.63001 c 8.64067,-2.1639 16.53918,-7.18921 22.16025,-14.09914 5.2563,-6.46152 8.504,-14.53407 9.18703,-22.83548 -0.79095,7.04099 -2.70412,13.95474 -5.64528,20.40073 -1.95985,4.29529 -4.3738,8.38321 -7.18863,12.17363 l -18.51337,4.36026"
           style="fill:#000000;stroke:#000000;stroke-width:0.87980926px;stroke-linecap:butt;stroke-linejoin:miter;stroke-opacity:1" />
        <path
           style="fill:#000000;stroke:#000000;stroke-width:0.87980926px;stroke-linecap:butt;stroke-linejoin:miter;stroke-opacity:1"
           d="m 451.25116,567.63001 c 8.64067,-2.1639 16.53918,-7.18921 22.16025,-14.09914 5.2563,-6.46152 8.504,-14.53407 9.18703,-22.83548 -0.79095,7.04099 -2.70412,13.95474 -5.64528,20.40073 -1.95985,4.29529 -4.3738,8.38321 -7.18863,12.17363 l -18.51337,4.36026"
           id="path3941"
           inkscape:path-effect="#path-effect3939"
           inkscape:original-d="m 451.25116,567.63001 c 0,0 16.43414,-7.0756 22.16025,-14.09914 5.06282,-6.20998 9.18703,-22.83548 9.18703,-22.83548 0,0 -2.91263,13.949 -5.64528,20.40073 -1.85414,4.37757 -7.18863,12.17363 -7.18863,12.17363 z"
           inkscape:connector-curvature="0"
           sodipodi:nodetypes="cacacc" />
        <path
           sodipodi:nodetypes="cacacc"
           inkscape:connector-curvature="0"
           inkscape:original-d="m 495.33506,560.90469 c 0,0 17.77514,-2.04674 25.28029,-7.12525 6.63578,-4.49025 15.37011,-19.22551 15.37011,-19.22551 0,0 -6.80374,12.52067 -11.27751,17.91303 -3.0355,3.65878 -10.38792,9.58983 -10.38792,9.58983 z"
           inkscape:path-effect="#path-effect3945"
           id="path3943"
           d="m 495.33506,560.90469 c 8.89786,0.41431 17.90843,-2.12532 25.28029,-7.12525 6.89347,-4.67547 12.32694,-11.47186 15.37011,-19.22551 -2.78379,6.5155 -6.60571,12.58617 -11.27751,17.91303 -3.11306,3.54956 -6.60134,6.76984 -10.38792,9.58983 l -18.98497,-1.1521"
           style="fill:#000000;stroke:#000000;stroke-width:0.87980926px;stroke-linecap:butt;stroke-linejoin:miter;stroke-opacity:1" />
        <path
           style="fill:#000000;stroke:#000000;stroke-width:1.20842159px;stroke-linecap:butt;stroke-linejoin:miter;stroke-opacity:1"
           d="m 527.03408,566.12747 c 12.78826,0.87794 25.82954,-2.4187 36.66441,-9.26824 9.56256,-6.04521 17.38074,-14.81605 22.29152,-25.00778 -4.17505,8.56593 -9.71852,16.46312 -16.35596,23.30056 -4.55027,4.68738 -9.61176,8.87817 -15.06576,12.47406 l -27.53421,-1.4986"
           id="path3947"
           inkscape:path-effect="#path-effect3949"
           inkscape:original-d="m 527.03408,566.12747 c 0,0 25.77957,-2.66232 36.66441,-9.26824 9.62398,-5.84074 22.29152,-25.00778 22.29152,-25.00778 0,0 -9.86757,16.28639 -16.35596,23.30056 -4.40243,4.75919 -15.06576,12.47406 -15.06576,12.47406 z"
           inkscape:connector-curvature="0"
           sodipodi:nodetypes="cacacc" />
        <path
           sodipodi:nodetypes="cacacc"
           inkscape:connector-curvature="0"
           inkscape:original-d="m 570.78445,573.01495 c 0,0 21.26818,14.81009 33.82632,16.91034 11.10347,1.85694 33.21116,-4.39541 33.21116,-4.39541 0,0 -18.10617,5.89761 -27.60007,6.97634 -6.44171,0.73193 -19.55588,-0.38359 -19.55588,-0.38359 z"
           inkscape:path-effect="#path-effect3953"
           id="path3951"
           d="m 570.78445,573.01495 c 9.11523,9.01238 21.14702,15.02728 33.82632,16.91034 11.1904,1.66194 22.83836,0.12036 33.21116,-4.39541 -8.7542,3.76432 -18.10861,6.12879 -27.60007,6.97634 -6.50684,0.58104 -13.07683,0.45217 -19.55588,-0.38359 l -19.88153,-19.10768"
           style="fill:#000000;stroke:#000000;stroke-width:1.20842159px;stroke-linecap:butt;stroke-linejoin:miter;stroke-opacity:1" />
      </g>
      <g
         transform="matrix(-1,0,0,1,530.94212,38.070514)"
         id="g3982">
        <g
           transform="matrix(0.41177236,0,0,0.41177236,142.1485,445.31822)"
           id="g3984">
          <path
             style="fill:#000000;fill-opacity:1;fill-rule:evenodd;stroke:#ffffff;stroke-width:0;stroke-linecap:round;stroke-linejoin:round;stroke-miterlimit:4;stroke-opacity:1;stroke-dasharray:none"
             d="m 862.71694,277.21875 c -62.52526,-0.13731 -130.14275,11.11761 -197.15705,34.9375 -144.06952,51.20877 -246.89265,146.86467 -275.83229,243.40964 -12.75797,59.71394 -7.22126,111.30675 26.81167,155.40286 -4.9539,-9.25485 -17.6617,-27.50372 -20.92807,-37.57143 -42.46995,-130.90191 87.98231,-270.48158 280.79507,-322.33482 192.81276,-51.85324 383.55953,12.22309 426.02953,143.125 11.5694,35.6595 10.9,72.60695 -0.034,108.53125 43.7048,-62.88863 57.63,-131.2989 31.681,-191.8125 C 1097.4504,325.47942 990.74491,277.4999 862.717,277.21875 z"
             id="path3986"
             inkscape:connector-curvature="0"
             sodipodi:nodetypes="csccssscscc" />
          <path
             sodipodi:type="arc"
             style="fill:#000000;fill-opacity:1;fill-rule:evenodd;stroke:#ffffff;stroke-width:0;stroke-linecap:round;stroke-linejoin:round;stroke-miterlimit:4;stroke-opacity:1;stroke-dasharray:none"
             id="path3988"
             sodipodi:cx="825.71429"
             sodipodi:cy="576.64789"
             sodipodi:rx="162.85715"
             sodipodi:ry="170"
             d="m 988.57144,576.64789 c 0,93.88841 -72.91363,170 -162.85715,170 -89.94351,0 -162.85714,-76.11159 -162.85714,-170 0,-93.88841 72.91363,-170 162.85714,-170 89.94352,0 162.85715,76.11159 162.85715,170 z"
             transform="matrix(1,0,0,0.96638655,-54.285715,-49.188306)" />
          <path
             transform="matrix(0.89565217,0,0,0.86554621,31.875777,8.9610609)"
             d="m 988.57144,576.64789 c 0,93.88841 -72.91363,170 -162.85715,170 -89.94351,0 -162.85714,-76.11159 -162.85714,-170 0,-93.88841 72.91363,-170 162.85714,-170 89.94352,0 162.85715,76.11159 162.85715,170 z"
             sodipodi:ry="170"
             sodipodi:rx="162.85715"
             sodipodi:cy="576.64789"
             sodipodi:cx="825.71429"
             id="path3990"
             style="fill:#003380;fill-opacity:1;fill-rule:evenodd;stroke:#ffffff;stroke-width:0;stroke-linecap:round;stroke-linejoin:round;stroke-miterlimit:4;stroke-opacity:1;stroke-dasharray:none"
             sodipodi:type="arc" />
          <path
             transform="matrix(0.39130434,0,0,0.37815125,448.32299,290.01633)"
             d="m 988.57144,576.64789 c 0,93.88841 -72.91363,170 -162.85715,170 -89.94351,0 -162.85714,-76.11159 -162.85714,-170 0,-93.88841 72.91363,-170 162.85714,-170 89.94352,0 162.85715,76.11159 162.85715,170 z"
             sodipodi:ry="170"
             sodipodi:rx="162.85715"
             sodipodi:cy="576.64789"
             sodipodi:cx="825.71429"
             id="path3992"
             style="fill:#002255;fill-opacity:1;fill-rule:evenodd;stroke:#ffffff;stroke-width:0;stroke-linecap:round;stroke-linejoin:round;stroke-miterlimit:4;stroke-opacity:1;stroke-dasharray:none;filter:url(#filter3828)"
             sodipodi:type="arc" />
          <path
             transform="matrix(0.18462631,-0.25460186,0.22978692,0.07807958,562.18813,616.13758)"
             d="m 988.57144,576.64789 c 0,93.88841 -72.91363,170 -162.85715,170 -89.94351,0 -162.85714,-76.11159 -162.85714,-170 0,-93.88841 72.91363,-170 162.85714,-170 89.94352,0 162.85715,76.11159 162.85715,170 z"
             sodipodi:ry="170"
             sodipodi:rx="162.85715"
             sodipodi:cy="576.64789"
             sodipodi:cx="825.71429"
             id="path3994"
             style="fill:#d7f4ee;fill-opacity:1;fill-rule:evenodd;stroke:#000000;stroke-width:17.62571335;stroke-linecap:round;stroke-linejoin:round;stroke-miterlimit:4;stroke-opacity:1;stroke-dasharray:none;filter:url(#filter3852)"
             sodipodi:type="arc"
             inkscape:transform-center-y="-25.109232" />
          <path
             style="fill:#d7f4ee;stroke:#000000;stroke-width:4;stroke-linecap:butt;stroke-linejoin:miter;stroke-miterlimit:4;stroke-opacity:1;stroke-dasharray:none;filter:url(#filter3856)"
             d="m 742.85714,523.79075 c -11.68641,12.57466 -22.39584,26.05707 -32,40.28572 -9.745,14.43731 -18.35181,29.64267 -25.71429,45.42857 -8.52761,-7.68538 -16.29226,-16.21691 -23.14285,-25.42857 -7.96225,-10.70646 -14.68773,-22.33192 -20,-34.57143 17.72279,-13.45674 38.85482,-22.38577 60.85714,-25.71429 13.23299,-2.00189 26.76701,-2.00189 40,0"
             id="path3996"
             inkscape:path-effect="#path-effect3784"
             inkscape:original-d="m 742.85714,523.79075 c 0,0 -22.41355,26.06587 -32,40.28572 -9.72675,14.42795 -25.71429,45.42857 -25.71429,45.42857 0,0 -16.37746,-16.17733 -23.14285,-25.42857 -7.85872,-10.74631 -20,-34.57143 -20,-34.57143 0,0 39.27339,-21.34151 60.85714,-25.71429 13.06784,-2.64749 40,0 40,0 z"
             inkscape:connector-curvature="0"
             sodipodi:nodetypes="cacacac" />
          <path
             sodipodi:type="arc"
             style="fill:#000000;fill-opacity:1;fill-rule:evenodd;stroke:#ffffff;stroke-width:0;stroke-linecap:round;stroke-linejoin:round;stroke-miterlimit:4;stroke-opacity:1;stroke-dasharray:none"
             id="path3998"
             sodipodi:cx="825.71429"
             sodipodi:cy="576.64789"
             sodipodi:rx="162.85715"
             sodipodi:ry="170"
             d="m 988.57144,576.64789 c 0,93.88841 -72.91363,170 -162.85715,170 -89.94351,0 -162.85714,-76.11159 -162.85714,-170 0,-93.88841 72.91363,-170 162.85714,-170 89.94352,0 162.85715,76.11159 162.85715,170 z"
             transform="matrix(0.30434782,0,0,0.29411764,520.12423,338.47414)" />
          <path
             transform="matrix(0.30434782,0,0,0.29411764,520.12423,338.47414)"
             d="m 988.57144,576.64789 c 0,93.88841 -72.91363,170 -162.85715,170 -89.94351,0 -162.85714,-76.11159 -162.85714,-170 0,-93.88841 72.91363,-170 162.85714,-170 89.94352,0 162.85715,76.11159 162.85715,170 z"
             sodipodi:ry="170"
             sodipodi:rx="162.85715"
             sodipodi:cy="576.64789"
             sodipodi:cx="825.71429"
             id="path4000"
             style="fill:#000000;fill-opacity:1;fill-rule:evenodd;stroke:#ffffff;stroke-width:0;stroke-linecap:round;stroke-linejoin:round;stroke-miterlimit:4;stroke-opacity:1;stroke-dasharray:none"
             sodipodi:type="arc" />
          <path
             style="opacity:0.22222224;fill:none;stroke:#dbe3e2;stroke-width:10;stroke-linecap:butt;stroke-linejoin:miter;stroke-miterlimit:4;stroke-opacity:1;stroke-dasharray:none;filter:url(#filter3804)"
             d="m 727.42857,573.21933 c 10.53984,5.99104 22.25923,9.8975 34.28572,11.42857 14.10605,1.79581 28.80717,0.2533 41.71428,-5.71429 12.03109,-5.56257 22.17045,-14.81567 29.71429,-25.71428 7.0989,-10.25581 12.00212,-22.02353 14.28571,-34.28572"
             id="path4002"
             inkscape:path-effect="#path-effect3790"
             inkscape:original-d="m 727.42857,573.21933 c 0,0 22.29079,10.31217 34.28572,11.42857 13.97422,1.30062 28.92675,0.0693 41.71428,-5.71429 11.9347,-5.39783 22.03849,-15.10034 29.71429,-25.71428 7.25525,-10.03242 14.28571,-34.28572 14.28571,-34.28572"
             inkscape:connector-curvature="0"
             sodipodi:nodetypes="caaac" />
        </g>
        <path
           sodipodi:nodetypes="cacacc"
           inkscape:connector-curvature="0"
           inkscape:original-d="m 355.39933,609.5257 c 0,0 7.72517,-13.60059 9.80631,-21.00045 2.01853,-7.17718 2.45159,-22.16713 2.45159,-22.16713 0,0 3.36258,12.34337 3.67736,18.66706 0.21359,4.2907 -1.22578,12.83361 -1.22578,12.83361 z"
           inkscape:path-effect="#path-effect3893"
           id="path4004"
           d="m 355.39933,609.5257 c 4.40423,-6.39097 7.73355,-13.52078 9.80631,-21.00045 1.99383,-7.19483 2.82503,-14.71049 2.45159,-22.16713 2.28936,5.9483 3.53962,12.2949 3.67736,18.66706 0.0931,4.30613 -0.31923,8.62296 -1.22578,12.83361 l -14.70948,11.66691"
           style="fill:#000000;stroke:#000000;stroke-width:0.83429545px;stroke-linecap:butt;stroke-linejoin:miter;stroke-opacity:1" />
        <path
           style="fill:#000000;stroke:#000000;stroke-width:0.83429545px;stroke-linecap:butt;stroke-linejoin:miter;stroke-opacity:1"
           d="m 388.25953,587.66899 c 6.05116,-4.86058 11.28425,-10.73707 15.41379,-17.30888 3.97228,-6.32155 6.92266,-13.28368 8.70202,-20.53453 0.48849,6.3549 -0.13268,12.79359 -1.82703,18.9379 -1.14499,4.15215 -2.77725,8.16972 -4.85257,11.9439 l -17.43621,6.96161"
           id="path4006"
           inkscape:path-effect="#path-effect3897"
           inkscape:original-d="m 388.25953,587.66899 c 0,0 11.29911,-10.81593 15.41379,-17.30888 3.99089,-6.29756 8.70202,-20.53453 8.70202,-20.53453 0,0 -0.31619,12.78928 -1.82703,18.9379 -1.02513,4.17191 -4.85257,11.9439 -4.85257,11.9439 z"
           inkscape:connector-curvature="0"
           sodipodi:nodetypes="cacacc" />
        <path
           sodipodi:nodetypes="cacacc"
           inkscape:connector-curvature="0"
           inkscape:original-d="m 426.25807,573.07976 c 0,0 15.61137,-10.48261 21.68352,-17.13898 5.88946,-6.45604 13.87283,-21.63863 13.87283,-21.63863 0,0 -2.32933,14.1722 -5.12946,20.80056 -1.89993,4.49743 -7.81074,12.61456 -7.81074,12.61456 z"
           inkscape:path-effect="#path-effect3901"
           id="path4008"
           d="m 426.25807,573.07976 c 8.139,-4.41346 15.50965,-10.23933 21.68352,-17.13898 5.73771,-6.41222 10.44089,-13.74815 13.87283,-21.63863 -0.40804,7.1705 -2.15693,14.26247 -5.12946,20.80056 -2.05248,4.51444 -4.68439,8.76505 -7.81074,12.61456 l -22.61615,5.36249"
           style="fill:#000000;stroke:#000000;stroke-width:0.98541939px;stroke-linecap:butt;stroke-linejoin:miter;stroke-opacity:1" />
        <path
           style="fill:#000000;stroke:#000000;stroke-width:1.06204665px;stroke-linecap:butt;stroke-linejoin:miter;stroke-opacity:1"
           d="m 472.82864,563.59514 c 8.97336,-3.95053 17.26197,-9.45088 24.38856,-16.18434 6.8061,-6.43065 12.55047,-13.98244 16.93096,-22.25817 -1.25041,7.88906 -3.92351,15.55045 -7.85216,22.50506 -2.65632,4.7023 -5.88278,9.08217 -9.5862,13.01311 l -23.88116,2.92434"
           id="path4010"
           inkscape:path-effect="#path-effect3905"
           inkscape:original-d="m 472.82864,563.59514 c 0,0 17.32795,-9.58127 24.38856,-16.18434 6.84816,-6.40434 16.93096,-22.25817 16.93096,-22.25817 0,0 -4.15359,15.49105 -7.85216,22.50506 -2.50953,4.7591 -9.5862,13.01311 -9.5862,13.01311 z"
           inkscape:connector-curvature="0"
           sodipodi:nodetypes="cacacc" />
        <path
           sodipodi:nodetypes="cacacc"
           inkscape:connector-curvature="0"
           inkscape:original-d="m 511.69114,563.06232 c 0,0 18.59347,-6.80745 26.5841,-12.24828 7.75019,-5.27707 20.14738,-19.39501 20.14738,-19.39501 0,0 -6.48258,14.66973 -11.21411,21.03278 -3.21041,4.31741 -11.47036,11.38714 -11.47036,11.38714 z"
           inkscape:path-effect="#path-effect3909"
           id="path4012"
           d="m 511.69114,563.06232 c 9.47348,-2.52608 18.50825,-6.68874 26.5841,-12.24828 7.71267,-5.30952 14.54831,-11.8899 20.14738,-19.39501 -2.44673,7.60357 -6.26435,14.76375 -11.21411,21.03278 -3.34674,4.23874 -7.20736,8.07136 -11.47036,11.38714 l -24.04701,-0.77663"
           style="fill:#000000;stroke:#000000;stroke-width:1.06204665px;stroke-linecap:butt;stroke-linejoin:miter;stroke-opacity:1" />
        <path
           style="fill:#000000;stroke:#000000;stroke-width:1.06204665px;stroke-linecap:butt;stroke-linejoin:miter;stroke-opacity:1"
           d="m 556.1802,573.78992 c 9.68549,1.52285 19.63195,1.37157 29.26665,-0.44514 9.20142,-1.73501 18.11498,-4.98704 26.27185,-9.58506 -5.31391,5.96349 -11.7021,10.96684 -18.76506,14.69717 -4.77556,2.52223 -9.85674,4.46514 -15.09679,5.77261 L 556.1802,573.78992"
           id="path4014"
           inkscape:path-effect="#path-effect3913"
           inkscape:original-d="m 556.1802,573.78992 c 0,0 19.75792,1.29749 29.26665,-0.44514 9.2226,-1.69015 26.27185,-9.58506 26.27185,-9.58506 0,0 -11.86362,10.79256 -18.76506,14.69717 -4.68271,2.64933 -15.09679,5.77261 -15.09679,5.77261 z"
           inkscape:connector-curvature="0"
           sodipodi:nodetypes="cacacc" />
        <path
           sodipodi:nodetypes="cacacc"
           inkscape:connector-curvature="0"
           inkscape:original-d="m 588.73781,594.22079 c 0,0 16.40974,11.08058 25.50036,14.36894 8.81705,3.18945 27.52138,4.96562 27.52138,4.96562 0,0 -15.6865,3.34045 -23.61521,3.23361 -5.37973,-0.0725 -15.94824,-2.62484 -15.94824,-2.62484 z"
           inkscape:path-effect="#path-effect3917"
           id="path4016"
           d="m 588.73781,594.22079 c 7.59715,6.19768 16.26361,11.08105 25.50036,14.36894 8.82137,3.14003 18.15887,4.82477 27.52138,4.96562 -7.59554,2.47157 -15.63485,3.57239 -23.61521,3.23361 -5.39584,-0.22906 -10.7636,-1.11251 -15.94824,-2.62484 l -13.45829,-19.94333"
           style="fill:#000000;stroke:#000000;stroke-width:1.06204665px;stroke-linecap:butt;stroke-linejoin:miter;stroke-opacity:1" />
        <path
           sodipodi:nodetypes="cacacc"
           inkscape:connector-curvature="0"
           inkscape:original-d="m 335.31119,623.88006 c 0,0 11.71581,-11.62348 13.84192,-18.92842 1.87981,-6.45878 -1.55242,-19.97997 -1.55242,-19.97997 0,0 3.37126,11.12549 3.68685,16.82524 0.21414,3.86735 -1.22894,11.56738 -1.22894,11.56738 z"
           inkscape:path-effect="#path-effect3931"
           id="path4018"
           d="m 335.31119,623.88006 c 6.80513,-4.22773 11.87595,-11.16193 13.84192,-18.92842 1.66855,-6.59157 1.11428,-13.72525 -1.55242,-19.97997 2.29171,5.30298 3.551,11.04985 3.68685,16.82524 0.0914,3.88725 -0.32278,7.78611 -1.22894,11.56738 l -14.74741,10.51577"
           style="fill:#000000;stroke:#000000;stroke-width:0.79308915px;stroke-linecap:butt;stroke-linejoin:miter;stroke-opacity:1" />
        <path
           style="fill:#000000;stroke:#000000;stroke-width:0.83429545px;stroke-linecap:butt;stroke-linejoin:miter;stroke-opacity:1"
           d="m 370.97229,598.83464 c 7.37066,-4.32791 13.15727,-11.29019 16.06424,-19.32804 2.55861,-7.07461 2.88997,-14.93661 0.93573,-22.20143 1.61105,6.16668 2.14505,12.61318 1.57062,18.96089 -0.38818,4.2896 -1.2798,8.53343 -2.6507,12.61657 l -15.91989,9.95201"
           id="path4020"
           inkscape:path-effect="#path-effect3929"
           inkscape:original-d="m 370.97229,598.83464 c 0,0 13.05217,-11.51082 16.06424,-19.32804 2.66317,-6.91171 0.93573,-22.20143 0.93573,-22.20143 0,0 1.9637,12.64158 1.57062,18.96089 -0.2667,4.28772 -2.6507,12.61657 -2.6507,12.61657 z"
           inkscape:connector-curvature="0"
           sodipodi:nodetypes="cacacc" />
        <path
           sodipodi:nodetypes="cacacc"
           inkscape:connector-curvature="0"
           inkscape:original-d="m 411.02907,578.51081 c 0,0 15.06456,-9.65424 19.57212,-17.51556 3.98542,-6.95071 5.35075,-24.02561 5.35075,-24.02561 0,0 -0.60519,14.23698 -2.25215,21.04725 -1.11748,4.62084 -5.113,13.1807 -5.113,13.1807 z"
           inkscape:path-effect="#path-effect3935"
           id="path4022"
           d="m 411.02907,578.51081 c 8.17369,-3.5404 15.14972,-9.78342 19.57212,-17.51556 4.13542,-7.23037 6.02695,-15.72364 5.35075,-24.02561 0.36472,7.07589 -0.39852,14.20874 -2.25215,21.04725 -1.23517,4.55685 -2.95212,8.98295 -5.113,13.1807 l -17.55772,7.31322"
           style="fill:#000000;stroke:#000000;stroke-width:0.87980926px;stroke-linecap:butt;stroke-linejoin:miter;stroke-opacity:1" />
        <path
           style="fill:#000000;stroke:#000000;stroke-width:0.87980926px;stroke-linecap:butt;stroke-linejoin:miter;stroke-opacity:1"
           d="m 451.25116,567.63001 c 8.64067,-2.1639 16.53918,-7.18921 22.16025,-14.09914 5.2563,-6.46152 8.504,-14.53407 9.18703,-22.83548 -0.79095,7.04099 -2.70412,13.95474 -5.64528,20.40073 -1.95985,4.29529 -4.3738,8.38321 -7.18863,12.17363 l -18.51337,4.36026"
           id="path4024"
           inkscape:path-effect="#path-effect3939"
           inkscape:original-d="m 451.25116,567.63001 c 0,0 16.43414,-7.0756 22.16025,-14.09914 5.06282,-6.20998 9.18703,-22.83548 9.18703,-22.83548 0,0 -2.91263,13.949 -5.64528,20.40073 -1.85414,4.37757 -7.18863,12.17363 -7.18863,12.17363 z"
           inkscape:connector-curvature="0"
           sodipodi:nodetypes="cacacc" />
        <path
           sodipodi:nodetypes="cacacc"
           inkscape:connector-curvature="0"
           inkscape:original-d="m 451.25116,567.63001 c 0,0 16.43414,-7.0756 22.16025,-14.09914 5.06282,-6.20998 9.18703,-22.83548 9.18703,-22.83548 0,0 -2.91263,13.949 -5.64528,20.40073 -1.85414,4.37757 -7.18863,12.17363 -7.18863,12.17363 z"
           inkscape:path-effect="#path-effect3939"
           id="path4026"
           d="m 451.25116,567.63001 c 8.64067,-2.1639 16.53918,-7.18921 22.16025,-14.09914 5.2563,-6.46152 8.504,-14.53407 9.18703,-22.83548 -0.79095,7.04099 -2.70412,13.95474 -5.64528,20.40073 -1.95985,4.29529 -4.3738,8.38321 -7.18863,12.17363 l -18.51337,4.36026"
           style="fill:#000000;stroke:#000000;stroke-width:0.87980926px;stroke-linecap:butt;stroke-linejoin:miter;stroke-opacity:1" />
        <path
           style="fill:#000000;stroke:#000000;stroke-width:0.87980926px;stroke-linecap:butt;stroke-linejoin:miter;stroke-opacity:1"
           d="m 495.33506,560.90469 c 8.89786,0.41431 17.90843,-2.12532 25.28029,-7.12525 6.89347,-4.67547 12.32694,-11.47186 15.37011,-19.22551 -2.78379,6.5155 -6.60571,12.58617 -11.27751,17.91303 -3.11306,3.54956 -6.60134,6.76984 -10.38792,9.58983 l -18.98497,-1.1521"
           id="path4028"
           inkscape:path-effect="#path-effect3945"
           inkscape:original-d="m 495.33506,560.90469 c 0,0 17.77514,-2.04674 25.28029,-7.12525 6.63578,-4.49025 15.37011,-19.22551 15.37011,-19.22551 0,0 -6.80374,12.52067 -11.27751,17.91303 -3.0355,3.65878 -10.38792,9.58983 -10.38792,9.58983 z"
           inkscape:connector-curvature="0"
           sodipodi:nodetypes="cacacc" />
        <path
           sodipodi:nodetypes="cacacc"
           inkscape:connector-curvature="0"
           inkscape:original-d="m 527.03408,566.12747 c 0,0 25.77957,-2.66232 36.66441,-9.26824 9.62398,-5.84074 22.29152,-25.00778 22.29152,-25.00778 0,0 -9.86757,16.28639 -16.35596,23.30056 -4.40243,4.75919 -15.06576,12.47406 -15.06576,12.47406 z"
           inkscape:path-effect="#path-effect3949"
           id="path4030"
           d="m 527.03408,566.12747 c 12.78826,0.87794 25.82954,-2.4187 36.66441,-9.26824 9.56256,-6.04521 17.38074,-14.81605 22.29152,-25.00778 -4.17505,8.56593 -9.71852,16.46312 -16.35596,23.30056 -4.55027,4.68738 -9.61176,8.87817 -15.06576,12.47406 l -27.53421,-1.4986"
           style="fill:#000000;stroke:#000000;stroke-width:1.20842159px;stroke-linecap:butt;stroke-linejoin:miter;stroke-opacity:1" />
        <path
           style="fill:#000000;stroke:#000000;stroke-width:1.20842159px;stroke-linecap:butt;stroke-linejoin:miter;stroke-opacity:1"
           d="m 570.78445,573.01495 c 9.11523,9.01238 21.14702,15.02728 33.82632,16.91034 11.1904,1.66194 22.83836,0.12036 33.21116,-4.39541 -8.7542,3.76432 -18.10861,6.12879 -27.60007,6.97634 -6.50684,0.58104 -13.07683,0.45217 -19.55588,-0.38359 l -19.88153,-19.10768"
           id="path4032"
           inkscape:path-effect="#path-effect3953"
           inkscape:original-d="m 570.78445,573.01495 c 0,0 21.26818,14.81009 33.82632,16.91034 11.10347,1.85694 33.21116,-4.39541 33.21116,-4.39541 0,0 -18.10617,5.89761 -27.60007,6.97634 -6.44171,0.73193 -19.55588,-0.38359 -19.55588,-0.38359 z"
           inkscape:connector-curvature="0"
           sodipodi:nodetypes="cacacc" />
      </g>
    </g>
  </g>
</svg>
