<?xml version="1.0" encoding="UTF-8" standalone="no"?>
<!-- Created with Inkscape (http://www.inkscape.org/) -->

<svg
   xmlns:dc="http://purl.org/dc/elements/1.1/"
   xmlns:cc="http://creativecommons.org/ns#"
   xmlns:rdf="http://www.w3.org/1999/02/22-rdf-syntax-ns#"
   xmlns:svg="http://www.w3.org/2000/svg"
   xmlns="http://www.w3.org/2000/svg"
   xmlns:sodipodi="http://sodipodi.sourceforge.net/DTD/sodipodi-0.dtd"
   xmlns:inkscape="http://www.inkscape.org/namespaces/inkscape"
   width="1366"
   height="768"
   id="svg2"
   version="1.1"
   inkscape:version="0.48.4 r9939"
   sodipodi:docname="drawing.svg">
  <defs
     id="defs4" />
  <sodipodi:namedview
     id="base"
     pagecolor="#ffffff"
     bordercolor="#666666"
     borderopacity="1.0"
     inkscape:pageopacity="0.0"
     inkscape:pageshadow="2"
     inkscape:zoom="0.7760705"
     inkscape:cx="657.43988"
     inkscape:cy="378.66995"
     inkscape:document-units="px"
     inkscape:current-layer="layer1"
     showgrid="true"
     showborder="false"
     inkscape:showpageshadow="false"
     borderlayer="false"
     inkscape:snap-grids="true"
     inkscape:window-width="1311"
     inkscape:window-height="744"
     inkscape:window-x="55"
     inkscape:window-y="24"
     inkscape:window-maximized="1"
     fit-margin-top="0"
     fit-margin-left="0"
     fit-margin-right="0"
     fit-margin-bottom="0">
    <inkscape:grid
       type="axonomgrid"
       id="grid2985"
       units="mm"
       empspacing="5"
       visible="false"
       enabled="true"
       snapvisiblegridlinesonly="true"
       originx="52.683153mm"
       originy="-88.74139mm" />
  </sodipodi:namedview>
  <metadata
     id="metadata7">
    <rdf:RDF>
      <cc:Work
         rdf:about="">
        <dc:format>image/svg+xml</dc:format>
        <dc:type
           rdf:resource="http://purl.org/dc/dcmitype/StillImage" />
      </cc:Work>
    </rdf:RDF>
  </metadata>
  <g
     inkscape:label="Layer 1"
     inkscape:groupmode="layer"
     id="layer1"
     transform="translate(186.67258,30.0761)">
    <g
       id="g3838">
      <rect
         y="-29.576765"
         x="-186.17325"
         height="767.00134"
         width="1365.0013"
         id="rect2989"
         style="fill:#484537;fill-rule:nonzero;stroke:#000000;stroke-width:0.99866897px;stroke-linecap:butt;stroke-linejoin:miter;stroke-opacity:1" />
      <path
         inkscape:connector-curvature="0"
         id="path4407"
         d="m 509.30719,85.551148 -39.92461,107.140372 29.94346,-22.95866 -29.94346,99.4875 29.94346,-22.95865 -29.94346,99.48749 49.90577,-130.09903 -29.94347,22.95864 29.94347,-99.48749 -29.94347,22.95866 z"
         style="fill:#ffffff;stroke:#000000;stroke-width:0.74967641px;stroke-linecap:butt;stroke-linejoin:miter;stroke-opacity:1" />
      <path
         style="fill:#1c241f;fill-opacity:1;fill-rule:evenodd;stroke:#000000;stroke-width:0.88253653;stroke-opacity:1"
         d="m 484.07101,35.682334 c -17.58679,0 -32.6875,9.152409 -39.30327,22.233123 -6.4455,-4.582337 -15.27028,-7.41975 -25.0085,-7.41975 -18.26813,0 -33.32027,9.949814 -35.46025,22.781764 -2.39737,-0.367827 -4.87558,-0.548644 -7.42394,-0.548644 -19.7359,0 -35.72227,11.601561 -35.72227,25.916871 0,14.315312 15.98637,25.916872 35.72227,25.916872 10.66792,0 20.23671,-3.40167 26.78442,-8.7783 6.30038,5.26654 17.55607,8.7783 30.3945,8.7783 8.8419,0 16.93515,-1.65905 23.17435,-4.41528 5.20889,15.38204 21.64037,26.62228 41.13738,26.62228 13.27659,0 25.14894,-5.2211 33.01471,-13.40258 6.08533,7.99583 17.84383,13.40258 31.32613,13.40258 19.73588,0 35.72231,-11.60157 35.72231,-25.91688 0,-1.91109 -0.30324,-3.77149 -0.84434,-5.56481 0.53625,-0.15283 1.07455,-0.32598 1.6012,-0.49639 2.94573,9.83356 14.28248,17.1647 27.83251,17.1647 15.78874,0 28.58955,-9.93673 28.58955,-22.207 0,-12.270261 -12.80081,-22.206991 -28.58955,-22.206991 -0.29607,0 -0.57938,0.01915 -0.87331,0.02608 0.56736,-2.402753 0.87331,-4.898398 0.87331,-7.445876 0,-20.450438 -19.20103,-37.020366 -42.88414,-37.020366 -9.20127,0 -17.70362,2.506898 -24.68825,6.766603 -4.94166,-4.225905 -11.2884,-6.766603 -18.1959,-6.766603 -8.34696,0 -15.85172,3.702786 -21.07817,9.614324 -7.62858,-10.240028 -20.9525,-17.034069 -36.10075,-17.034069 z"
         id="path4409"
         inkscape:connector-curvature="0" />
      <path
         style="fill:#ffffff;stroke:#000000;stroke-width:0.49238086px;stroke-linecap:butt;stroke-linejoin:miter;stroke-opacity:1"
         d="m 599.84007,58.363098 -23.63711,78.064632 17.72783,-16.72814 -17.72783,72.48859 17.72783,-16.72814 -17.72783,72.48857 29.54639,-94.79275 -17.72784,16.72813 17.72784,-72.488582 -17.72784,16.728132 z"
         id="path4411"
         inkscape:connector-curvature="0" />
      <path
         inkscape:connector-curvature="0"
         id="path4413"
         d="m 417.15885,68.614562 -17.54311,62.194168 13.15733,-13.32732 -13.15733,57.75172 13.15733,-13.32733 -13.15733,57.75173 21.92889,-75.52149 -13.15734,13.32732 13.15734,-57.751712 -13.15734,13.327322 z"
         style="fill:#ffffff;stroke:#000000;stroke-width:0.37862128px;stroke-linecap:butt;stroke-linejoin:miter;stroke-opacity:1" />
      <g
         transform="translate(240.95748,95.352162)"
         id="g4488">
        <path
           style="fill:#ffff00;stroke:#000000;stroke-width:1px;stroke-linecap:butt;stroke-linejoin:miter;stroke-opacity:1"
           d="m 284.05069,394.5998 15.34297,62.00787 -15.34297,-79.72441 z"
           id="path4415"
           inkscape:connector-curvature="0" />
        <g
           id="g4485"
           transform="translate(0,-2.5770855)">
          <path
             style="fill:#ffff00;stroke:#000000;stroke-width:1px;stroke-linecap:butt;stroke-linejoin:miter;stroke-opacity:1"
             d="m 296.81657,411.35086 -15.34297,62.00787 15.34297,-79.72441 z"
             id="path4483"
             inkscape:connector-curvature="0" />
        </g>
      </g>
      <g
         transform="matrix(0.59305283,0,0,0.57828663,471.9454,463.97824)"
         id="g4493">
        <path
           sodipodi:type="arc"
           style="fill:#ffff00;fill-opacity:1;fill-rule:evenodd;stroke:#000000;stroke-opacity:1"
           id="path4495"
           sodipodi:cx="1036.1505"
           sodipodi:cy="483.27533"
           sodipodi:rx="115.07227"
           sodipodi:ry="146.16142"
           d="m 1151.2228,483.27533 c 0,80.72272 -51.5196,146.16142 -115.0723,146.16142 -63.55265,0 -115.07226,-65.4387 -115.07226,-146.16142 0,-80.72273 51.51961,-146.16142 115.07226,-146.16142 63.5527,0 115.0723,65.43869 115.0723,146.16142 z"
           transform="translate(-992.57219,-263.03819)" />
        <g
           id="g4497"
           transform="translate(-311.82734,-238.38041)">
          <path
             id="path4499"
             d="m 321.94497,346.11927 c -21.18422,0 -38.34375,17.82846 -38.34375,39.84375 0,22.01529 17.15953,39.875 38.34375,39.875 15.17784,0 28.31218,-9.1456 34.53125,-22.4375 5.96223,13.97239 19.40759,23.71875 35.0625,23.71875 21.18422,0 38.34375,-17.82846 38.34375,-39.84375 0,-22.01529 -17.15953,-39.875 -38.34375,-39.875 -15.17784,0 -28.28093,9.17685 -34.5,22.46875 -5.95495,-13.99042 -19.42625,-23.75 -35.09375,-23.75 z"
             style="fill:#333333;fill-opacity:1;fill-rule:evenodd;stroke:#000000;stroke-opacity:1"
             inkscape:connector-curvature="0" />
          <g
             transform="translate(-291.21066,95.352162)"
             id="g4501">
            <path
               transform="matrix(0.87506879,0,0,1.0012039,-4.9333599,-154.04588)"
               d="m 736.96264,443.41312 c 0,14.67685 -13.73858,26.5748 -30.68597,26.5748 -16.94739,0 -30.68597,-11.89795 -30.68597,-26.5748 0,-14.67686 13.73858,-26.57481 30.68597,-26.57481 16.94739,0 30.68597,11.89795 30.68597,26.57481 z"
               sodipodi:ry="26.574802"
               sodipodi:rx="30.685968"
               sodipodi:cy="443.41312"
               sodipodi:cx="706.27667"
               id="path4503"
               style="fill:#ffffff;fill-opacity:1;fill-rule:evenodd;stroke:#000000;stroke-opacity:1"
               sodipodi:type="arc" />
            <g
               id="g4505"
               transform="matrix(0.87800178,0,0,0.85853043,47.04694,-37.815302)">
              <g
                 id="g4507">
                <path
                   sodipodi:type="arc"
                   style="fill:#454837;fill-opacity:1;fill-rule:evenodd;stroke:#000000;stroke-opacity:1"
                   id="path4509"
                   sodipodi:cx="1319.9955"
                   sodipodi:cy="416.83832"
                   sodipodi:rx="15.34297"
                   sodipodi:ry="17.716536"
                   d="m 1335.3385,416.83832 c 0,9.78457 -6.8693,17.71653 -15.343,17.71653 -8.4737,0 -15.343,-7.93196 -15.343,-17.71653 0,-9.78457 6.8693,-17.71654 15.343,-17.71654 8.4737,0 15.343,7.93197 15.343,17.71654 z"
                   transform="translate(-675.5907,-46.563015)" />
                <path
                   sodipodi:type="arc"
                   style="fill:#000000;fill-opacity:1;fill-rule:evenodd;stroke:#000000;stroke-opacity:1"
                   id="path4511"
                   sodipodi:cx="675.5907"
                   sodipodi:cy="159.94856"
                   sodipodi:rx="46.028908"
                   sodipodi:ry="79.724411"
                   d="m 721.61961,159.94856 c 0,44.03058 -20.60785,79.72441 -46.02891,79.72441 -25.42107,0 -46.02891,-35.69383 -46.02891,-79.72441 0,-44.03057 20.60784,-79.724408 46.02891,-79.724408 25.42106,0 46.02891,35.693838 46.02891,79.724408 z"
                   transform="matrix(0.1232001,0,-6.601066e-5,0.07106302,560.77042,363.23176)" />
                <path
                   transform="matrix(0.9588229,0,0,0.55854379,-741.88259,169.66542)"
                   d="m 1458.0821,350.40131 c 0,7.33843 -3.4346,13.2874 -7.6715,13.2874 -4.2368,0 -7.6714,-5.94897 -7.6714,-13.2874 0,-7.33843 3.4346,-13.28741 7.6714,-13.28741 4.2369,0 7.6715,5.94898 7.6715,13.28741 z"
                   sodipodi:ry="13.287401"
                   sodipodi:rx="7.6714849"
                   sodipodi:cy="350.40131"
                   sodipodi:cx="1450.4106"
                   id="path4513"
                   style="fill:#ffffff;fill-opacity:1;fill-rule:evenodd;stroke:#000000;stroke-opacity:1"
                   sodipodi:type="arc" />
              </g>
              <g
                 id="g4515">
                <path
                   transform="translate(-675.5907,-46.563015)"
                   d="m 1335.3385,416.83832 c 0,9.78457 -6.8693,17.71653 -15.343,17.71653 -8.4737,0 -15.343,-7.93196 -15.343,-17.71653 0,-9.78457 6.8693,-17.71654 15.343,-17.71654 8.4737,0 15.343,7.93197 15.343,17.71654 z"
                   sodipodi:ry="17.716536"
                   sodipodi:rx="15.34297"
                   sodipodi:cy="416.83832"
                   sodipodi:cx="1319.9955"
                   id="path4517"
                   style="fill:#454837;fill-opacity:1;fill-rule:evenodd;stroke:#000000;stroke-opacity:1"
                   sodipodi:type="arc" />
                <path
                   transform="matrix(0.1232001,0,-6.601066e-5,0.07106302,560.77042,363.23176)"
                   d="m 721.61961,159.94856 c 0,44.03058 -20.60785,79.72441 -46.02891,79.72441 -25.42107,0 -46.02891,-35.69383 -46.02891,-79.72441 0,-44.03057 20.60784,-79.724408 46.02891,-79.724408 25.42106,0 46.02891,35.693838 46.02891,79.724408 z"
                   sodipodi:ry="79.724411"
                   sodipodi:rx="46.028908"
                   sodipodi:cy="159.94856"
                   sodipodi:cx="675.5907"
                   id="path4519"
                   style="fill:#000000;fill-opacity:1;fill-rule:evenodd;stroke:#000000;stroke-opacity:1"
                   sodipodi:type="arc" />
                <path
                   sodipodi:type="arc"
                   style="fill:#ffffff;fill-opacity:1;fill-rule:evenodd;stroke:#000000;stroke-opacity:1"
                   id="path4521"
                   sodipodi:cx="1450.4106"
                   sodipodi:cy="350.40131"
                   sodipodi:rx="7.6714849"
                   sodipodi:ry="13.287401"
                   d="m 1458.0821,350.40131 c 0,7.33843 -3.4346,13.2874 -7.6715,13.2874 -4.2368,0 -7.6714,-5.94897 -7.6714,-13.2874 0,-7.33843 3.4346,-13.28741 7.6714,-13.28741 4.2369,0 7.6715,5.94898 7.6715,13.28741 z"
                   transform="matrix(0.9588229,0,0,0.55854379,-741.88259,169.66542)" />
              </g>
            </g>
            <path
               style="fill:#ffff00;fill-opacity:1;fill-rule:evenodd;stroke:#000000;stroke-width:0.93601406;stroke-opacity:1"
               d="m 614.17194,292.11205 c -9.2627,0 -17.7086,3.49011 -24.0626,9.21875 4.5533,8.2737 13.382,13.875 23.5626,13.875 10.41,0 19.4503,-5.85617 23.9062,-14.4375 -6.2753,-5.39216 -14.4523,-8.65625 -23.4062,-8.65625 z"
               id="path4523"
               inkscape:connector-curvature="0" />
          </g>
          <g
             id="g4525"
             transform="translate(-221.62935,96.640705)">
            <path
               sodipodi:type="arc"
               style="fill:#ffffff;fill-opacity:1;fill-rule:evenodd;stroke:#000000;stroke-opacity:1"
               id="path4527"
               sodipodi:cx="706.27667"
               sodipodi:cy="443.41312"
               sodipodi:rx="30.685968"
               sodipodi:ry="26.574802"
               d="m 736.96264,443.41312 c 0,14.67685 -13.73858,26.5748 -30.68597,26.5748 -16.94739,0 -30.68597,-11.89795 -30.68597,-26.5748 0,-14.67686 13.73858,-26.57481 30.68597,-26.57481 16.94739,0 30.68597,11.89795 30.68597,26.57481 z"
               transform="matrix(0.87506879,0,0,1.0012039,-4.9333599,-154.04588)" />
            <g
               transform="matrix(0.87800178,0,0,0.85853043,47.04694,-37.815302)"
               id="g4529">
              <g
                 id="g4531">
                <path
                   transform="translate(-675.5907,-46.563015)"
                   d="m 1335.3385,416.83832 c 0,9.78457 -6.8693,17.71653 -15.343,17.71653 -8.4737,0 -15.343,-7.93196 -15.343,-17.71653 0,-9.78457 6.8693,-17.71654 15.343,-17.71654 8.4737,0 15.343,7.93197 15.343,17.71654 z"
                   sodipodi:ry="17.716536"
                   sodipodi:rx="15.34297"
                   sodipodi:cy="416.83832"
                   sodipodi:cx="1319.9955"
                   id="path4533"
                   style="fill:#454837;fill-opacity:1;fill-rule:evenodd;stroke:#000000;stroke-opacity:1"
                   sodipodi:type="arc" />
                <path
                   transform="matrix(0.1232001,0,-6.601066e-5,0.07106302,560.77042,363.23176)"
                   d="m 721.61961,159.94856 c 0,44.03058 -20.60785,79.72441 -46.02891,79.72441 -25.42107,0 -46.02891,-35.69383 -46.02891,-79.72441 0,-44.03057 20.60784,-79.724408 46.02891,-79.724408 25.42106,0 46.02891,35.693838 46.02891,79.724408 z"
                   sodipodi:ry="79.724411"
                   sodipodi:rx="46.028908"
                   sodipodi:cy="159.94856"
                   sodipodi:cx="675.5907"
                   id="path4535"
                   style="fill:#000000;fill-opacity:1;fill-rule:evenodd;stroke:#000000;stroke-opacity:1"
                   sodipodi:type="arc" />
                <path
                   sodipodi:type="arc"
                   style="fill:#ffffff;fill-opacity:1;fill-rule:evenodd;stroke:#000000;stroke-opacity:1"
                   id="path4537"
                   sodipodi:cx="1450.4106"
                   sodipodi:cy="350.40131"
                   sodipodi:rx="7.6714849"
                   sodipodi:ry="13.287401"
                   d="m 1458.0821,350.40131 c 0,7.33843 -3.4346,13.2874 -7.6715,13.2874 -4.2368,0 -7.6714,-5.94897 -7.6714,-13.2874 0,-7.33843 3.4346,-13.28741 7.6714,-13.28741 4.2369,0 7.6715,5.94898 7.6715,13.28741 z"
                   transform="matrix(0.9588229,0,0,0.55854379,-741.88259,169.66542)" />
              </g>
              <g
                 id="g4539">
                <path
                   sodipodi:type="arc"
                   style="fill:#454837;fill-opacity:1;fill-rule:evenodd;stroke:#000000;stroke-opacity:1"
                   id="path4541"
                   sodipodi:cx="1319.9955"
                   sodipodi:cy="416.83832"
                   sodipodi:rx="15.34297"
                   sodipodi:ry="17.716536"
                   d="m 1335.3385,416.83832 c 0,9.78457 -6.8693,17.71653 -15.343,17.71653 -8.4737,0 -15.343,-7.93196 -15.343,-17.71653 0,-9.78457 6.8693,-17.71654 15.343,-17.71654 8.4737,0 15.343,7.93197 15.343,17.71654 z"
                   transform="translate(-675.5907,-46.563015)" />
                <path
                   sodipodi:type="arc"
                   style="fill:#000000;fill-opacity:1;fill-rule:evenodd;stroke:#000000;stroke-opacity:1"
                   id="path4543"
                   sodipodi:cx="675.5907"
                   sodipodi:cy="159.94856"
                   sodipodi:rx="46.028908"
                   sodipodi:ry="79.724411"
                   d="m 721.61961,159.94856 c 0,44.03058 -20.60785,79.72441 -46.02891,79.72441 -25.42107,0 -46.02891,-35.69383 -46.02891,-79.72441 0,-44.03057 20.60784,-79.724408 46.02891,-79.724408 25.42106,0 46.02891,35.693838 46.02891,79.724408 z"
                   transform="matrix(0.1232001,0,-6.601066e-5,0.07106302,560.77042,363.23176)" />
                <path
                   transform="matrix(0.9588229,0,0,0.55854379,-741.88259,169.66542)"
                   d="m 1458.0821,350.40131 c 0,7.33843 -3.4346,13.2874 -7.6715,13.2874 -4.2368,0 -7.6714,-5.94897 -7.6714,-13.2874 0,-7.33843 3.4346,-13.28741 7.6714,-13.28741 4.2369,0 7.6715,5.94898 7.6715,13.28741 z"
                   sodipodi:ry="13.287401"
                   sodipodi:rx="7.6714849"
                   sodipodi:cy="350.40131"
                   sodipodi:cx="1450.4106"
                   id="path4545"
                   style="fill:#ffffff;fill-opacity:1;fill-rule:evenodd;stroke:#000000;stroke-opacity:1"
                   sodipodi:type="arc" />
              </g>
            </g>
            <path
               inkscape:connector-curvature="0"
               id="path4547"
               d="m 614.17194,292.11205 c -9.2627,0 -17.7086,3.49011 -24.0626,9.21875 4.5533,8.2737 13.382,13.875 23.5626,13.875 10.41,0 19.4503,-5.85617 23.9062,-14.4375 -6.2753,-5.39216 -14.4523,-8.65625 -23.4062,-8.65625 z"
               style="fill:#ffff00;fill-opacity:1;fill-rule:evenodd;stroke:#000000;stroke-width:0.93601406;stroke-opacity:1" />
          </g>
        </g>
        <g
           id="g4549"
           transform="translate(-314.40443,-222.91789)">
          <g
             transform="matrix(-0.96804217,-0.22588757,-0.25078749,0.97449291,456.80607,183.07539)"
             id="g4551">
            <path
               inkscape:connector-curvature="0"
               style="fill:#2b0000;fill-opacity:1;fill-rule:evenodd;stroke:#000000;stroke-width:0.90739518;stroke-opacity:1"
               d="m 700.96875,313.875 c -27.87136,0 -50.46875,15.90528 -50.46875,35.5 0,2.09826 0.2531,4.12677 0.75,6.125 11.81823,-9.09087 29.9359,-14.90625 50.25,-14.90625 19.78987,0 37.48507,5.52873 49.3125,14.21875 0.39242,-1.78287 0.625,-3.57734 0.625,-5.4375 0,-19.59472 -22.59739,-35.5 -50.46875,-35.5 z"
               transform="translate(-675.5907,-46.563015)"
               id="path4553" />
            <path
               style="fill:#ffffff;fill-opacity:1;fill-rule:evenodd;stroke:#000000;stroke-opacity:1"
               d="m 15.069931,282.63798 c -4.78815,0 -8.7919996,4.30823 -9.8749996,10.09375 -1.37037,-2.2136 -3.19709,-3.5625 -5.21875,-3.5625 -3.91042,0 -7.14886,5.07534 -7.625,11.625 9.89933,-3.83267 21.5893696,-6.0625 34.1249996,-6.0625 10.74071,0 20.87447,1.65474 29.78125,4.53125 -0.13642,-7.13173 -3.53683,-12.84375 -7.6875,-12.84375 -2.39291,0 -4.53062,1.90119 -5.9375,4.875 -1.43033,-5.04968 -5.14664,-8.65625 -9.53125,-8.65625 -3.93071,0 -7.33682,2.88749 -9.03125,7.125 -1.69582,-4.23198 -5.07243,-7.125 -9,-7.125 z"
               id="path4555"
               inkscape:connector-curvature="0" />
          </g>
        </g>
        <path
           style="fill:#004455;fill-opacity:1;fill-rule:evenodd;stroke:#000000;stroke-opacity:1"
           d="m 156.00718,251.52747 -83.156254,22.84375 0,-1.21875 -61.375,0 0,0.4375 -80.3125,-22 c 0.59933,3.48209 1.3028,6.92813 2.09375,10.3125 l 78.21875,21.4375 0,22.84375 -60.96875,0 c 20.791,36.25869 54.3804403,59.92314 92.34375,60.21875 0.23996,0.002 0.47844,0 0.71875,0 0.98668,-0.008 1.98813,-0.0235 2.96875,-0.0625 36.74901,-1.46286 69.123434,-24.84227 89.375004,-60.15625 l -63.062504,0 0,-21.875 81.000004,-22.25 c 0.81135,-3.45695 1.54498,-6.9722 2.15625,-10.53125 z"
           id="path4557"
           inkscape:connector-curvature="0" />
      </g>
      <path
         style="fill:#ffffff;stroke:#000000;stroke-width:0.16125719px;stroke-linecap:butt;stroke-linejoin:miter;stroke-opacity:1"
         d="m 531.38894,438.31765 -9.47033,20.8987 7.10274,-4.47829 -7.10274,19.40593 7.10274,-4.47829 -7.10274,19.40594 11.83791,-25.377 -7.10275,4.47829 7.10275,-19.40593 -7.10275,4.47829 z"
         id="path4559"
         inkscape:connector-curvature="0" />
    </g>
  </g>
</svg>
