<?xml version="1.0" encoding="UTF-8" standalone="no"?>
<!-- Created with Inkscape (http://www.inkscape.org/) -->

<svg
   xmlns:dc="http://purl.org/dc/elements/1.1/"
   xmlns:cc="http://creativecommons.org/ns#"
   xmlns:rdf="http://www.w3.org/1999/02/22-rdf-syntax-ns#"
   xmlns:svg="http://www.w3.org/2000/svg"
   xmlns="http://www.w3.org/2000/svg"
   xmlns:sodipodi="http://sodipodi.sourceforge.net/DTD/sodipodi-0.dtd"
   xmlns:inkscape="http://www.inkscape.org/namespaces/inkscape"
   width="1080.6538"
   height="1210.3439"
   id="svg2"
   version="1.1"
   inkscape:version="0.48.4 r9939"
   sodipodi:docname="6.svg">
  <defs
     id="defs4" />
  <sodipodi:namedview
     id="base"
     pagecolor="#ffffff"
     bordercolor="#666666"
     borderopacity="1.0"
     inkscape:pageopacity="0.0"
     inkscape:pageshadow="2"
     inkscape:zoom="0.4403707"
     inkscape:cx="540.32692"
     inkscape:cy="605.17197"
     inkscape:document-units="px"
     inkscape:current-layer="g5876"
     showgrid="false"
     inkscape:window-width="1311"
     inkscape:window-height="744"
     inkscape:window-x="55"
     inkscape:window-y="24"
     inkscape:window-maximized="1"
     showborder="false"
     inkscape:showpageshadow="false"
     fit-margin-top="0"
     fit-margin-left="0"
     fit-margin-right="0"
     fit-margin-bottom="0" />
  <metadata
     id="metadata7">
    <rdf:RDF>
      <cc:Work
         rdf:about="">
        <dc:format>image/svg+xml</dc:format>
        <dc:type
           rdf:resource="http://purl.org/dc/dcmitype/StillImage" />
        <dc:title />
      </cc:Work>
    </rdf:RDF>
  </metadata>
  <g
     inkscape:label="Layer 1"
     inkscape:groupmode="layer"
     id="layer1"
     transform="translate(39.03837,450.88816)">
    <g
       id="g5876"
       transform="matrix(0.7665592,0,0,0.75209391,50.340151,90.706026)">
      <rect
         style="color:#000000;fill:#ffe680;fill-opacity:1;fill-rule:evenodd;stroke:#000000;stroke-width:0;stroke-linecap:butt;stroke-linejoin:miter;stroke-miterlimit:4;stroke-opacity:1;stroke-dasharray:none;stroke-dashoffset:0;marker:none;visibility:visible;display:inline;overflow:visible;enable-background:accumulate"
         id="rect3100"
         width="1409.7461"
         height="1505.2788"
         x="-116.59702"
         y="-720.11511" />
      <path
         style="fill:#ffff00;fill-opacity:1;stroke:#000000;stroke-width:2.85714293;stroke-opacity:1"
         d=""
         id="path4356"
         inkscape:connector-curvature="0" />
      <path
         style="fill:#ffff00;fill-opacity:1;stroke:#000000;stroke-width:2.85714293;stroke-opacity:1"
         d=""
         id="path4358"
         inkscape:connector-curvature="0" />
      <path
         style="fill:#ffffff;stroke:#000000;stroke-width:1px;stroke-linecap:butt;stroke-linejoin:miter;stroke-opacity:1"
         d="M 1255.3983,888.67904 z"
         id="path4360"
         inkscape:connector-curvature="0" />
      <path
         style="fill:#ffffff;fill-opacity:1;stroke:#000000;stroke-width:2.85714293;stroke-opacity:1"
         d=""
         id="path4362"
         inkscape:connector-curvature="0" />
      <path
         style="fill:#0b1728;fill-opacity:1;stroke:#000000;stroke-width:2.85714293;stroke-opacity:1"
         d=""
         id="path4364"
         inkscape:connector-curvature="0" />
      <path
         style="fill:#0b1728;fill-opacity:1;stroke:#000000;stroke-width:2.85714293;stroke-opacity:1"
         d=""
         id="path4366"
         inkscape:connector-curvature="0" />
      <g
         id="g5005">
        <g
           id="g3724"
           transform="matrix(1.1045898,0,0,1.1045898,181.27072,-359.68766)">
          <path
             inkscape:connector-curvature="0"
             id="path3560"
             d="m 688.01183,347.7049 14.79595,-20.34443 9.24748,-11.09697 5.54848,1.8495 1.84949,1.84949 3.69899,1.8495 0,5.54848 0,3.69899 3.69899,11.09696 0,18.49494 1.84949,9.24747 1.8495,9.24747 0,20.34444 0,7.39798 -9.24747,11.09696 -3.69899,5.54848 -9.24747,20.34444 -1.8495,5.54848 -3.69899,9.24747 -5.54848,20.34444 -3.69899,5.54848 -5.54848,1.8495 -3.69899,1.84949 -20.34443,-5.54848 7.39797,-44.38786 z"
             style="fill:#ffe6d5;stroke:#000000;stroke-width:1px;stroke-linecap:butt;stroke-linejoin:miter;stroke-opacity:1" />
          <path
             inkscape:connector-curvature="0"
             id="path3718"
             d="m 695.40981,355.10288 9.24747,-11.09696 9.24747,-5.54849 0,9.24747"
             style="fill:none;stroke:#000000;stroke-width:1px;stroke-linecap:butt;stroke-linejoin:miter;stroke-opacity:1" />
          <path
             inkscape:connector-curvature="0"
             id="path3720"
             d="m 697.2593,375.44732 7.39798,7.39797 -1.8495,12.94646 -3.69898,25.89292 -9.24747,12.94646 -14.79596,7.39798"
             style="fill:none;stroke:#000000;stroke-width:1px;stroke-linecap:butt;stroke-linejoin:miter;stroke-opacity:1" />
        </g>
        <g
           id="g3729"
           transform="matrix(-1.1045898,0,0,1.1045898,1022.5399,-349.35081)">
          <path
             style="fill:#ffe6d5;stroke:#000000;stroke-width:1px;stroke-linecap:butt;stroke-linejoin:miter;stroke-opacity:1"
             d="m 688.01183,347.7049 14.79595,-20.34443 9.24748,-11.09697 5.54848,1.8495 1.84949,1.84949 3.69899,1.8495 0,5.54848 0,3.69899 3.69899,11.09696 0,18.49494 1.84949,9.24747 1.8495,9.24747 0,20.34444 0,7.39798 -9.24747,11.09696 -3.69899,5.54848 -9.24747,20.34444 -1.8495,5.54848 -3.69899,9.24747 -5.54848,20.34444 -3.69899,5.54848 -5.54848,1.8495 -3.69899,1.84949 -20.34443,-5.54848 7.39797,-44.38786 z"
             id="path3731"
             inkscape:connector-curvature="0" />
          <path
             style="fill:none;stroke:#000000;stroke-width:1px;stroke-linecap:butt;stroke-linejoin:miter;stroke-opacity:1"
             d="m 695.40981,355.10288 9.24747,-11.09696 9.24747,-5.54849 0,9.24747"
             id="path3733"
             inkscape:connector-curvature="0" />
          <path
             style="fill:none;stroke:#000000;stroke-width:1px;stroke-linecap:butt;stroke-linejoin:miter;stroke-opacity:1"
             d="m 697.2593,375.44732 7.39798,7.39797 -1.8495,12.94646 -3.69898,25.89292 -9.24747,12.94646 -14.79596,7.39798"
             id="path3735"
             inkscape:connector-curvature="0" />
        </g>
        <path
           style="fill:#ffff00;stroke:#000000;stroke-width:1.10458982px;stroke-linecap:butt;stroke-linejoin:miter;stroke-opacity:1"
           d="m 775.55557,481.70327 -4.43508,51.00355 2.21754,39.91578 4.43509,37.69832 13.30527,-24.39298 2.21755,4.43504 22.17545,-77.61411 13.30527,37.69832 37.69828,-133.05275 17.74036,51.00354 46.56845,-299.36863 -35.48073,0 z"
           id="path4330"
           inkscape:connector-curvature="0" />
        <path
           inkscape:connector-curvature="0"
           id="path4332"
           d="m 427.40094,486.13842 4.4351,51.00343 -2.21754,39.9158 -4.4351,37.69832 -13.30527,-24.39299 -2.21755,4.43504 -22.17545,-77.614 -13.30528,37.69832 -37.69827,-133.0528 -17.74037,51.00354 -46.56846,-299.36864 35.48073,0 z"
           style="fill:#ffff00;stroke:#000000;stroke-width:1.10458982px;stroke-linecap:butt;stroke-linejoin:miter;stroke-opacity:1" />
        <g
           transform="matrix(1.1045898,0,0,1.1045898,181.27072,-361.9052)"
           id="g4336">
          <path
             style="fill:#ffe6d5;stroke:#000000;stroke-width:1px;stroke-linecap:butt;stroke-linejoin:miter;stroke-opacity:1"
             d="m 688.01183,347.7049 14.79595,-20.34443 9.24748,-11.09697 5.54848,1.8495 1.84949,1.84949 3.69899,1.8495 0,5.54848 0,3.69899 3.69899,11.09696 0,18.49494 1.84949,9.24747 1.8495,9.24747 0,20.34444 0,7.39798 -9.24747,11.09696 -3.69899,5.54848 -9.24747,20.34444 -1.8495,5.54848 -3.69899,9.24747 -5.54848,20.34444 -3.69899,5.54848 -5.54848,1.8495 -3.69899,1.84949 -20.34443,-5.54848 7.39797,-44.38786 z"
             id="path4338"
             inkscape:connector-curvature="0" />
          <path
             style="fill:none;stroke:#000000;stroke-width:1px;stroke-linecap:butt;stroke-linejoin:miter;stroke-opacity:1"
             d="m 695.40981,355.10288 9.24747,-11.09696 9.24747,-5.54849 0,9.24747"
             id="path4340"
             inkscape:connector-curvature="0" />
          <path
             style="fill:none;stroke:#000000;stroke-width:1px;stroke-linecap:butt;stroke-linejoin:miter;stroke-opacity:1"
             d="m 697.2593,375.44732 7.39798,7.39797 -1.8495,12.94646 -3.69898,25.89292 -9.24747,12.94646 -14.79596,7.39798"
             id="path4342"
             inkscape:connector-curvature="0" />
        </g>
        <g
           transform="matrix(-1.1045898,0,0,1.1045898,1022.5399,-351.56835)"
           id="g4344">
          <path
             inkscape:connector-curvature="0"
             id="path4346"
             d="m 688.01183,347.7049 14.79595,-20.34443 9.24748,-11.09697 5.54848,1.8495 1.84949,1.84949 3.69899,1.8495 0,5.54848 0,3.69899 3.69899,11.09696 0,18.49494 1.84949,9.24747 1.8495,9.24747 0,20.34444 0,7.39798 -9.24747,11.09696 -3.69899,5.54848 -9.24747,20.34444 -1.8495,5.54848 -3.69899,9.24747 -5.54848,20.34444 -3.69899,5.54848 -5.54848,1.8495 -3.69899,1.84949 -20.34443,-5.54848 7.39797,-44.38786 z"
             style="fill:#ffe6d5;stroke:#000000;stroke-width:1px;stroke-linecap:butt;stroke-linejoin:miter;stroke-opacity:1" />
          <path
             inkscape:connector-curvature="0"
             id="path4348"
             d="m 695.40981,355.10288 9.24747,-11.09696 9.24747,-5.54849 0,9.24747"
             style="fill:none;stroke:#000000;stroke-width:1px;stroke-linecap:butt;stroke-linejoin:miter;stroke-opacity:1" />
          <path
             inkscape:connector-curvature="0"
             id="path4350"
             d="m 697.2593,375.44732 7.39798,7.39797 -1.8495,12.94646 -3.69898,25.89292 -9.24747,12.94646 -14.79596,7.39798"
             style="fill:none;stroke:#000000;stroke-width:1px;stroke-linecap:butt;stroke-linejoin:miter;stroke-opacity:1" />
        </g>
        <g
           transform="matrix(1.1045898,0,0,1.1045898,195.7871,-381.43474)"
           id="g4374">
          <path
             style="fill:#4d4d4d;stroke:#000000;stroke-width:1.17115164px;stroke-linecap:butt;stroke-linejoin:miter;stroke-opacity:1"
             d="m 34.37129,217.51504 6.791256,145.08507 61.121304,9.89217 78.09945,9.89217 74.70383,6.59477 78.09943,3.29739 78.09947,0 74.70381,-9.89216 61.12131,-9.89217 78.09945,-13.18956 74.70383,-16.48694 -3.39563,-118.70598 -10.18689,-16.48693 -105.26448,-23.08172 -98.4732,-16.48694 -71.3082,-6.59477 -67.91258,-3.29741 -71.30818,3.29741 -67.91258,9.89216 -64.51693,13.18955 -61.121305,13.18956 z"
             id="path4376"
             inkscape:connector-curvature="0" />
          <path
             style="fill:#b7c4c8;stroke:#000000;stroke-width:1.16457462px;stroke-linecap:butt;stroke-linejoin:miter;stroke-opacity:1"
             d="m 140.08229,235.14556 0,48.6452 0,38.91615 0,16.21507 58.03618,12.97205 54.62228,0 71.69175,3.24301 68.27785,-3.24301 58.03618,0 64.86396,-12.97205 61.45009,-12.97206 -3.41391,-51.88821 3.41391,-45.40217 -17.06948,-9.72904 -64.86395,-6.48604 -105.83068,6.48604 -99.0029,0 -61.45007,0 -64.86396,3.24301 z"
             id="path4378"
             inkscape:connector-curvature="0" />
          <path
             style="fill:#b7c4c8;fill-opacity:1;stroke:#000000;stroke-width:2.85714293;stroke-opacity:1"
             d="m 221,348.99189 c -23.57143,-1.24498 -47.35714,-3.57119 -52.85714,-5.16936 -5.5,-1.59818 -13.53572,-3.6979 -17.85715,-4.66606 l -7.85714,-1.7603 0,-50.8048 0,-50.80481 L 156,229.15488 c 13.42791,-6.56156 15.11238,-6.65791 159.28571,-9.1113 80.14286,-1.36379 152.37915,-3.29113 160.52509,-4.28298 18.6688,-2.27312 79.77711,3.87237 89.74123,9.02501 l 7.49488,3.87577 0.11372,48.08615 0.11371,48.08616 -58.9944,12.02417 -58.99423,12.02417 -95.71428,1.18673 c -52.64286,0.65269 -115,0.16811 -138.57143,-1.07687 l 0,0 z"
             id="path4380"
             inkscape:connector-curvature="0" />
          <path
             style="fill:#b7c4c8;fill-opacity:1;stroke:#000000;stroke-width:2.85714293;stroke-opacity:1"
             d="m 185.28571,343.22437 c -8.64285,-1.15657 -21.20868,-3.61708 -27.92406,-5.46781 l -12.20977,-3.36495 0.7812,-49.07091 0.78121,-49.07092 13.03477,-4.83691 c 11.09709,-4.11789 37.21786,-5.47883 175.71428,-9.15501 160.22489,-4.25294 195.51466,-3.61206 224.82237,4.08289 L 571,229.15386 l 0,46.52913 0,46.52913 -58.13114,11.93217 -58.13117,11.93218 -126.86884,-0.37462 c -69.77787,-0.20604 -133.94028,-1.32091 -142.58314,-2.47748 z"
             id="path4382"
             inkscape:connector-curvature="0" />
          <path
             sodipodi:type="spiral"
             style="fill:none;stroke:#000000;stroke-width:1px;stroke-linecap:butt;stroke-linejoin:miter;stroke-opacity:1"
             id="path4384"
             sodipodi:cx="320"
             sodipodi:cy="272.36218"
             sodipodi:expansion="1"
             sodipodi:revolution="3"
             sodipodi:radius="41.206299"
             sodipodi:argument="-18.261553"
             sodipodi:t0="0"
             d="m 320,272.36218 c 1.71903,1.14602 -0.69671,2.88263 -1.90476,2.85714 -3.27377,-0.0691 -4.58066,-3.98327 -3.80952,-6.66666 1.37939,-4.79997 7.11868,-6.47782 11.42857,-4.7619 6.32494,2.51818 8.42035,10.2927 5.71428,16.19048 -3.60677,7.8608 -13.47992,10.38155 -20.95239,6.66665 -9.40333,-4.67481 -12.35228,-16.67329 -7.61903,-25.71429 5.7326,-10.94985 19.87011,-14.3285 30.47619,-8.57141 12.4989,6.78454 16.30818,23.06908 9.52379,35.2381 -7.83284,14.04962 -26.26947,18.29015 -40,10.47617 -15.6015,-8.87874 -20.27372,-29.47087 -11.42855,-44.76191 9.92295,-17.15423 32.67301,-22.25847 49.52382,-12.38093 18.70758,10.96595 24.24409,35.8757 13.3333,54.28572"
             transform="matrix(0,-1,1,0,88.754796,603.79206)" />
          <path
             style="fill:none;stroke:#000000;stroke-width:1px;stroke-linecap:butt;stroke-linejoin:miter;stroke-opacity:1"
             d="m 325.71429,298.07647 -11.42858,22.85714"
             id="path4386"
             inkscape:connector-curvature="0" />
          <path
             style="fill:none;stroke:#000000;stroke-width:1px;stroke-linecap:butt;stroke-linejoin:miter;stroke-opacity:1"
             d="m 314.28571,318.07647 40,-2.85714"
             id="path4388"
             inkscape:connector-curvature="0" />
          <path
             sodipodi:type="arc"
             style="fill:#b7c4c8;fill-opacity:1;stroke:#000000;stroke-opacity:1"
             id="path4390"
             sodipodi:cx="831.42859"
             sodipodi:cy="602.36218"
             sodipodi:rx="8.5714283"
             sodipodi:ry="10"
             d="m 840.00002,602.36218 c 0,5.52285 -3.83756,10 -8.57143,10 -4.73387,0 -8.57143,-4.47715 -8.57143,-10 0,-5.52284 3.83756,-10 8.57143,-10 4.73387,0 8.57143,4.47716 8.57143,10 z"
             transform="matrix(0.8459786,0,0,0.72512451,-533.37077,-185.85398)" />
          <path
             transform="matrix(0.8459786,0,0,0.72512451,-173.37077,-128.71113)"
             d="m 840.00002,602.36218 c 0,5.52285 -3.83756,10 -8.57143,10 -4.73387,0 -8.57143,-4.47715 -8.57143,-10 0,-5.52284 3.83756,-10 8.57143,-10 4.73387,0 8.57143,4.47716 8.57143,10 z"
             sodipodi:ry="10"
             sodipodi:rx="8.5714283"
             sodipodi:cy="602.36218"
             sodipodi:cx="831.42859"
             id="path4392"
             style="fill:#b7c4c8;fill-opacity:1;stroke:#000000;stroke-opacity:1"
             sodipodi:type="arc" />
          <path
             sodipodi:type="arc"
             style="fill:#b7c4c8;fill-opacity:1;stroke:#000000;stroke-opacity:1"
             id="path4394"
             sodipodi:cx="831.42859"
             sodipodi:cy="602.36218"
             sodipodi:rx="8.5714283"
             sodipodi:ry="10"
             d="m 840.00002,602.36218 c 0,5.52285 -3.83756,10 -8.57143,10 -4.73387,0 -8.57143,-4.47715 -8.57143,-10 0,-5.52284 3.83756,-10 8.57143,-10 4.73387,0 8.57143,4.47716 8.57143,10 z"
             transform="matrix(0.8459786,0,0,0.72512451,-167.65648,-160.13969)" />
          <path
             transform="matrix(0.8459786,0,0,0.72512451,-173.37078,-194.42541)"
             d="m 840.00002,602.36218 c 0,5.52285 -3.83756,10 -8.57143,10 -4.73387,0 -8.57143,-4.47715 -8.57143,-10 0,-5.52284 3.83756,-10 8.57143,-10 4.73387,0 8.57143,4.47716 8.57143,10 z"
             sodipodi:ry="10"
             sodipodi:rx="8.5714283"
             sodipodi:cy="602.36218"
             sodipodi:cx="831.42859"
             id="path4396"
             style="fill:#b7c4c8;fill-opacity:1;stroke:#000000;stroke-opacity:1"
             sodipodi:type="arc" />
          <path
             sodipodi:type="arc"
             style="fill:#b7c4c8;fill-opacity:1;stroke:#000000;stroke-opacity:1"
             id="path4398"
             sodipodi:cx="831.42859"
             sodipodi:cy="602.36218"
             sodipodi:rx="8.5714283"
             sodipodi:ry="10"
             d="m 840.00002,602.36218 c 0,5.52285 -3.83756,10 -8.57143,10 -4.73387,0 -8.57143,-4.47715 -8.57143,-10 0,-5.52284 3.83756,-10 8.57143,-10 4.73387,0 8.57143,4.47716 8.57143,10 z"
             transform="matrix(0.8459786,0,0,0.72512451,-530.51362,-120.1397)" />
          <path
             transform="matrix(0.8459786,0,0,0.72512451,-533.37077,-148.71112)"
             d="m 840.00002,602.36218 c 0,5.52285 -3.83756,10 -8.57143,10 -4.73387,0 -8.57143,-4.47715 -8.57143,-10 0,-5.52284 3.83756,-10 8.57143,-10 4.73387,0 8.57143,4.47716 8.57143,10 z"
             sodipodi:ry="10"
             sodipodi:rx="8.5714283"
             sodipodi:cy="602.36218"
             sodipodi:cx="831.42859"
             id="path4400"
             style="fill:#b7c4c8;fill-opacity:1;stroke:#000000;stroke-opacity:1"
             sodipodi:type="arc" />
        </g>
        <path
           inkscape:connector-curvature="0"
           id="path4402"
           d="m 296.77817,33.028694 -9.46791,75.743306 -3.15597,50.49552 3.15597,53.65151 9.46791,56.80747 22.09179,66.27539 28.40374,50.49554 41.02763,50.49554 41.02761,44.18359 41.02762,37.87165 34.71568,28.40374 25.24778,18.93582 31.5597,18.93582 28.40374,6.31195 47.33956,0 37.87165,-15.77986 41.02762,-18.93583 50.49554,-44.18359 31.55971,-37.87165 28.40373,-41.02762 34.71569,-56.80747 25.24776,-63.11942 22.0918,-66.27539 12.62388,-47.33956 6.31194,-53.65151 0,-59.96344 0,-34.715677 -9.46791,-41.027625 z"
           style="fill:#ffe6d5;stroke:#000000;stroke-width:1.10458982px;stroke-linecap:butt;stroke-linejoin:miter;stroke-opacity:1" />
        <path
           style="fill:#4d4d4d;stroke:#000000;stroke-width:1.29364216px;stroke-linecap:butt;stroke-linejoin:miter;stroke-opacity:1"
           d="m 236.90925,-147.4818 7.50155,160.259493 67.51397,10.92679 86.26785,10.92679 82.51709,7.284516 86.26784,3.642263 86.26787,0 82.51707,-10.926779 67.51398,-10.92679 86.26785,-14.5690534 82.51709,-18.2113057 -3.75078,-131.1214139 -11.25233,-18.2113 -116.27407,-25.49583 -108.7725,-18.2113 -78.76631,-7.28452 -75.01554,-3.64228 -78.76629,3.64228 -75.01554,10.92678 -71.26474,14.56904 -67.51397,14.56906 z"
           id="path4406"
           inkscape:connector-curvature="0" />
        <path
           style="fill:#b7c4c8;stroke:#000000;stroke-width:1.28637719px;stroke-linecap:butt;stroke-linejoin:miter;stroke-opacity:1"
           d="m 353.67654,-128.0073 0,53.732989 0,42.986382 0,17.911001 64.10617,14.32879422 60.33521,0 79.18998,3.58219578 75.41902,-3.58219578 64.10617,0 71.64807,-14.32879422 67.87714,-14.328805 -3.77097,-57.315188 3.77097,-50.150769 -18.85477,-10.7466 -71.64806,-7.16442 -116.89949,7.16442 -109.35759,0 -67.87712,0 -71.64807,3.58219 z"
           id="path4408"
           inkscape:connector-curvature="0" />
        <path
           style="fill:#b7c4c8;fill-opacity:1;stroke:#000000;stroke-width:3.15597105;stroke-opacity:1"
           d="m 443.05742,-2.253808 c -26.03677,-1.3751922 -52.31022,-3.9447001 -58.38546,-5.7100224 -6.07525,-1.7653333 -14.95142,-4.0846626 -19.72483,-5.1540826 l -8.67891,-1.944409 0,-56.118464 0,-56.118474 14.99086,-7.32529 c 14.83233,-7.24783 16.69298,-7.35426 175.94537,-10.06425 88.52499,-1.50642 168.31645,-3.63534 177.31438,-4.73093 20.62136,-2.51087 88.12098,4.27738 99.12724,9.96893 l 8.27877,4.28114 0.12562,53.115469 0.1256,53.115482 -65.16461,13.281775 L 701.84702,-2.3751583 596.122,-1.0643084 C 537.97324,-0.34335369 469.09418,-0.87861581 443.05742,-2.253808 l 0,0 z"
           id="path4410"
           inkscape:connector-curvature="0" />
        <path
           style="fill:#b7c4c8;fill-opacity:1;stroke:#000000;stroke-width:3.15597105;stroke-opacity:1"
           d="m 403.60778,-8.6245518 c -9.54681,-1.2775354 -23.4269,-3.9953892 -30.84464,-6.0396872 l -13.48678,-3.716889 0.8629,-54.203227 0.86292,-54.203235 14.39807,-5.3428 c 12.25773,-4.54858 41.11047,-6.05186 194.0922,-10.11253 176.98278,-4.69776 215.9635,-3.98985 248.3365,4.50991 l 11.8349,3.10734 0,51.395599 0,51.395602 -64.21107,13.180153 -64.2111,13.1801648 -140.13802,-0.4138014 C 484.02773,-6.1155423 413.15459,-7.3470164 403.60778,-8.6245518 z"
           id="path4412"
           inkscape:connector-curvature="0" />
        <path
           sodipodi:type="spiral"
           style="fill:none;stroke:#000000;stroke-width:2.02693129;stroke-linecap:butt;stroke-linejoin:miter;stroke-miterlimit:4;stroke-opacity:1;stroke-dasharray:none"
           id="path4414"
           sodipodi:cx="320"
           sodipodi:cy="272.36218"
           sodipodi:expansion="1"
           sodipodi:revolution="3"
           sodipodi:radius="41.206299"
           sodipodi:argument="-18.261553"
           sodipodi:t0="0"
           d="m 320,272.36218 c 1.71903,1.14602 -0.69671,2.88263 -1.90476,2.85714 -3.27377,-0.0691 -4.58066,-3.98327 -3.80952,-6.66666 1.37939,-4.79997 7.11868,-6.47782 11.42857,-4.7619 6.32494,2.51818 8.42035,10.2927 5.71428,16.19048 -3.60677,7.8608 -13.47992,10.38155 -20.95239,6.66665 -9.40333,-4.67481 -12.35228,-16.67329 -7.61903,-25.71429 5.7326,-10.94985 19.87011,-14.3285 30.47619,-8.57141 12.4989,6.78454 16.30818,23.06908 9.52379,35.2381 -7.83284,14.04962 -26.26947,18.29015 -40,10.47617 -15.6015,-8.87874 -20.27372,-29.47087 -11.42855,-44.76191 9.92295,-17.15423 32.67301,-22.25847 49.52382,-12.38093 18.70758,10.96595 24.24409,35.8757 13.3333,54.28572"
           transform="matrix(0,-1.1045898,1.1045898,0,299.58977,284.51434)" />
        <path
           style="fill:none;stroke:#000000;stroke-width:2.2389276;stroke-linecap:butt;stroke-linejoin:miter;stroke-miterlimit:4;stroke-opacity:1;stroke-dasharray:none"
           d="m 558.72375,-58.494462 -12.62389,25.247764"
           id="path4416"
           inkscape:connector-curvature="0" />
        <path
           style="fill:none;stroke:#000000;stroke-width:2.2389276;stroke-linecap:butt;stroke-linejoin:miter;stroke-miterlimit:4;stroke-opacity:1;stroke-dasharray:none"
           d="m 546.09986,-32.126497 44.18359,-3.155967"
           id="path4418"
           inkscape:connector-curvature="0" />
        <path
           sodipodi:type="arc"
           style="fill:#b7c4c8;fill-opacity:1;stroke:#000000;stroke-opacity:1"
           id="path4420"
           sodipodi:cx="831.42859"
           sodipodi:cy="602.36218"
           sodipodi:rx="8.5714283"
           sodipodi:ry="10"
           d="m 840.00002,602.36218 c 0,5.52285 -3.83756,10 -8.57143,10 -4.73387,0 -8.57143,-4.47715 -8.57143,-10 0,-5.52284 3.83756,-10 8.57143,-10 4.73387,0 8.57143,4.47716 8.57143,10 z"
           transform="matrix(0.93445933,0,0,0.80096514,-390.21284,-593.0391)" />
        <path
           transform="matrix(0.93445933,0,0,0.80096514,7.4394858,-529.91969)"
           d="m 840.00002,602.36218 c 0,5.52285 -3.83756,10 -8.57143,10 -4.73387,0 -8.57143,-4.47715 -8.57143,-10 0,-5.52284 3.83756,-10 8.57143,-10 4.73387,0 8.57143,4.47716 8.57143,10 z"
           sodipodi:ry="10"
           sodipodi:rx="8.5714283"
           sodipodi:cy="602.36218"
           sodipodi:cx="831.42859"
           id="path4422"
           style="fill:#b7c4c8;fill-opacity:1;stroke:#000000;stroke-opacity:1"
           sodipodi:type="arc" />
        <path
           sodipodi:type="arc"
           style="fill:#b7c4c8;fill-opacity:1;stroke:#000000;stroke-opacity:1"
           id="path4424"
           sodipodi:cx="831.42859"
           sodipodi:cy="602.36218"
           sodipodi:rx="8.5714283"
           sodipodi:ry="10"
           d="m 840.00002,602.36218 c 0,5.52285 -3.83756,10 -8.57143,10 -4.73387,0 -8.57143,-4.47715 -8.57143,-10 0,-5.52284 3.83756,-10 8.57143,-10 4.73387,0 8.57143,4.47716 8.57143,10 z"
           transform="matrix(0.93445933,0,0,0.80096514,13.751432,-564.63536)" />
        <path
           transform="matrix(0.93445933,0,0,0.80096514,7.4394748,-602.50701)"
           d="m 840.00002,602.36218 c 0,5.52285 -3.83756,10 -8.57143,10 -4.73387,0 -8.57143,-4.47715 -8.57143,-10 0,-5.52284 3.83756,-10 8.57143,-10 4.73387,0 8.57143,4.47716 8.57143,10 z"
           sodipodi:ry="10"
           sodipodi:rx="8.5714283"
           sodipodi:cy="602.36218"
           sodipodi:cx="831.42859"
           id="path4426"
           style="fill:#b7c4c8;fill-opacity:1;stroke:#000000;stroke-opacity:1"
           sodipodi:type="arc" />
        <path
           sodipodi:type="arc"
           style="fill:#b7c4c8;fill-opacity:1;stroke:#000000;stroke-opacity:1"
           id="path4428"
           sodipodi:cx="831.42859"
           sodipodi:cy="602.36218"
           sodipodi:rx="8.5714283"
           sodipodi:ry="10"
           d="m 840.00002,602.36218 c 0,5.52285 -3.83756,10 -8.57143,10 -4.73387,0 -8.57143,-4.47715 -8.57143,-10 0,-5.52284 3.83756,-10 8.57143,-10 4.73387,0 8.57143,4.47716 8.57143,10 z"
           transform="matrix(0.93445933,0,0,0.80096514,-387.05686,-520.45178)" />
        <path
           transform="matrix(0.93445933,0,0,0.80096514,-390.21284,-552.01148)"
           d="m 840.00002,602.36218 c 0,5.52285 -3.83756,10 -8.57143,10 -4.73387,0 -8.57143,-4.47715 -8.57143,-10 0,-5.52284 3.83756,-10 8.57143,-10 4.73387,0 8.57143,4.47716 8.57143,10 z"
           sodipodi:ry="10"
           sodipodi:rx="8.5714283"
           sodipodi:cy="602.36218"
           sodipodi:cx="831.42859"
           id="path4430"
           style="fill:#b7c4c8;fill-opacity:1;stroke:#000000;stroke-opacity:1"
           sodipodi:type="arc" />
        <g
           transform="matrix(0.82562544,0,0,0.98937713,-117.97936,-135.58496)"
           id="g4432">
          <path
             style="fill:#ffffff;stroke:#000000;stroke-width:1px;stroke-linecap:butt;stroke-linejoin:miter;stroke-opacity:1"
             d="m 980,258.07647 40,-40 37.1428,-17.14286 34.2857,-5.71428 45.7143,5.71428 20,14.28572 -14.2857,45.71428 -14.2857,17.14286 -25.7143,14.28572 -42.8571,2.85714 -45.7143,0 z"
             id="path4434"
             inkscape:connector-curvature="0" />
          <path
             style="fill:#000000;stroke:#000000;stroke-width:1px;stroke-linecap:butt;stroke-linejoin:miter;stroke-opacity:1"
             d="m 982.85715,263.79076 11.42857,-20 22.85708,-25.71429 20.0001,-14.28571 22.8571,-11.42857 22.8571,-2.85715 31.4286,0 28.5715,5.71429 17.1428,2.85714 -8.5714,45.71429 -2.8571,-34.28572 -25.7143,-5.71428 -22.8572,-2.85715 -20,0 -17.1429,2.85715 -22.8571,8.57143 -25.7143,17.14285 z"
             id="path4436"
             inkscape:connector-curvature="0" />
          <path
             style="fill:#000000;stroke:#000000;stroke-width:1px;stroke-linecap:butt;stroke-linejoin:miter;stroke-opacity:1"
             d="m 1008.5715,295.21932 94.2857,2.85714 34.2857,-22.85714 -40,14.28571 z"
             id="path4438"
             inkscape:connector-curvature="0" />
        </g>
        <path
           style="fill:#ffff00;stroke:#000000;stroke-width:1.45655763px;stroke-linecap:butt;stroke-linejoin:miter;stroke-opacity:1"
           d="M 675.67065,111.75199 C 791.1662,25.379271 794.77542,20.5808 794.77542,20.5808 l 28.87389,4.798471 z"
           id="path4440"
           inkscape:connector-curvature="0" />
        <g
           id="g4442"
           transform="matrix(-0.79078266,0,0,0.98937713,1295.9803,-122.96108)">
          <path
             inkscape:connector-curvature="0"
             id="path4444"
             d="m 980,258.07647 40,-40 37.1428,-17.14286 34.2857,-5.71428 45.7143,5.71428 20,14.28572 -14.2857,45.71428 -14.2857,17.14286 -25.7143,14.28572 -42.8571,2.85714 -45.7143,0 z"
             style="fill:#ffffff;stroke:#000000;stroke-width:1px;stroke-linecap:butt;stroke-linejoin:miter;stroke-opacity:1" />
          <path
             inkscape:connector-curvature="0"
             id="path4446"
             d="m 982.85715,263.79076 11.42857,-20 22.85708,-25.71429 20.0001,-14.28571 22.8571,-11.42857 22.8571,-2.85715 31.4286,0 28.5715,5.71429 17.1428,2.85714 -8.5714,45.71429 -2.8571,-34.28572 -25.7143,-5.71428 -22.8572,-2.85715 -20,0 -17.1429,2.85715 -22.8571,8.57143 -25.7143,17.14285 z"
             style="fill:#000000;stroke:#000000;stroke-width:1px;stroke-linecap:butt;stroke-linejoin:miter;stroke-opacity:1" />
          <path
             inkscape:connector-curvature="0"
             id="path4448"
             d="m 1008.5715,295.21932 94.2857,2.85714 34.2857,-22.85714 -40,14.28571 z"
             style="fill:#000000;stroke:#000000;stroke-width:1px;stroke-linecap:butt;stroke-linejoin:miter;stroke-opacity:1" />
        </g>
        <path
           style="fill:#ffff00;stroke:#000000;stroke-width:1.45655763px;stroke-linecap:butt;stroke-linejoin:miter;stroke-opacity:1"
           d="M 530.14403,121.2199 C 414.64848,34.847185 411.03926,30.048714 411.03926,30.048714 l -28.87389,4.798471 z"
           id="path4450"
           inkscape:connector-curvature="0" />
        <g
           transform="matrix(0.95403344,0,0,0.95405761,-91.827348,50.422774)"
           id="g4452">
          <path
             sodipodi:type="arc"
             style="fill:#0b1728;fill-opacity:1;stroke:#000000;stroke-opacity:1"
             id="path4454"
             sodipodi:cx="900"
             sodipodi:cy="58.076469"
             sodipodi:rx="42.857143"
             sodipodi:ry="42.857143"
             d="m 942.85714,58.076469 c 0,23.669347 -19.18779,42.857141 -42.85714,42.857141 -23.66935,0 -42.85714,-19.187794 -42.85714,-42.857141 0,-23.669346 19.18779,-42.857143 42.85714,-42.857143 23.66935,0 42.85714,19.187797 42.85714,42.857143 z"
             transform="matrix(0.96705108,0,0,0.96705107,28.225464,3.3421289)" />
          <g
             transform="translate(-37.142857,-311.42857)"
             id="g4456">
            <path
               sodipodi:type="arc"
               style="fill:#87aade;fill-opacity:1;stroke:#000000;stroke-opacity:1"
               id="path4458"
               sodipodi:cx="935.71429"
               sodipodi:cy="370.93362"
               sodipodi:rx="38.57143"
               sodipodi:ry="38.57143"
               d="m 974.28572,370.93362 c 0,21.30242 -17.26901,38.57143 -38.57143,38.57143 -21.30241,0 -38.57143,-17.26901 -38.57143,-38.57143 0,-21.30241 17.26902,-38.57143 38.57143,-38.57143 21.30242,0 38.57143,17.26902 38.57143,38.57143 z"
               transform="matrix(0.96343693,0,0,0.96343693,32.784016,14.991043)" />
            <path
               sodipodi:type="arc"
               style="fill:#0b1728;fill-opacity:1;stroke:#000000;stroke-opacity:1"
               id="path4460"
               sodipodi:cx="1072.8572"
               sodipodi:cy="572.36218"
               sodipodi:rx="7.1428571"
               sodipodi:ry="8.5714283"
               d="m 1080,572.36218 c 0,4.73387 -3.1979,8.57143 -7.1428,8.57143 -3.9449,0 -7.1429,-3.83756 -7.1429,-8.57143 0,-4.73387 3.198,-8.57143 7.1429,-8.57143 3.9449,0 7.1428,3.83756 7.1428,8.57143 z"
               transform="translate(-137.14285,-200)" />
          </g>
          <path
             sodipodi:type="arc"
             style="fill:#f6ffd5;fill-opacity:1;stroke:#000000;stroke-opacity:1"
             id="path4462"
             sodipodi:cx="185.71428"
             sodipodi:cy="-216.20924"
             sodipodi:rx="11.428572"
             sodipodi:ry="11.428572"
             d="m 197.14285,-216.20924 c 0,6.31182 -5.11674,11.42857 -11.42857,11.42857 -6.31183,0 -11.42857,-5.11675 -11.42857,-11.42857 0,-6.31183 5.11674,-11.42858 11.42857,-11.42858 6.31183,0 11.42857,5.11675 11.42857,11.42858 z"
             transform="translate(697.14286,291.42857)" />
        </g>
        <g
           id="g4464"
           transform="matrix(0.95403344,0,0,0.95405761,-404.26846,59.890688)">
          <path
             transform="matrix(0.96705108,0,0,0.96705107,28.225464,3.3421289)"
             d="m 942.85714,58.076469 c 0,23.669347 -19.18779,42.857141 -42.85714,42.857141 -23.66935,0 -42.85714,-19.187794 -42.85714,-42.857141 0,-23.669346 19.18779,-42.857143 42.85714,-42.857143 23.66935,0 42.85714,19.187797 42.85714,42.857143 z"
             sodipodi:ry="42.857143"
             sodipodi:rx="42.857143"
             sodipodi:cy="58.076469"
             sodipodi:cx="900"
             id="path4466"
             style="fill:#0b1728;fill-opacity:1;stroke:#000000;stroke-opacity:1"
             sodipodi:type="arc" />
          <g
             id="g4468"
             transform="translate(-37.142857,-311.42857)">
            <path
               transform="matrix(0.96343693,0,0,0.96343693,32.784016,14.991043)"
               d="m 974.28572,370.93362 c 0,21.30242 -17.26901,38.57143 -38.57143,38.57143 -21.30241,0 -38.57143,-17.26901 -38.57143,-38.57143 0,-21.30241 17.26902,-38.57143 38.57143,-38.57143 21.30242,0 38.57143,17.26902 38.57143,38.57143 z"
               sodipodi:ry="38.57143"
               sodipodi:rx="38.57143"
               sodipodi:cy="370.93362"
               sodipodi:cx="935.71429"
               id="path4470"
               style="fill:#87aade;fill-opacity:1;stroke:#000000;stroke-opacity:1"
               sodipodi:type="arc" />
            <path
               transform="translate(-137.14285,-200)"
               d="m 1080,572.36218 c 0,4.73387 -3.1979,8.57143 -7.1428,8.57143 -3.9449,0 -7.1429,-3.83756 -7.1429,-8.57143 0,-4.73387 3.198,-8.57143 7.1429,-8.57143 3.9449,0 7.1428,3.83756 7.1428,8.57143 z"
               sodipodi:ry="8.5714283"
               sodipodi:rx="7.1428571"
               sodipodi:cy="572.36218"
               sodipodi:cx="1072.8572"
               id="path4472"
               style="fill:#0b1728;fill-opacity:1;stroke:#000000;stroke-opacity:1"
               sodipodi:type="arc" />
          </g>
          <path
             transform="translate(697.14286,291.42857)"
             d="m 197.14285,-216.20924 c 0,6.31182 -5.11674,11.42857 -11.42857,11.42857 -6.31183,0 -11.42857,-5.11675 -11.42857,-11.42857 0,-6.31183 5.11674,-11.42858 11.42857,-11.42858 6.31183,0 11.42857,5.11675 11.42857,11.42858 z"
             sodipodi:ry="11.428572"
             sodipodi:rx="11.428572"
             sodipodi:cy="-216.20924"
             sodipodi:cx="185.71428"
             id="path4474"
             style="fill:#f6ffd5;fill-opacity:1;stroke:#000000;stroke-opacity:1"
             sodipodi:type="arc" />
        </g>
        <path
           inkscape:connector-curvature="0"
           id="path4476"
           d="M 530.14403,121.2199 C 414.64848,34.847185 411.03926,30.048714 411.03926,30.048714 l -28.87389,4.798471 z"
           style="fill:#ffff00;stroke:#000000;stroke-width:1.45655763px;stroke-linecap:butt;stroke-linejoin:miter;stroke-opacity:1" />
        <path
           inkscape:connector-curvature="0"
           id="path4478"
           d="m 514.54016,108.77199 37.87165,28.40373 22.09179,22.0918 12.62388,28.40374 -6.31193,18.93583 3.15597,-28.40374 -28.40375,-41.02763 z"
           style="fill:none;stroke:#000000;stroke-width:1.10458982px;stroke-linecap:butt;stroke-linejoin:miter;stroke-opacity:1" />
        <path
           inkscape:connector-curvature="0"
           id="path4480"
           d="m 574.71915,338.94233 c 12.37754,-12.44292 21.6607,0 21.6607,0 z"
           style="fill:none;stroke:#000000;stroke-width:1.5356828px;stroke-linecap:butt;stroke-linejoin:miter;stroke-opacity:1" />
        <path
           style="fill:none;stroke:#000000;stroke-width:1.5356828px;stroke-linecap:butt;stroke-linejoin:miter;stroke-opacity:1"
           d="m 631.52663,342.09829 c 12.37753,-12.44291 21.66069,0 21.66069,0 z"
           id="path4482"
           inkscape:connector-curvature="0" />
        <path
           inkscape:connector-curvature="0"
           id="path4484"
           d="M 530.32001,414.90117 z"
           style="fill:none;stroke:#000000;stroke-width:1.10458982px;stroke-linecap:butt;stroke-linejoin:miter;stroke-opacity:1" />
        <path
           inkscape:connector-curvature="0"
           id="path4486"
           d="m 533.47599,427.52505 41.02763,6.31194 28.40376,0 37.87163,0 34.71571,-6.31194 25.24772,-12.62388 -22.09179,9.46791 -31.55968,3.15597 -31.55979,3.15597 -34.7156,3.15597 z"
           style="fill:#22280b;stroke:#000000;stroke-width:1.10458982px;stroke-linecap:butt;stroke-linejoin:miter;stroke-opacity:1" />
        <path
           inkscape:connector-curvature="0"
           id="path4488"
           d="m 809.67117,205.13618 40.85866,-12.25759 32.6869,-6.12881 34.72987,-4.08585 6.1288,0 -28.60106,0 -46.98745,10.21466 z"
           style="fill:none;stroke:#000000;stroke-width:1.10458982px;stroke-linecap:butt;stroke-linejoin:miter;stroke-opacity:1" />
        <path
           inkscape:connector-curvature="0"
           id="path4490"
           d="m 827.59005,254.78287 44.94451,0 26.55812,2.04293 26.55812,6.12878 -20.42932,-6.12878 -30.64399,-4.08587 z"
           style="fill:none;stroke:#000000;stroke-width:1.10458982px;stroke-linecap:butt;stroke-linejoin:miter;stroke-opacity:1" />
        <path
           inkscape:connector-curvature="0"
           id="path4492"
           d="m 804.89621,297.68445 30.644,10.21466 28.60104,20.42932 18.3864,18.38639 -16.34346,-18.38639 -26.55814,-16.34346 z"
           style="fill:none;stroke:#000000;stroke-width:1.10458982px;stroke-linecap:butt;stroke-linejoin:miter;stroke-opacity:1" />
        <path
           style="fill:none;stroke:#000000;stroke-width:1.10458982px;stroke-linecap:butt;stroke-linejoin:miter;stroke-opacity:1"
           d="m 406.08124,200.43401 -40.85865,-12.25759 -32.68691,-6.12881 -34.72986,-4.08585 -6.1288,0 28.60106,0 46.98745,10.21466 z"
           id="path4494"
           inkscape:connector-curvature="0" />
        <path
           style="fill:none;stroke:#000000;stroke-width:1.10458982px;stroke-linecap:butt;stroke-linejoin:miter;stroke-opacity:1"
           d="m 399.95245,239.86603 -44.94451,0 -26.55811,2.04292 -26.55813,6.1288 20.42932,-6.1288 30.64399,-4.08586 z"
           id="path4496"
           inkscape:connector-curvature="0" />
        <path
           style="fill:none;stroke:#000000;stroke-width:1.10458982px;stroke-linecap:butt;stroke-linejoin:miter;stroke-opacity:1"
           d="m 396.55568,287.89208 -30.64399,10.21467 -28.60105,20.42932 -18.38639,18.38639 16.34345,-18.38639 26.55813,-16.34347 z"
           id="path4498"
           inkscape:connector-curvature="0" />
        <path
           inkscape:connector-curvature="0"
           id="path4500"
           d="m 906.79937,11.343532 12.25759,198.164428 18.38639,-108.27541 14.30052,-77.631429 10.21467,-8.171722 12.2576,-16.34346621 z"
           style="fill:#ffff00;stroke:#000000;stroke-width:1.10458982px;stroke-linecap:butt;stroke-linejoin:miter;stroke-opacity:1" />
        <path
           style="fill:#ffff00;stroke:#000000;stroke-width:1.10458982px;stroke-linecap:butt;stroke-linejoin:miter;stroke-opacity:1"
           d="M 312.30605,31.772854 300.04847,229.93729 281.66207,121.66187 267.36154,44.030442 257.14688,35.85872 244.88929,19.515254 z"
           id="path4502"
           inkscape:connector-curvature="0" />
        <path
           inkscape:connector-curvature="0"
           id="path4504"
           d="m 970.13027,-78.545503 122.57593,-42.901567 -32.6869,-6.1288 -38.8157,0 30.644,-20.42933 32.6869,-12.25759 30.6439,-4.08587 -44.9445,-24.51518 -59.245,-24.51519 -28.60104,2.04293 44.94454,-26.55811 26.5581,-24.5152 26.5581,-28.60105 26.5582,-32.68693 20.4293,-22.47224 -65.3738,16.34346 -55.1592,4.08586 -59.24509,-2.04293 -18.38639,-10.21467 22.47225,-24.51519 16.34346,-24.51518 14.30053,-34.72986 -20.42932,14.30053 8.17173,-30.64398 -2.04294,-53.11624 -40.85864,36.77279 -34.72985,22.47224 -53.11625,22.47226 2.04294,-34.72984 -8.17172,-44.94451 -28.60106,-42.90159 -18.3864,-20.42932 0,42.90157 -40.85864,-38.8157 -40.85864,-10.21467 -44.94452,-12.25759 22.47225,26.55812 16.34346,38.81571 8.17173,38.81571 -10.21466,20.42933 0,-16.34346 -10.21466,-30.64398 -4.08587,34.72985 -14.30052,24.51518 0,0 -4.08587,-22.47225 -18.38639,-22.47226 -30.64398,-18.38638 -16.34346,-16.34346 -38.81571,-24.5152 -40.85864,-12.25759 -26.55814,-18.38639 2.04294,18.38639 6.1288,46.98745 4.08587,22.47224 4.08586,36.7728 -8.17173,26.55811 -4.08587,8.17173 2.04293,-24.51519 -2.04293,-28.60105 -10.21466,28.60105 -30.64398,18.3864 0,-30.64399 -6.12881,-55.15917 -14.30052,-34.72986 -14.30053,46.98746 -24.51518,36.77277 -34.72984,53.11625 -28.60106,32.68691 -2.04294,-26.55812 6.1288,-30.64399 -22.47226,32.68693 0,-32.68693 -16.34345,-63.3309 -26.55813,-24.51518 6.12879,57.20211 -10.21466,85.80315 -36.77278,-20.42932 -49.03037,-12.25759 -55.15918,-2.04294 -32.686916,8.17173 61.287966,34.72985 42.90159,44.94451 30.64398,40.85864 -20.42933,4.08587 -51.07331,-2.04293 -32.68691,-18.38639 -28.601055,-28.60106 20.429325,55.15917 26.55812,36.7728 38.81572,24.51518 26.55811,4.08587 -32.68691,8.17173 -30.64398,10.21467 -22.47226,12.25758 -32.686922,24.51519 -24.515189,24.51519 22.472258,0 61.287973,2.04294 40.85865,2.04292 -18.3864,12.25759 -32.68691,34.729866 18.38638,-6.128809 -51.07331,38.815712 130.74768,-32.686903 6.1288,-8.171739 -2.04293,-65.373827 59.24504,-30.64399 -36.7728,91.931958 104.18956,-102.146618 0,-24.5152 0,16.34347 -18.38639,55.15917 -6.12879,42.90158 -2.04294,32.686914 0,28.601055 30.64399,-85.803149 51.0733,-63.3309 36.7728,-42.90158 -16.34347,18.38638 -4.08587,8.17173 63.33091,-14.30053 85.80316,-4.08587 83.76023,8.17173 69.45969,10.21467 -6.1288,-16.34346 18.3864,44.94451 6.1288,44.94452 0,40.858649 -4.08587,28.601044 26.55812,-46.987443 24.51518,-42.90158 10.21468,-34.72985 4.08585,-36.77279 -4.08585,34.72987 18.38638,69.45969 4.08586,46.987435 2.04294,-4.085849 22.47226,-30.643995 20.42932,-44.944511 4.08587,-49.03038 0,18.3864 73.54556,24.51518 z"
           style="fill:#ffff00;stroke:#000000;stroke-width:1.10458982px;stroke-linecap:butt;stroke-linejoin:miter;stroke-opacity:1" />
        <g
           id="g4510"
           transform="matrix(1.1045898,0,0,1.1045898,178.66166,-361.9052)">
          <path
             inkscape:connector-curvature="0"
             id="path4512"
             d="m 688.01183,347.7049 14.79595,-20.34443 9.24748,-11.09697 5.54848,1.8495 1.84949,1.84949 3.69899,1.8495 0,5.54848 0,3.69899 3.69899,11.09696 0,18.49494 1.84949,9.24747 1.8495,9.24747 0,20.34444 0,7.39798 -9.24747,11.09696 -3.69899,5.54848 -9.24747,20.34444 -1.8495,5.54848 -3.69899,9.24747 -5.54848,20.34444 -3.69899,5.54848 -5.54848,1.8495 -3.69899,1.84949 -20.34443,-5.54848 7.39797,-44.38786 z"
             style="fill:#ffe6d5;stroke:#000000;stroke-width:1px;stroke-linecap:butt;stroke-linejoin:miter;stroke-opacity:1" />
          <path
             inkscape:connector-curvature="0"
             id="path4514"
             d="m 695.40981,355.10288 9.24747,-11.09696 9.24747,-5.54849 0,9.24747"
             style="fill:none;stroke:#000000;stroke-width:1px;stroke-linecap:butt;stroke-linejoin:miter;stroke-opacity:1" />
          <path
             inkscape:connector-curvature="0"
             id="path4516"
             d="m 697.2593,375.44732 7.39798,7.39797 -1.8495,12.94646 -3.69898,25.89292 -9.24747,12.94646 -14.79596,7.39798"
             style="fill:none;stroke:#000000;stroke-width:1px;stroke-linecap:butt;stroke-linejoin:miter;stroke-opacity:1" />
        </g>
        <g
           id="g4518"
           transform="matrix(-1.1045898,0,0,1.1045898,1022.5399,-351.56835)">
          <path
             style="fill:#ffe6d5;stroke:#000000;stroke-width:1px;stroke-linecap:butt;stroke-linejoin:miter;stroke-opacity:1"
             d="m 688.01183,347.7049 14.79595,-20.34443 9.24748,-11.09697 5.54848,1.8495 1.84949,1.84949 3.69899,1.8495 0,5.54848 0,3.69899 3.69899,11.09696 0,18.49494 1.84949,9.24747 1.8495,9.24747 0,20.34444 0,7.39798 -9.24747,11.09696 -3.69899,5.54848 -9.24747,20.34444 -1.8495,5.54848 -3.69899,9.24747 -5.54848,20.34444 -3.69899,5.54848 -5.54848,1.8495 -3.69899,1.84949 -20.34443,-5.54848 7.39797,-44.38786 z"
             id="path4520"
             inkscape:connector-curvature="0" />
          <path
             style="fill:none;stroke:#000000;stroke-width:1px;stroke-linecap:butt;stroke-linejoin:miter;stroke-opacity:1"
             d="m 695.40981,355.10288 9.24747,-11.09696 9.24747,-5.54849 0,9.24747"
             id="path4522"
             inkscape:connector-curvature="0" />
          <path
             style="fill:none;stroke:#000000;stroke-width:1px;stroke-linecap:butt;stroke-linejoin:miter;stroke-opacity:1"
             d="m 697.2593,375.44732 7.39798,7.39797 -1.8495,12.94646 -3.69898,25.89292 -9.24747,12.94646 -14.79596,7.39798"
             id="path4524"
             inkscape:connector-curvature="0" />
        </g>
        <g
           transform="matrix(1.1045898,0,0,1.1045898,117.45726,-631.81378)"
           id="g5848">
          <path
             transform="matrix(0.58392291,0,0,0.43881386,488.5373,419.87655)"
             d="m -459.7344,797.40033 c 0,2.2175 -1.34823,4.01515 -3.01136,4.01515 -1.66313,0 -3.01136,-1.79765 -3.01136,-4.01515 0,-2.21751 1.34823,-4.01515 3.01136,-4.01515 1.66313,0 3.01136,1.79764 3.01136,4.01515 z"
             sodipodi:ry="4.0151477"
             sodipodi:rx="3.0113606"
             sodipodi:cy="797.40033"
             sodipodi:cx="-462.74576"
             id="path5832"
             style="fill:#000000;fill-opacity:1;stroke:#000000;stroke-opacity:1"
             sodipodi:type="arc" />
          <path
             sodipodi:type="arc"
             style="fill:#000000;fill-opacity:1;stroke:#000000;stroke-opacity:1"
             id="path5834"
             sodipodi:cx="-462.74576"
             sodipodi:cy="797.40033"
             sodipodi:rx="3.0113606"
             sodipodi:ry="4.0151477"
             d="m -459.7344,797.40033 c 0,2.2175 -1.34823,4.01515 -3.01136,4.01515 -1.66313,0 -3.01136,-1.79765 -3.01136,-4.01515 0,-2.21751 1.34823,-4.01515 3.01136,-4.01515 1.66313,0 3.01136,1.79764 3.01136,4.01515 z"
             transform="matrix(0.58625693,0,0,0.43869645,515.7233,421.97774)" />
          <path
             sodipodi:type="arc"
             style="fill:#000000;fill-opacity:1;stroke:#000000;stroke-opacity:1"
             id="path5836"
             sodipodi:cx="-462.74576"
             sodipodi:cy="797.40033"
             sodipodi:rx="3.0113606"
             sodipodi:ry="4.0151477"
             d="m -459.7344,797.40033 c 0,2.2175 -1.34823,4.01515 -3.01136,4.01515 -1.66313,0 -3.01136,-1.79765 -3.01136,-4.01515 0,-2.21751 1.34823,-4.01515 3.01136,-4.01515 1.66313,0 3.01136,1.79764 3.01136,4.01515 z"
             transform="matrix(0.58392291,0,0,0.43881386,468.46156,383.74022)" />
          <path
             sodipodi:type="arc"
             style="fill:#000000;fill-opacity:1;stroke:#000000;stroke-opacity:1"
             id="path5838"
             sodipodi:cx="-462.74576"
             sodipodi:cy="797.40033"
             sodipodi:rx="3.0113606"
             sodipodi:ry="4.0151477"
             d="m -459.7344,797.40033 c 0,2.2175 -1.34823,4.01515 -3.01136,4.01515 -1.66313,0 -3.01136,-1.79765 -3.01136,-4.01515 0,-2.21751 1.34823,-4.01515 3.01136,-4.01515 1.66313,0 3.01136,1.79764 3.01136,4.01515 z"
             transform="matrix(0.58392291,0,0,0.43881386,470.46914,468.05832)" />
          <path
             transform="matrix(0.58392291,0,0,0.43881386,534.7115,492.14921)"
             d="m -459.7344,797.40033 c 0,2.2175 -1.34823,4.01515 -3.01136,4.01515 -1.66313,0 -3.01136,-1.79765 -3.01136,-4.01515 0,-2.21751 1.34823,-4.01515 3.01136,-4.01515 1.66313,0 3.01136,1.79764 3.01136,4.01515 z"
             sodipodi:ry="4.0151477"
             sodipodi:rx="3.0113606"
             sodipodi:cy="797.40033"
             sodipodi:cx="-462.74576"
             id="path5840"
             style="fill:#000000;fill-opacity:1;stroke:#000000;stroke-opacity:1"
             sodipodi:type="arc" />
          <path
             sodipodi:type="arc"
             style="fill:#000000;fill-opacity:1;stroke:#000000;stroke-opacity:1"
             id="path5842"
             sodipodi:cx="-462.74576"
             sodipodi:cy="797.40033"
             sodipodi:rx="3.0113606"
             sodipodi:ry="4.0151477"
             d="m -459.7344,797.40033 c 0,2.2175 -1.34823,4.01515 -3.01136,4.01515 -1.66313,0 -3.01136,-1.79765 -3.01136,-4.01515 0,-2.21751 1.34823,-4.01515 3.01136,-4.01515 1.66313,0 3.01136,1.79764 3.01136,4.01515 z"
             transform="matrix(0.58392291,0,0,0.43881386,500.58274,516.24009)" />
          <path
             transform="matrix(0.58392291,0,0,0.43881386,544.74937,456.01288)"
             d="m -459.7344,797.40033 c 0,2.2175 -1.34823,4.01515 -3.01136,4.01515 -1.66313,0 -3.01136,-1.79765 -3.01136,-4.01515 0,-2.21751 1.34823,-4.01515 3.01136,-4.01515 1.66313,0 3.01136,1.79764 3.01136,4.01515 z"
             sodipodi:ry="4.0151477"
             sodipodi:rx="3.0113606"
             sodipodi:cy="797.40033"
             sodipodi:cx="-462.74576"
             id="path5844"
             style="fill:#000000;fill-opacity:1;stroke:#000000;stroke-opacity:1"
             sodipodi:type="arc" />
          <path
             sodipodi:type="arc"
             style="fill:#000000;fill-opacity:1;stroke:#000000;stroke-opacity:1"
             id="path5846"
             sodipodi:cx="-462.74576"
             sodipodi:cy="797.40033"
             sodipodi:rx="3.0113606"
             sodipodi:ry="4.0151477"
             d="m -459.7344,797.40033 c 0,2.2175 -1.34823,4.01515 -3.01136,4.01515 -1.66313,0 -3.01136,-1.79765 -3.01136,-4.01515 0,-2.21751 1.34823,-4.01515 3.01136,-4.01515 1.66313,0 3.01136,1.79764 3.01136,4.01515 z"
             transform="matrix(0.58392291,0,0,0.43881386,506.60546,460.02803)" />
        </g>
        <g
           id="g5858"
           transform="matrix(-1.1045898,0,0,1.1045898,1077.2539,-623.10252)">
          <path
             sodipodi:type="arc"
             style="fill:#000000;fill-opacity:1;stroke:#000000;stroke-opacity:1"
             id="path5860"
             sodipodi:cx="-462.74576"
             sodipodi:cy="797.40033"
             sodipodi:rx="3.0113606"
             sodipodi:ry="4.0151477"
             d="m -459.7344,797.40033 c 0,2.2175 -1.34823,4.01515 -3.01136,4.01515 -1.66313,0 -3.01136,-1.79765 -3.01136,-4.01515 0,-2.21751 1.34823,-4.01515 3.01136,-4.01515 1.66313,0 3.01136,1.79764 3.01136,4.01515 z"
             transform="matrix(0.58392291,0,0,0.43881386,488.5373,419.87655)" />
          <path
             transform="matrix(0.58625693,0,0,0.43869645,515.7233,421.97774)"
             d="m -459.7344,797.40033 c 0,2.2175 -1.34823,4.01515 -3.01136,4.01515 -1.66313,0 -3.01136,-1.79765 -3.01136,-4.01515 0,-2.21751 1.34823,-4.01515 3.01136,-4.01515 1.66313,0 3.01136,1.79764 3.01136,4.01515 z"
             sodipodi:ry="4.0151477"
             sodipodi:rx="3.0113606"
             sodipodi:cy="797.40033"
             sodipodi:cx="-462.74576"
             id="path5862"
             style="fill:#000000;fill-opacity:1;stroke:#000000;stroke-opacity:1"
             sodipodi:type="arc" />
          <path
             transform="matrix(0.58392291,0,0,0.43881386,468.46156,383.74022)"
             d="m -459.7344,797.40033 c 0,2.2175 -1.34823,4.01515 -3.01136,4.01515 -1.66313,0 -3.01136,-1.79765 -3.01136,-4.01515 0,-2.21751 1.34823,-4.01515 3.01136,-4.01515 1.66313,0 3.01136,1.79764 3.01136,4.01515 z"
             sodipodi:ry="4.0151477"
             sodipodi:rx="3.0113606"
             sodipodi:cy="797.40033"
             sodipodi:cx="-462.74576"
             id="path5864"
             style="fill:#000000;fill-opacity:1;stroke:#000000;stroke-opacity:1"
             sodipodi:type="arc" />
          <path
             transform="matrix(0.58392291,0,0,0.43881386,470.46914,468.05832)"
             d="m -459.7344,797.40033 c 0,2.2175 -1.34823,4.01515 -3.01136,4.01515 -1.66313,0 -3.01136,-1.79765 -3.01136,-4.01515 0,-2.21751 1.34823,-4.01515 3.01136,-4.01515 1.66313,0 3.01136,1.79764 3.01136,4.01515 z"
             sodipodi:ry="4.0151477"
             sodipodi:rx="3.0113606"
             sodipodi:cy="797.40033"
             sodipodi:cx="-462.74576"
             id="path5866"
             style="fill:#000000;fill-opacity:1;stroke:#000000;stroke-opacity:1"
             sodipodi:type="arc" />
          <path
             sodipodi:type="arc"
             style="fill:#000000;fill-opacity:1;stroke:#000000;stroke-opacity:1"
             id="path5868"
             sodipodi:cx="-462.74576"
             sodipodi:cy="797.40033"
             sodipodi:rx="3.0113606"
             sodipodi:ry="4.0151477"
             d="m -459.7344,797.40033 c 0,2.2175 -1.34823,4.01515 -3.01136,4.01515 -1.66313,0 -3.01136,-1.79765 -3.01136,-4.01515 0,-2.21751 1.34823,-4.01515 3.01136,-4.01515 1.66313,0 3.01136,1.79764 3.01136,4.01515 z"
             transform="matrix(0.58392291,0,0,0.43881386,534.7115,492.14921)" />
          <path
             transform="matrix(0.58392291,0,0,0.43881386,500.58274,516.24009)"
             d="m -459.7344,797.40033 c 0,2.2175 -1.34823,4.01515 -3.01136,4.01515 -1.66313,0 -3.01136,-1.79765 -3.01136,-4.01515 0,-2.21751 1.34823,-4.01515 3.01136,-4.01515 1.66313,0 3.01136,1.79764 3.01136,4.01515 z"
             sodipodi:ry="4.0151477"
             sodipodi:rx="3.0113606"
             sodipodi:cy="797.40033"
             sodipodi:cx="-462.74576"
             id="path5870"
             style="fill:#000000;fill-opacity:1;stroke:#000000;stroke-opacity:1"
             sodipodi:type="arc" />
          <path
             sodipodi:type="arc"
             style="fill:#000000;fill-opacity:1;stroke:#000000;stroke-opacity:1"
             id="path5872"
             sodipodi:cx="-462.74576"
             sodipodi:cy="797.40033"
             sodipodi:rx="3.0113606"
             sodipodi:ry="4.0151477"
             d="m -459.7344,797.40033 c 0,2.2175 -1.34823,4.01515 -3.01136,4.01515 -1.66313,0 -3.01136,-1.79765 -3.01136,-4.01515 0,-2.21751 1.34823,-4.01515 3.01136,-4.01515 1.66313,0 3.01136,1.79764 3.01136,4.01515 z"
             transform="matrix(0.58392291,0,0,0.43881386,544.74937,456.01288)" />
          <path
             transform="matrix(0.58392291,0,0,0.43881386,506.60546,460.02803)"
             d="m -459.7344,797.40033 c 0,2.2175 -1.34823,4.01515 -3.01136,4.01515 -1.66313,0 -3.01136,-1.79765 -3.01136,-4.01515 0,-2.21751 1.34823,-4.01515 3.01136,-4.01515 1.66313,0 3.01136,1.79764 3.01136,4.01515 z"
             sodipodi:ry="4.0151477"
             sodipodi:rx="3.0113606"
             sodipodi:cy="797.40033"
             sodipodi:cx="-462.74576"
             id="path5874"
             style="fill:#000000;fill-opacity:1;stroke:#000000;stroke-opacity:1"
             sodipodi:type="arc" />
        </g>
      </g>
    </g>
  </g>
</svg>
