<?xml version="1.0" encoding="UTF-8" standalone="no"?>
<!-- Created with Inkscape (http://www.inkscape.org/) -->

<svg
   xmlns:dc="http://purl.org/dc/elements/1.1/"
   xmlns:cc="http://creativecommons.org/ns#"
   xmlns:rdf="http://www.w3.org/1999/02/22-rdf-syntax-ns#"
   xmlns:svg="http://www.w3.org/2000/svg"
   xmlns="http://www.w3.org/2000/svg"
   xmlns:sodipodi="http://sodipodi.sourceforge.net/DTD/sodipodi-0.dtd"
   xmlns:inkscape="http://www.inkscape.org/namespaces/inkscape"
   width="744.09448819"
   height="1052.3622047"
   id="svg2"
   version="1.1"
   inkscape:version="0.48.4 r9939"
   sodipodi:docname="drawing.svg">
  <defs
     id="defs4" />
  <sodipodi:namedview
     id="base"
     pagecolor="#ffffff"
     bordercolor="#666666"
     borderopacity="1.0"
     inkscape:pageopacity="0.0"
     inkscape:pageshadow="2"
     inkscape:zoom="0.54068838"
     inkscape:cx="145.03477"
     inkscape:cy="525.43286"
     inkscape:document-units="px"
     inkscape:current-layer="layer1"
     showgrid="false"
     inkscape:object-nodes="false"
     inkscape:object-paths="false"
     inkscape:snap-smooth-nodes="false"
     inkscape:snap-nodes="false"
     inkscape:snap-intersection-paths="false"
     inkscape:window-width="1311"
     inkscape:window-height="744"
     inkscape:window-x="55"
     inkscape:window-y="24"
     inkscape:window-maximized="1"
     inkscape:snap-page="false"
     inkscape:snap-global="false" />
  <metadata
     id="metadata7">
    <rdf:RDF>
      <cc:Work
         rdf:about="">
        <dc:format>image/svg+xml</dc:format>
        <dc:type
           rdf:resource="http://purl.org/dc/dcmitype/StillImage" />
        <dc:title />
      </cc:Work>
    </rdf:RDF>
  </metadata>
  <g
     inkscape:label="Layer 1"
     inkscape:groupmode="layer"
     id="layer1"
     style="display:inline">
    <path
       style="fill:#241c1c;fill-opacity:0"
       d="m 381.64982,149.4715 c -12.57143,0.14655 -48.40126,0.52849 -79.65625,0.875 l -56.84375,0.625 -34.59375,20.125 c -78.6595,45.72891 -114.20268,89.40485 -142.875,175.5 -13.64458,40.97097 -16.00146,63.68572 -15.9375,153.71875 l 0.0312,82.84375 8.75,-15 c 8.44057,-14.47908 15.92989,-20.28034 12.90625,-10 -10.39,35.32595 -18.91067,89.13417 -18.65625,117.875 l 0.1875,18.5625 9.53125,-27.78125 c 10.0026,-29.08226 20.72249,-50.78125 25.0625,-50.78125 1.40693,0 1.87929,3.52232 1.03125,7.84375 -0.84804,4.32143 -3.6856,25.40195 -6.28125,46.84375 -4.39499,36.30543 -4.37169,41.80431 0.0625,80 2.61882,22.5582 6.31671,48.55682 8.21875,57.78125 l 3.4375,16.78125 18.09375,-29.5 c 17.7732,-29.00565 18.1141,-29.97441 20.90625,-57.84375 1.5618,-15.58871 2.40169,-42.31439 1.875,-59.40625 -0.52653,-17.09188 -0.5299,-31.09575 0,-31.09375 0.52991,0.002 13.32845,11.53777 28.4375,25.625 15.10905,14.08723 27.96018,25.13359 28.53125,24.5625 0.57108,-0.57106 -2.75622,-8.55526 -7.375,-17.75 -15.48359,-30.82357 -37.10948,-90.76197 -42.125,-116.71875 -5.17097,-26.76122 -10.04684,-121.4465 -6.25,-121.4375 1.1948,0.003 9.12161,14.47768 17.625,32.15625 15.38388,31.98317 15.46181,32.07451 15.34375,19.28125 -0.31148,-33.75574 39.53753,-138.27592 64.1875,-168.375 7.79995,-9.52419 15.38965,-17.34375 16.875,-17.34375 1.48536,0 13.57925,7.40179 26.84375,16.4375 l 24.09375,16.4375 25.375,51.4375 c 13.94782,28.28572 28.5491,54.34688 32.4375,57.9375 l 7.0625,6.53125 15.09375,-20.8125 c 40.81183,-56.23824 62.14705,-80.80836 89.15625,-102.6875 15.22605,-12.33407 29.02468,-22.40625 30.65625,-22.40625 1.63158,0 9.57399,13.82589 17.65625,30.71875 23.39477,48.89767 33.16585,106.43356 28.28125,166.53125 -1.45212,17.8664 -2.27376,32.85124 -1.8125,33.3125 0.46125,0.46126 8.37653,-12.66151 17.59375,-29.15625 9.21723,-16.49474 17.91016,-29.96875 19.3125,-29.96875 1.40234,0 1.84183,4.79464 0.96875,10.6875 -0.87309,5.89286 -2.41179,21.02232 -3.40625,33.59375 -2.1438,27.10188 -20.71352,110.09696 -34.46875,154.03125 -5.37177,17.1574 -9.36035,32.48148 -8.84375,34.03125 0.51657,1.54977 8.51186,-8.30622 17.75,-21.90625 16.49674,-24.28583 23.7996,-31.02684 19.875,-18.3125 -1.0914,3.53571 -7.0642,20.58929 -13.28125,37.875 -19.49352,54.199 -21.41922,61.89326 -25.15625,100.25 l -3.65625,37.40625 15.21875,29.09375 c 8.36557,15.99677 16.08762,28.09083 17.15625,26.875 1.0686,-1.21582 9.34782,-33.06697 18.40625,-70.78125 9.05843,-37.71429 16.93534,-69.09523 17.53125,-69.75 2.43866,-2.67946 4.23083,3.15992 10.71875,35.09375 3.73954,18.40623 7.39423,34.05052 8.09375,34.75 0.69948,0.69952 7.36024,-27.51115 14.8125,-62.6875 12.47025,-58.8628 13.47736,-66.61252 12.65625,-97.125 -0.49069,-18.23423 -0.0296,-33.15925 1.03125,-33.15625 1.06077,0.003 6.14962,18.17285 11.3125,40.375 7.93503,34.12337 9.75086,39.10871 11.71875,32.15625 3.34689,-11.82428 4.04886,-75.66357 1.125,-102.5 -2.73717,-25.12297 -0.97782,-25.82004 8.6875,-3.4375 l 6.4375,14.84375 0.0937,-73.40625 c 0.1282,-82.02034 -3.77411,-118.39983 -20.15625,-188 -7.65127,-32.50683 -12.3963,-45.23861 -30.2187,-80.90625 -18.73025,-37.48454 -23.79728,-45.09571 -44.40625,-66.5625 -18.05025,-18.80156 -29.49051,-27.72256 -51.03125,-39.8125 l -27.7812,-15.59375 -55.28125,-4.84375 c -30.40637,-2.66452 -65.58482,-4.70905 -78.15625,-4.5625 z"
       id="path3081"
       inkscape:connector-curvature="0" />
    <path
       style="fill:#241c1c;fill-opacity:0"
       d="m 381.64982,149.4715 c -12.57143,0.14655 -48.40126,0.52849 -79.65625,0.875 l -56.84375,0.625 -34.59375,20.125 c -78.6595,45.72891 -114.20268,89.40485 -142.875,175.5 -13.64458,40.97097 -16.00146,63.68572 -15.9375,153.71875 l 0.0312,82.84375 8.75,-15 c 8.44057,-14.47908 15.92989,-20.28034 12.90625,-10 -10.39,35.32595 -18.91067,89.13417 -18.65625,117.875 l 0.1875,18.5625 9.53125,-27.78125 c 10.0026,-29.08226 20.72249,-50.78125 25.0625,-50.78125 1.40693,0 1.87929,3.52232 1.03125,7.84375 -0.84804,4.32143 -3.6856,25.40195 -6.28125,46.84375 -4.39499,36.30543 -4.37169,41.80431 0.0625,80 2.61882,22.5582 6.31671,48.55682 8.21875,57.78125 l 3.4375,16.78125 18.09375,-29.5 c 17.7732,-29.00565 18.1141,-29.97441 20.90625,-57.84375 1.5618,-15.58871 2.40169,-42.31439 1.875,-59.40625 -0.52653,-17.09188 -0.5299,-31.09575 0,-31.09375 0.52991,0.002 13.32845,11.53777 28.4375,25.625 15.10905,14.08723 27.96018,25.13359 28.53125,24.5625 0.57108,-0.57106 -2.75622,-8.55526 -7.375,-17.75 -15.48359,-30.82357 -37.10948,-90.76197 -42.125,-116.71875 -5.17097,-26.76122 -10.04684,-121.4465 -6.25,-121.4375 1.1948,0.003 9.12161,14.47768 17.625,32.15625 15.38388,31.98317 15.46181,32.07451 15.34375,19.28125 -0.31148,-33.75574 39.53753,-138.27592 64.1875,-168.375 7.79995,-9.52419 15.38965,-17.34375 16.875,-17.34375 1.48536,0 13.57925,7.40179 26.84375,16.4375 l 24.09375,16.4375 25.375,51.4375 c 13.94782,28.28572 28.5491,54.34688 32.4375,57.9375 l 7.0625,6.53125 15.09375,-20.8125 c 40.81183,-56.23824 62.14705,-80.80836 89.15625,-102.6875 15.22605,-12.33407 29.02468,-22.40625 30.65625,-22.40625 1.63158,0 9.57399,13.82589 17.65625,30.71875 23.39477,48.89767 33.16585,106.43356 28.28125,166.53125 -1.45212,17.8664 -2.27376,32.85124 -1.8125,33.3125 0.46125,0.46126 8.37653,-12.66151 17.59375,-29.15625 9.21723,-16.49474 17.91016,-29.96875 19.3125,-29.96875 1.40234,0 1.84183,4.79464 0.96875,10.6875 -0.87309,5.89286 -2.41179,21.02232 -3.40625,33.59375 -2.1438,27.10188 -20.71352,110.09696 -34.46875,154.03125 -5.37177,17.1574 -9.36035,32.48148 -8.84375,34.03125 0.51657,1.54977 8.51186,-8.30622 17.75,-21.90625 16.49674,-24.28583 23.7996,-31.02684 19.875,-18.3125 -1.0914,3.53571 -7.0642,20.58929 -13.28125,37.875 -19.49352,54.199 -21.41922,61.89326 -25.15625,100.25 l -3.65625,37.40625 15.21875,29.09375 c 8.36557,15.99677 16.08762,28.09083 17.15625,26.875 1.0686,-1.21582 9.34782,-33.06697 18.40625,-70.78125 9.05843,-37.71429 16.93534,-69.09523 17.53125,-69.75 2.43866,-2.67946 4.23083,3.15992 10.71875,35.09375 3.73954,18.40623 7.39423,34.05052 8.09375,34.75 0.69948,0.69952 7.36024,-27.51115 14.8125,-62.6875 12.47025,-58.8628 13.47736,-66.61252 12.65625,-97.125 -0.49069,-18.23423 -0.0296,-33.15925 1.03125,-33.15625 1.06077,0.003 6.14962,18.17285 11.3125,40.375 7.93503,34.12337 9.75086,39.10871 11.71875,32.15625 3.34689,-11.82428 4.04886,-75.66357 1.125,-102.5 -2.73717,-25.12297 -0.97782,-25.82004 8.6875,-3.4375 l 6.4375,14.84375 0.0937,-73.40625 c 0.1282,-82.02034 -3.77411,-118.39983 -20.15625,-188 -7.65127,-32.50683 -12.3963,-45.23861 -30.2187,-80.90625 -18.73025,-37.48454 -23.79728,-45.09571 -44.40625,-66.5625 -18.05025,-18.80156 -29.49051,-27.72256 -51.03125,-39.8125 l -27.7812,-15.59375 -55.28125,-4.84375 c -30.40637,-2.66452 -65.58482,-4.70905 -78.15625,-4.5625 z"
       id="path3083"
       inkscape:connector-curvature="0" />
    <path
       sodipodi:type="arc"
       style="opacity:0;fill:#fff6d5;fill-opacity:0"
       id="path3123"
       sodipodi:cx="278.51462"
       sodipodi:cy="448.62006"
       sodipodi:rx="88.137535"
       sodipodi:ry="80.205154"
       d="m 366.65215,448.62006 a 88.137535,80.205154 0 1 1 -176.27507,0 88.137535,80.205154 0 1 1 176.27507,0 z"
       transform="translate(-22.19393,81.377744)" />
    <path
       style="fill:#1c1f24;fill-opacity:1;stroke:#000000;stroke-opacity:1"
       d="m 532.65428,57.337534 -24.0625,16.625 -7.4375,13.8125 c -3.93428,-1.193491 -8.03475,-2.321698 -12.28125,-3.34375 l -8,-16 -11.125,0 c 5.23938,5.987864 9.1977,10.569422 12.53125,14.5 -19.22621,-4.069293 -41.12706,-6.375 -64.375,-6.375 -13.81081,0 -27.13527,0.830595 -39.71875,2.34375 -10.43464,-1.061729 -21.34324,-1.625 -32.59375,-1.625 -60.5567,0 -111.65466,16.354366 -127.78125,38.718746 l -35.65625,20.09375 -42.84375,36.25 -31.4375,39 -22.875002,50.1875 -17.125,50.21875 -8.5625,50.15625 0,89.1875 0,75.3125 22.84375,-36.28125 -11.4375,44.625 -8.5625,64.125 0,44.59375 22.84375,-66.90625 14.3125,-25.0625 -11.4375,89.15625 8.5625,78.0625 8.562502,41.84375 39.46875,-62.3125 -5.15625,56.71875 8.5625,44.625 14.28125,27.875 6,-37.5625 11.15625,34.78125 17.125,30.625 -2.84375,-41.78125 3.0625,-7.46875 22.65625,68.78125 19.34375,-28.1875 17.78125,61.625 26.375,-121.8125 -7.84375,-5.46875 244.34375,-42.75 -39.0625,32.25 -4.75,3.90625 12.375,119.9375 17.4375,-86.625 28.28125,42.03125 7.875,-70.4375 34.96875,64.875 37.15625,-147.75 17.125,83.625 31.4375,-142.15625 -2.84375,-61.34375 22.84375,94.78125 8.5625,-80.84375 -8.5625,-64.09375 17.15625,39 2.84375,-139.40625 -11.4375,-80.8125 -20,-83.65625 -40,-78.03125 -48.5625,-50.1875 -31.65625,-16.96875 c -7.9838,-10.87393 -24.03797,-20.368081 -45.375,-27.343746 l 27.53125,-31.65625 z"
       id="path3838"
       inkscape:connector-curvature="0" />
    <g
       transform="translate(-7.0963901,8.0875252)"
       id="g3464"
       style="fill:#ffe6d5">
      <path
         style="fill:#ffe6d5;stroke:#000000;stroke-width:1px;stroke-linecap:butt;stroke-linejoin:miter;stroke-opacity:1"
         d="m 165.71428,578.07647 2.85714,45.71428 31.42857,74.28572 40,42.85714 122.85714,88.57143 31.42858,8.57143 31.42857,-8.57143 111.42858,-94.28572 31.42857,-42.85714 22.85714,-60 11.42857,-37.14286 -48.57142,71.42857 L 580,583.79075 l 14.28572,-57.14286 11.42857,-51.42857 5.71428,-65.71428 -40,71.42857 5.71429,-77.14286 -2.85714,-40 -11.42858,-60 -31.42857,-65.71428 -57.14285,45.71428 -31.42859,40 -34.28571,45.71429 -11.42857,17.14285 -17.14286,-14.28571 -42.85714,-88.57143 -8.57143,-14.28571 -48.57143,-34.28572 -28.57143,34.28572 -22.85714,54.28571 -17.14286,42.85714 -11.42857,45.71429 2.85714,34.28571 -37.14285,-77.14285 2.85714,85.71428 11.42857,62.85715 25.71429,65.71428 25.71428,51.42857 11.42857,14.28572 z"
         id="path3466"
         inkscape:connector-curvature="0" />
    </g>
    <path
       style="fill:#1c2224;stroke:#000000;stroke-width:1px;stroke-linecap:butt;stroke-linejoin:miter;stroke-opacity:1"
       d="m 410.5877,519.70786 c 5.54849,-12.94646 16.64545,-16.64544 16.64545,-16.64544 l 20.34444,-7.39798 20.34443,-1.84949 20.34444,1.84949 11.09696,1.84949 20.34444,3.69899 9.24747,0 -7.39798,18.49494 -1.84949,-12.94646 -16.64545,-3.69898 -14.79595,-3.69899 -16.64545,-3.69899 -22.19393,0 -33.29089,11.09696 z"
       id="path3468"
       inkscape:connector-curvature="0" />
    <path
       style="fill:#1c2224;stroke:#000000;stroke-width:1px;stroke-linecap:butt;stroke-linejoin:miter;stroke-opacity:1"
       d="m 423.53416,538.20281 68.43128,12.94646 27.74241,-20.34444 -29.5919,16.64545 3.69899,1.84949 z"
       id="path3470"
       inkscape:connector-curvature="0" />
    <path
       inkscape:connector-curvature="0"
       id="path3472"
       d="m 338.45743,516.00887 c -5.54849,-12.94646 -16.64545,-16.64544 -16.64545,-16.64544 l -20.34444,-7.39798 -20.34443,-1.84949 -20.34444,1.84949 -11.09696,1.84949 -20.34444,3.69899 -9.24747,0 7.39798,18.49494 1.84949,-12.94646 16.64545,-3.69898 14.79595,-3.69899 16.64545,-3.69899 22.19393,0 33.29089,11.09696 z"
       style="fill:#1c2224;stroke:#000000;stroke-width:1px;stroke-linecap:butt;stroke-linejoin:miter;stroke-opacity:1" />
    <path
       inkscape:connector-curvature="0"
       id="path3474"
       d="m 323.66147,534.50382 -68.43128,12.94646 -27.74241,-20.34444 29.5919,16.64545 -3.69899,1.84949 z"
       style="fill:#1c2224;stroke:#000000;stroke-width:1px;stroke-linecap:butt;stroke-linejoin:miter;stroke-opacity:1" />
    <path
       sodipodi:type="arc"
       style="fill:#1c2224;fill-opacity:1;stroke:#000000;stroke-opacity:1"
       id="path3476"
       sodipodi:cx="786.03503"
       sodipodi:cy="463.29828"
       sodipodi:rx="20.344437"
       sodipodi:ry="19.419689"
       d="m 806.37947,463.29828 a 20.344437,19.419689 0 1 1 -40.68887,0 20.344437,19.419689 0 1 1 40.68887,0 z"
       transform="matrix(1.266607,0,0,1.2316836,-523.97651,-49.079545)" />
    <path
       inkscape:connector-curvature="0"
       id="path3480"
       d="m 408.73821,521.55736 c 5.54849,-12.94646 16.64545,-16.64544 16.64545,-16.64544 l 20.34444,-7.39798 20.34443,-1.84949 20.34444,1.84949 11.09696,1.84949 20.34444,3.69899 9.24747,0 -7.39798,18.49494 -1.84949,-12.94646 -16.64545,-3.69898 -14.79595,-3.69899 -16.64545,-3.69899 -22.19393,0 -33.29089,11.09696 z"
       style="fill:#1c2224;stroke:#000000;stroke-width:1px;stroke-linecap:butt;stroke-linejoin:miter;stroke-opacity:1" />
    <path
       style="fill:#1c2224;stroke:#000000;stroke-width:1px;stroke-linecap:butt;stroke-linejoin:miter;stroke-opacity:1"
       d="m 408.73821,521.55736 c 5.54849,-12.94646 16.64545,-16.64544 16.64545,-16.64544 l 20.34444,-7.39798 20.34443,-1.84949 20.34444,1.84949 11.09696,1.84949 20.34444,3.69899 9.24747,0 -7.39798,18.49494 -1.84949,-12.94646 -16.64545,-3.69898 -14.79595,-3.69899 -16.64545,-3.69899 -22.19393,0 -33.29089,11.09696 z"
       id="path3482"
       inkscape:connector-curvature="0" />
    <path
       style="fill:#1c2224;stroke:#000000;stroke-width:1px;stroke-linecap:butt;stroke-linejoin:miter;stroke-opacity:1"
       d="m 340.30692,517.85836 c -5.54849,-12.94646 -16.64545,-16.64544 -16.64545,-16.64544 l -20.34444,-7.39798 -20.34443,-1.84949 -20.34444,1.84949 -11.09696,1.84949 -20.34444,3.69899 -9.24747,0 7.39798,18.49494 1.84949,-12.94646 16.64545,-3.69898 14.79595,-3.69899 16.64545,-3.69899 22.19393,0 33.29089,11.09696 z"
       id="path3484"
       inkscape:connector-curvature="0" />
    <path
       transform="matrix(1.266607,0,0,1.2316836,-714.47444,-56.477525)"
       d="m 806.37947,463.29828 a 20.344437,19.419689 0 1 1 -40.68887,0 20.344437,19.419689 0 1 1 40.68887,0 z"
       sodipodi:ry="19.419689"
       sodipodi:rx="20.344437"
       sodipodi:cy="463.29828"
       sodipodi:cx="786.03503"
       id="path3486"
       style="fill:#1c2224;fill-opacity:1;stroke:#000000;stroke-opacity:1"
       sodipodi:type="arc" />
    <path
       inkscape:connector-curvature="0"
       id="path3488"
       d="m 340.30692,517.85836 c -5.54849,-12.94646 -16.64545,-16.64544 -16.64545,-16.64544 l -20.34444,-7.39798 -20.34443,-1.84949 -20.34444,1.84949 -11.09696,1.84949 -20.34444,3.69899 -9.24747,0 7.39798,18.49494 1.84949,-12.94646 16.64545,-3.69898 14.79595,-3.69899 16.64545,-3.69899 22.19393,0 33.29089,11.09696 z"
       style="fill:#1c2224;stroke:#000000;stroke-width:1px;stroke-linecap:butt;stroke-linejoin:miter;stroke-opacity:1" />
    <path
       sodipodi:type="arc"
       style="fill:#dbe2e3;fill-opacity:1;stroke:#000000;stroke-opacity:1"
       id="path3496"
       sodipodi:cx="810.07843"
       sodipodi:cy="577.96692"
       sodipodi:rx="5.5484824"
       sodipodi:ry="4.6237354"
       d="m 815.62691,577.96692 a 5.5484824,4.6237354 0 1 1 -11.09696,0 5.5484824,4.6237354 0 1 1 11.09696,0 z"
       transform="matrix(0.84047949,0,0,1.0085754,-199.0611,-64.140115)" />
    <path
       sodipodi:type="arc"
       style="fill:#374548;fill-opacity:1;stroke:#000000;stroke-opacity:1"
       id="path3498"
       sodipodi:cx="809.15369"
       sodipodi:cy="556.69775"
       sodipodi:rx="8.3227234"
       sodipodi:ry="9.2474709"
       d="m 817.47641,556.69775 a 8.3227234,9.2474709 0 1 1 -16.64545,0 8.3227234,9.2474709 0 1 1 16.64545,0 z"
       transform="matrix(1.1051128,0,0,1.0946015,-424.43459,-83.181115)" />
    <path
       transform="matrix(1.1080367,0,0,0.99723298,-615.44884,-35.449495)"
       d="m 817.47641,556.69775 a 8.3227234,9.2474709 0 1 1 -16.64545,0 8.3227234,9.2474709 0 1 1 16.64545,0 z"
       sodipodi:ry="9.2474709"
       sodipodi:rx="8.3227234"
       sodipodi:cy="556.69775"
       sodipodi:cx="809.15369"
       id="path3500"
       style="fill:#374548;fill-opacity:1;stroke:#000000;stroke-opacity:1"
       sodipodi:type="arc" />
    <path
       transform="matrix(0.84047951,0,0,1.0085754,-387.70951,-71.538095)"
       d="m 815.62691,577.96692 a 5.5484824,4.6237354 0 1 1 -11.09696,0 5.5484824,4.6237354 0 1 1 11.09696,0 z"
       sodipodi:ry="4.6237354"
       sodipodi:rx="5.5484824"
       sodipodi:cy="577.96692"
       sodipodi:cx="810.07843"
       id="path3502"
       style="fill:#dbe2e3;fill-opacity:1;stroke:#000000;stroke-opacity:1"
       sodipodi:type="arc" />
    <path
       style="fill:#1c2224;stroke:#000000;stroke-width:1.27786791px;stroke-linecap:butt;stroke-linejoin:miter;stroke-opacity:1"
       d="m 399.62966,479.86435 c 10.13964,5.50879 14.19549,8.26318 14.19549,8.26318 l 14.19548,-2.75439 24.3351,-11.01758 22.30717,-13.77197 24.33511,-11.01758 26.36302,0 18.25132,0 -8.1117,13.77197 -28.39096,-2.75439 -20.27924,2.75439 -24.3351,11.01758 -28.39096,13.77197 z"
       id="path3506"
       inkscape:connector-curvature="0" />
    <path
       inkscape:connector-curvature="0"
       id="path3587"
       d="m 351.26494,479.86436 c -10.13964,5.50879 -14.19549,8.26318 -14.19549,8.26318 l -14.19548,-2.75439 -24.3351,-11.01758 -22.30717,-13.77197 -24.33511,-11.01758 -26.36302,0 -18.25132,0 8.1117,13.77197 28.39096,-2.75439 20.27924,2.75439 24.3351,11.01758 28.39096,13.77197 z"
       style="fill:#1c2224;stroke:#000000;stroke-width:1.27786791px;stroke-linecap:butt;stroke-linejoin:miter;stroke-opacity:1" />
    <path
       sodipodi:type="arc"
       style="fill:#241c1c;fill-opacity:1;stroke:#000000;stroke-opacity:1"
       id="path3613"
       sodipodi:cx="-108.19541"
       sodipodi:cy="581.66589"
       sodipodi:rx="2.7742412"
       sodipodi:ry="2.7742412"
       d="m -105.42117,581.66589 a 2.7742412,2.7742412 0 1 1 -5.54848,0 2.7742412,2.7742412 0 1 1 5.54848,0 z"
       transform="matrix(1.2331234,0,0,-0.40424808,525.08608,892.18477)" />
    <path
       d="m -105.42117,581.66589 a 2.7742412,2.7742412 0 1 1 -5.54848,0 2.7742412,2.7742412 0 1 1 5.54848,0 z"
       sodipodi:ry="2.7742412"
       sodipodi:rx="2.7742412"
       sodipodi:cy="581.66589"
       sodipodi:cx="-108.19541"
       id="path3615"
       style="fill:#241c1c;fill-opacity:1;stroke:#000000;stroke-opacity:1"
       sodipodi:type="arc"
       transform="matrix(1.2331234,0,0,-0.40424807,501.19315,892.03423)" />
    <path
       style="fill:#241f1c;stroke:#000000;stroke-width:1px;stroke-linecap:butt;stroke-linejoin:miter;stroke-opacity:1"
       d="m 349.55439,702.80779 25.89292,0 16.64545,0 24.04342,-7.39797 11.09697,-5.54849 0,5.54849 -18.49494,7.39797 -14.79596,3.69899 -16.64545,0 z"
       id="path3617"
       inkscape:connector-curvature="0" />
    <path
       style="fill:none;stroke:#000000;stroke-width:1px;stroke-linecap:butt;stroke-linejoin:miter;stroke-opacity:1"
       d="m 360.65137,571.4937 c -9.24747,66.58179 -9.24747,66.58179 -9.24747,66.58179 z"
       id="path3619"
       inkscape:connector-curvature="0" />
  </g>
</svg>
