<?xml version="1.0" encoding="UTF-8" standalone="no"?>
<!-- Created with Inkscape (http://www.inkscape.org/) -->

<svg
   xmlns:dc="http://purl.org/dc/elements/1.1/"
   xmlns:cc="http://creativecommons.org/ns#"
   xmlns:rdf="http://www.w3.org/1999/02/22-rdf-syntax-ns#"
   xmlns:svg="http://www.w3.org/2000/svg"
   xmlns="http://www.w3.org/2000/svg"
   xmlns:sodipodi="http://sodipodi.sourceforge.net/DTD/sodipodi-0.dtd"
   xmlns:inkscape="http://www.inkscape.org/namespaces/inkscape"
   width="800"
   height="768"
   id="svg2"
   version="1.1"
   inkscape:version="0.48.4 r9939"
   sodipodi:docname="8.svg">
  <defs
     id="defs4" />
  <sodipodi:namedview
     id="base"
     pagecolor="#ffffff"
     bordercolor="#666666"
     borderopacity="1.0"
     inkscape:pageopacity="0.0"
     inkscape:pageshadow="2"
     inkscape:zoom="0.77734374"
     inkscape:cx="521.44063"
     inkscape:cy="384.00011"
     inkscape:document-units="px"
     inkscape:current-layer="layer1"
     showgrid="false"
     inkscape:window-width="1311"
     inkscape:window-height="744"
     inkscape:window-x="55"
     inkscape:window-y="24"
     inkscape:window-maximized="1"
     showborder="false"
     inkscape:showpageshadow="false"
     fit-margin-top="0"
     fit-margin-left="0"
     fit-margin-right="0"
     fit-margin-bottom="0" />
  <metadata
     id="metadata7">
    <rdf:RDF>
      <cc:Work
         rdf:about="">
        <dc:format>image/svg+xml</dc:format>
        <dc:type
           rdf:resource="http://purl.org/dc/dcmitype/StillImage" />
        <dc:title />
      </cc:Work>
    </rdf:RDF>
  </metadata>
  <g
     inkscape:label="Layer 1"
     inkscape:groupmode="layer"
     id="layer1"
     transform="translate(1237.7403,-567.71932)">
    <rect
       style="color:#000000;fill:#1a1a1a;fill-opacity:1;fill-rule:evenodd;stroke:#000000;stroke-width:0.36238369px;stroke-linecap:butt;stroke-linejoin:miter;stroke-miterlimit:4;stroke-opacity:1;stroke-dasharray:none;stroke-dashoffset:0;marker:none;visibility:visible;display:inline;overflow:visible;enable-background:accumulate"
       id="rect4425"
       width="799.63763"
       height="767.63763"
       x="-1237.5591"
       y="567.90051"
       ry="0" />
    <g
       id="g4429"
       transform="matrix(0.91045886,0,0,0.91045886,-324.2745,84.179628)">
      <g
         transform="matrix(0.45873824,0,0,0.45873824,-618.68548,713.22913)"
         id="g4396">
        <path
           inkscape:connector-curvature="0"
           style="fill:#4d4d4d;fill-opacity:1;fill-rule:evenodd;stroke:#000000;stroke-width:0;stroke-miterlimit:4;stroke-opacity:1;stroke-dasharray:none"
           d="m 125.5,-274.9375 c -50.083347,0.45412 -92.56954,26.43027 -100.84375,65.0625 -2.03536,9.50309 -1.85812,19.0282 0.28125,28.25 1.5344,9.83913 6.09511,21.24539 3.84375,30.28125 -1.25237,5.02641 -5.20037,9.37356 -8.90625,13.65625 -0.009,0.0101 -0.02225,0.0209 -0.03125,0.0312 -27.2647797,19.77209 -44.19072,55.251183 -38.96875,85.15625 2.637538,15.10462 10.4825695,26.275421 21.375,32.5625 -49.087325,47.630129 -72.840028,96.684881 -55.03125,122.59375 23.686658,34.46023 111.918477,14.92127 197.09375,-43.625 85.17527,-58.54626637 135.03041,-133.946024 111.34375,-168.40625 -5.33482,-7.7613 -13.95032,-12.76347 -25.0625,-15.21875 -1.96977,-2.10391 -4.17215,-4.12261 -6.59375,-6.0625 12.0547,-10.45627 20.49248,-23.59286 23.71875,-38.65625 9.80648,-45.78634 -32.1794,-91.98862 -93.78125,-103.1875 -9.6253,-1.74983 -19.1628,-2.5216 -28.4375,-2.4375 z"
           id="path3755" />
        <path
           inkscape:connector-curvature="0"
           style="fill:#a05a2c;stroke:#000000;stroke-width:0;stroke-linecap:butt;stroke-linejoin:miter;stroke-miterlimit:4;stroke-opacity:1;stroke-dasharray:none"
           d="m 100.65625,-214.15625 c -8.646583,14.85546 -13.875,34.37698 -13.875,55.78125 0,30.73417 10.809967,57.58467 26.96875,72.28125 l 0,50.5 c -28.761853,2.89941 -72.13652,10.95676 -82.28125,33.4375 -4.99659,5.59269 -8.19106,13.01235 -11.625,19.90625 -3.54012,7.10705 -6.408,14.66754 -8.65625,22.375 -18.8404399,64.58881 -39.98817,188.72781 -45.375,221.15625 L -24.5,244.53125 -159.0625,498.5 -198.25,548.09375 c 0,0 -5.73281,17.54671 -1.78125,24.84375 4.50749,8.32366 24.8125,13.78125 24.8125,13.78125 l 19.28125,0 -20.46875,-23.28125 7.28125,-14.75 6.5,-9.8125 8.28125,32.5 18.125,-65.03125 L 0.09375,285.125 6.78125,255.5625 50.4375,72.96875 C 68.8658,157.92837 125.75,279 125.75,279 l 19.8125,1.09375 23.78125,0 c 0,0 45.77367,-111.55162 60.5,-188.65625 l 22.46875,180.09375 -0.59375,-0.0312 0.96875,3.1875 0.3125,2.46875 0.4375,-0.0312 43.71875,142.9375 L 340,422.9375 290.34375,275.0625 291.40625,275 c 0,0 -5.14931,-151.05883 -17.28125,-228.28125 -1.25242,-7.97193 -3.10468,-15.8998 -5.71875,-23.46875 -3.29107,-9.52913 -6.03863,-20.01351 -12.375,-27.46875 -8.74397,-24.22897 -54.89636,-30.85004 -86.28125,-32.5625 L 167.875,-83.875 c 17.55273,-14.11386 29.53125,-42.19125 29.53125,-74.5 0,-1.95479 -0.008,-3.89099 -0.0937,-5.8125 -1.59806,-2.61436 -3.21203,-5.2703 -5.09375,-7.34375 -6.16198,-6.78981 -11.97129,-14.17717 -19,-19.6875 -7.8447,-6.15003 -16.48833,-11.23098 -25.46875,-14.625 -10.18311,-3.84855 -21.07452,-4.20127 -31.625,-6.28125 -5.08695,-1.00287 -10.30052,-1.37011 -15.46875,-2.03125 z"
           id="path4325" />
        <path
           sodipodi:nodetypes="sscccss"
           inkscape:connector-curvature="0"
           id="path4294"
           d="m 151.44711,301.20537 c -159.3739991,0 -288.58997,155.61861 -288.58997,387.67217 0,45.15936 4.89779,88.62386 13.95398,129.39261 113.9942378,-47.48021 210.671946,-139.07992 272.0196,-290.42477 60.95694,157.47496 159.61809,252.30375 275.96494,296.03856 9.87105,-42.37799 15.19988,-87.77152 15.19988,-135.0064 0,-232.05356 -129.17445,-387.67217 -288.54843,-387.67217 z"
           style="fill:#005544;fill-opacity:1;fill-rule:evenodd;stroke:#000000;stroke-width:0;stroke-miterlimit:4;stroke-opacity:1;stroke-dasharray:none" />
        <path
           sodipodi:nodetypes="accaaccccaaaccca"
           inkscape:connector-curvature="0"
           id="path3893"
           d="m 30.044126,469.07417 c -21.60836,32.62943 11.77438,120.41342 11.77438,120.41342 l 61.933414,175.10582 c 0,0 -10.980414,83.36929 -10.340874,125.25979 0.44213,28.95953 4.32707,57.89241 9.788934,86.33562 11.73393,61.10578 49.16601,180.07538 49.16601,180.07538 l -5.10557,60.9875 -0.47791,40.4885 17.22732,56.3193 c 0,0 15.79786,-26.1226 20.32891,-40.5468 3.54375,-11.2813 5.05239,-23.2826 5.09029,-35.1073 0.0577,-18.0092 -3.39757,-35.9607 -7.40968,-53.5174 -2.06588,-9.0402 -8.53299,-26.4787 -8.53299,-26.4787 l 0.47789,-40.4886 -23.26954,-676.36808 c 0,0 -96.466664,-8.99671 -120.650584,27.52155 z"
           style="fill:#7d4421;fill-opacity:1;stroke:#000000;stroke-width:0.33527288;stroke-linecap:butt;stroke-linejoin:miter;stroke-miterlimit:4;stroke-opacity:1;stroke-dasharray:none" />
        <path
           inkscape:connector-curvature="0"
           id="path3930"
           d="m 158.28793,1257.0814 -2.04074,-97.4812 -19.04921,3.1294 -2.23536,-13.6067 38.09844,-6.2589 1.78828,10.8853 -18.15508,8.5721 z"
           style="fill:#2b1100;stroke:#000000;stroke-width:1.67636442px;stroke-linecap:butt;stroke-linejoin:miter;stroke-opacity:1" />
        <path
           style="fill:#a05a2c;stroke:#000000;stroke-width:0;stroke-linecap:butt;stroke-linejoin:miter;stroke-miterlimit:4;stroke-opacity:1;stroke-dasharray:none"
           d="m 273.74629,434.02139 c 21.60835,32.62943 -11.77438,120.41342 -11.77438,120.41342 l -61.93342,158.34218 c 0,0 12.69523,76.54363 13.6936,115.2016 0.8314,32.19206 -1.4418,64.5806 -6.4362,96.3938 -10.48866,66.81055 -49.166,196.83901 -49.166,196.83901 0,0 4.83316,40.589 5.10556,60.9875 0.22536,16.8746 1.06126,34.136 -2.87481,50.5467 -5.92135,24.688 -30.63823,69.7303 -30.63823,69.7303 l -18.77596,-57.4477 c 0,0 -0.93228,-21.1252 0.0622,-31.6174 1.8205,-19.2071 10.76241,-56.8702 10.76241,-56.8702 l 8.533,-33.1841 -0.47792,-40.4886 23.26955,-676.36805 c 0,0 96.46666,-8.99672 120.65058,27.52154 z"
           id="path3891"
           inkscape:connector-curvature="0"
           sodipodi:nodetypes="cccaacaaccaccccac" />
        <g
           id="g4304"
           transform="translate(2,0)">
          <path
             sodipodi:nodetypes="ccaacc"
             style="fill:#2b1100;stroke:#000000;stroke-width:1.67636442px;stroke-linecap:butt;stroke-linejoin:miter;stroke-opacity:1"
             d="m 134.72914,1249.7727 57.59469,-6.6671 c 0,0 0.33043,24.1701 -2.32034,35.847 -3.16682,13.9502 -1.81708,37.888 -15.9904,39.8249 -12.48821,1.7067 -22.98759,-30.023 -22.98759,-30.023 z"
             id="path3928"
             inkscape:connector-curvature="0" />
          <path
             inkscape:connector-curvature="0"
             id="path3908"
             d="m 106.47761,1230.4764 57.91368,2.7577 -8.10081,34.9967 c 0,0 -7.93504,37.0924 -22.23493,36.706 -12.59968,-0.3405 -17.81647,-33.3525 -17.81647,-33.3525 z"
             style="fill:#2b1100;stroke:#000000;stroke-width:1.67636442px;stroke-linecap:butt;stroke-linejoin:miter;stroke-opacity:1"
             sodipodi:nodetypes="cccacc" />
          <path
             inkscape:connector-curvature="0"
             id="path3910"
             d="m 128.53997,1241.5075 13.78897,-96.5227 -19.30456,0 0,-13.7891 38.60912,0 0,11.0313 -19.30456,5.5156 z"
             style="fill:#2b1100;stroke:#000000;stroke-width:1.67636442px;stroke-linecap:butt;stroke-linejoin:miter;stroke-opacity:1" />
        </g>
        <g
           id="g4011"
           transform="matrix(1.9158326,0,0,2.1744037,42.698139,-1707.4273)">
          <g
             id="g4015"
             transform="matrix(0.24228208,0,0,0.28499036,101.33143,504.6064)">
            <path
               sodipodi:nodetypes="sscscsscs"
               inkscape:connector-curvature="0"
               id="path3998"
               d="m -209.91351,785.55412 c -8.2072,-1.95874 -17.00254,1.6647 -26.93785,5.60689 -9.22109,3.6588 -16.40923,4.50837 -16.40923,4.50837 0,0 24.94465,18.17593 52.31585,18.17593 27.3712,0 53.06252,-17.29191 53.06252,-17.29191 0,0 -4.3379,-0.94299 -10.56333,-3.84075 -9.99372,-4.65179 -19.60156,-8.82562 -29.18666,-7.03353 -3.25126,0.60788 -12.50003,2.94744 -12.50003,2.94744 0.0467,-0.14009 -6.75839,-2.351 -9.78127,-3.07244 z"
               style="fill:#aa0000;fill-opacity:1;fill-rule:evenodd;stroke:#000000;stroke-width:0;stroke-miterlimit:4;stroke-opacity:1;stroke-dasharray:none" />
            <path
               style="fill:#ffffff;fill-opacity:1;fill-rule:evenodd;stroke:#000000;stroke-width:0;stroke-miterlimit:4;stroke-opacity:1;stroke-dasharray:none"
               d="m -239.9143,798.06521 c 6.19536,5.30209 16.87382,5.51776 37.20419,5.51776 20.33037,0 35.72881,-1.789 41.92418,-7.09109 -6.19362,3.05214 -21.59158,3.22093 -41.92418,3.22093 -20.33261,0 -31.01057,1.40454 -37.20419,-1.6476 z"
               id="path3996"
               inkscape:connector-curvature="0"
               sodipodi:nodetypes="cscsc" />
          </g>
        </g>
        <g
           id="g4025"
           transform="matrix(0.93131355,0,0,0.8746238,436.39173,-1215.7307)"
           style="fill:#2ca089">
          <path
             transform="translate(-97.891349,656.49876)"
             d="m -275.33296,594.71924 a 6.2933249,9.4399872 0 1 1 -12.58665,0 6.2933249,9.4399872 0 1 1 12.58665,0 z"
             sodipodi:ry="9.4399872"
             sodipodi:rx="6.2933249"
             sodipodi:cy="594.71924"
             sodipodi:cx="-281.62628"
             id="path4021"
             style="fill:#2ca089;fill-opacity:1;fill-rule:evenodd;stroke:#000000;stroke-width:0;stroke-miterlimit:4;stroke-opacity:1;stroke-dasharray:none"
             sodipodi:type="arc" />
          <path
             transform="translate(-83.731368,636.04545)"
             d="m -287.91961,633.26581 a 7.0799904,8.6533213 0 1 1 -14.15998,0 7.0799904,8.6533213 0 1 1 14.15998,0 z"
             sodipodi:ry="8.6533213"
             sodipodi:rx="7.0799904"
             sodipodi:cy="633.26581"
             sodipodi:cx="-294.9996"
             id="path4023"
             style="fill:#2ca089;fill-opacity:1;fill-rule:evenodd;stroke:#000000;stroke-width:0;stroke-miterlimit:4;stroke-opacity:1;stroke-dasharray:none"
             sodipodi:type="arc" />
        </g>
        <g
           transform="matrix(0.93131355,0,0,0.80173829,554.36291,-1120.4398)"
           id="g4029"
           style="fill:#2ca089">
          <path
             sodipodi:type="arc"
             style="fill:#2ca089;fill-opacity:1;fill-rule:evenodd;stroke:#000000;stroke-width:0;stroke-miterlimit:4;stroke-opacity:1;stroke-dasharray:none"
             id="path4031"
             sodipodi:cx="-281.62628"
             sodipodi:cy="594.71924"
             sodipodi:rx="6.2933249"
             sodipodi:ry="9.4399872"
             d="m -275.33296,594.71924 a 6.2933249,9.4399872 0 1 1 -12.58665,0 6.2933249,9.4399872 0 1 1 12.58665,0 z"
             transform="translate(-97.891349,656.49876)" />
          <path
             sodipodi:type="arc"
             style="fill:#2ca089;fill-opacity:1;fill-rule:evenodd;stroke:#000000;stroke-width:0;stroke-miterlimit:4;stroke-opacity:1;stroke-dasharray:none"
             id="path4033"
             sodipodi:cx="-294.9996"
             sodipodi:cy="633.26581"
             sodipodi:rx="7.0799904"
             sodipodi:ry="8.6533213"
             d="m -287.91961,633.26581 a 7.0799904,8.6533213 0 1 1 -14.15998,0 7.0799904,8.6533213 0 1 1 14.15998,0 z"
             transform="translate(-83.731368,636.04545)" />
        </g>
        <path
           sodipodi:type="arc"
           style="fill:#ffd42a;fill-opacity:1;fill-rule:evenodd;stroke:#000000;stroke-width:0;stroke-miterlimit:4;stroke-opacity:1;stroke-dasharray:none"
           id="path4261"
           sodipodi:cx="27.142857"
           sodipodi:cy="133.79076"
           sodipodi:rx="27.142857"
           sodipodi:ry="61.42857"
           d="m 54.285713,133.79076 a 27.142857,61.42857 0 1 1 -54.285713,0 27.142857,61.42857 0 1 1 54.285713,0 z"
           transform="matrix(1.4210526,0,0,1,28.857142,-35.714286)" />
        <path
           transform="matrix(1.4210526,0,0,1,177.14286,-41.428572)"
           d="m 54.285713,133.79076 a 27.142857,61.42857 0 1 1 -54.285713,0 27.142857,61.42857 0 1 1 54.285713,0 z"
           sodipodi:ry="61.42857"
           sodipodi:rx="27.142857"
           sodipodi:cy="133.79076"
           sodipodi:cx="27.142857"
           id="path4263"
           style="fill:#ffd42a;fill-opacity:1;fill-rule:evenodd;stroke:#000000;stroke-width:0;stroke-miterlimit:4;stroke-opacity:1;stroke-dasharray:none"
           sodipodi:type="arc" />
        <path
           style="fill:#ffd42a;stroke:#000000;stroke-width:0;stroke-linecap:butt;stroke-linejoin:miter;stroke-miterlimit:4;stroke-opacity:1;stroke-dasharray:none"
           d="m 71.428571,-36.209246 11.714289,61.714286 34.62748,22.96411 26.51537,28.178747 28.20215,-29.908 30.08357,-21.806286 8.28571,-60.571428 L 231.42857,80.933611 202.85714,303.79075 90,310.6479 51.428571,92.362183 z"
           id="path4259"
           inkscape:connector-curvature="0"
           sodipodi:nodetypes="cccccccccccc" />
        <path
           sodipodi:nodetypes="sscccss"
           inkscape:connector-curvature="0"
           id="path4292"
           d="m 150.01585,294.91964 c -138.860342,0 -251.44443,129.24798 -251.44443,321.9785 0,37.50679 4.267377,73.60594 12.15792,107.46614 99.321594,-39.43436 183.555544,-72.72447 237.00691,-198.42292 53.11093,130.78976 139.07302,166.76177 240.44442,203.08542 8.60051,-35.19675 13.24343,-72.89803 13.24343,-112.12864 0,-192.73052 -112.54788,-321.9785 -251.40825,-321.9785 z"
           style="opacity:0.58024693;fill:#e5ff80;fill-opacity:1;fill-rule:evenodd;stroke:#000000;stroke-width:0;stroke-miterlimit:4;stroke-opacity:1;stroke-dasharray:none" />
        <path
           style="fill:#008066;fill-opacity:1;fill-rule:evenodd;stroke:#000000;stroke-width:0;stroke-miterlimit:4;stroke-opacity:1;stroke-dasharray:none"
           d="m 148.58482,278.34822 c -119.924679,0 -217.156249,114.78667 -217.156249,285.95293 0,33.31023 3.68546,65.37031 10.5,95.44196 85.77762,-35.02212 158.525019,-102.58747 204.687499,-214.22175 45.86847,116.15594 120.10835,186.10311 207.65625,218.36257 7.42771,-31.25865 11.4375,-64.74161 11.4375,-99.58278 0,-171.16626 -97.20032,-285.95293 -217.125,-285.95293 z"
           id="path4280"
           inkscape:connector-curvature="0"
           sodipodi:nodetypes="sscccss" />
        <path
           style="fill:#008066;fill-opacity:1;fill-rule:evenodd;stroke:#000000;stroke-width:0;stroke-miterlimit:4;stroke-opacity:1;stroke-dasharray:none"
           d="M 144.59212,77.482143 C 132.74759,158.9783 115.11508,213.18883 94.197679,246.16964 c -3.548013,7.15119 -8.153243,13.61854 -13.577143,19.1875 0.535512,13.12479 1.305059,25.93431 2.293436,38.34375 25.953368,-30.149 47.955588,-88.30526 61.922778,-184.40625 13.87822,99.99349 36.35117,160.19802 62.84016,187.96875 1.00668,-12.05374 1.77901,-24.49277 2.35459,-37.25 -0.95398,-1.64742 -1.82656,-3.33354 -2.59922,-5.09375 -0.0145,0.17519 -0.016,0.35622 -0.0305,0.53125 C 180.91271,237.68015 158.47034,177.47564 144.59212,77.482143 z M 210.7654,194.01339 c -0.0232,1.78974 -0.06,3.56368 -0.0917,5.34375 0.0632,-0.10327 0.11958,-0.20972 0.18347,-0.3125 -0.035,-1.67004 -0.0488,-3.3748 -0.0917,-5.03125 z"
           id="path4378"
           inkscape:connector-curvature="0" />
        <path
           inkscape:connector-curvature="0"
           id="path4392"
           d="m 144.59212,180.33929 c -11.84453,81.49615 -29.47704,135.70668 -50.394441,168.68749 -3.548013,7.15119 -8.153243,13.61854 -13.577143,19.1875 0.535512,13.12479 1.305059,25.93431 2.293436,38.34375 25.953368,-30.149 47.955588,-88.30526 61.922778,-184.40625 13.87822,99.99349 36.35117,160.19802 62.84016,187.96875 1.00668,-12.05374 1.77901,-24.49277 2.35459,-37.25 -0.95398,-1.64742 -1.82656,-3.33354 -2.59922,-5.09375 -0.0145,0.17519 -0.016,0.35622 -0.0305,0.53125 -26.48907,-27.77074 -48.93144,-87.97525 -62.80966,-187.96874 z m 66.17328,116.53124 c -0.0232,1.78974 -0.06,3.56368 -0.0917,5.34375 0.0632,-0.10327 0.11958,-0.20972 0.18347,-0.3125 -0.035,-1.67004 -0.0488,-3.3748 -0.0917,-5.03125 z"
           style="fill:#008066;fill-opacity:1;fill-rule:evenodd;stroke:#000000;stroke-width:0;stroke-miterlimit:4;stroke-opacity:1;stroke-dasharray:none" />
      </g>
    </g>
  </g>
</svg>
