<?xml version="1.0" encoding="UTF-8" standalone="no"?>
<!-- Created with Inkscape (http://www.inkscape.org/) -->

<svg
   xmlns:dc="http://purl.org/dc/elements/1.1/"
   xmlns:cc="http://creativecommons.org/ns#"
   xmlns:rdf="http://www.w3.org/1999/02/22-rdf-syntax-ns#"
   xmlns:svg="http://www.w3.org/2000/svg"
   xmlns="http://www.w3.org/2000/svg"
   xmlns:sodipodi="http://sodipodi.sourceforge.net/DTD/sodipodi-0.dtd"
   xmlns:inkscape="http://www.inkscape.org/namespaces/inkscape"
   width="1366"
   height="768"
   id="svg2"
   version="1.1"
   inkscape:version="0.48.4 r9939"
   sodipodi:docname="saske.svg">
  <defs
     id="defs4" />
  <sodipodi:namedview
     id="base"
     pagecolor="#ffffff"
     bordercolor="#666666"
     borderopacity="1.0"
     inkscape:pageopacity="0.0"
     inkscape:pageshadow="2"
     inkscape:zoom="0.77734373"
     inkscape:cx="682.99998"
     inkscape:cy="384.00001"
     inkscape:document-units="px"
     inkscape:current-layer="layer1"
     showgrid="true"
     showborder="false"
     inkscape:showpageshadow="false"
     showguides="true"
     inkscape:guide-bbox="true"
     inkscape:window-width="1311"
     inkscape:window-height="744"
     inkscape:window-x="55"
     inkscape:window-y="24"
     inkscape:window-maximized="1"
     fit-margin-top="0"
     fit-margin-left="0"
     fit-margin-right="0"
     fit-margin-bottom="0">
    <inkscape:grid
       type="axonomgrid"
       id="grid2985"
       units="mm"
       empspacing="5"
       visible="false"
       enabled="true"
       snapvisiblegridlinesonly="true"
       originx="420.84487mm"
       originy="-158.05975mm" />
    <inkscape:grid
       units="mm"
       empspacing="5"
       visible="false"
       enabled="true"
       snapvisiblegridlinesonly="true"
       type="axonomgrid"
       id="grid3826"
       originx="420.84487mm"
       originy="-158.05975mm" />
  </sodipodi:namedview>
  <metadata
     id="metadata7">
    <rdf:RDF>
      <cc:Work
         rdf:about="">
        <dc:format>image/svg+xml</dc:format>
        <dc:type
           rdf:resource="http://purl.org/dc/dcmitype/StillImage" />
        <dc:title />
      </cc:Work>
    </rdf:RDF>
  </metadata>
  <g
     inkscape:label="Layer 1"
     inkscape:groupmode="layer"
     id="layer1"
     transform="translate(1491.1826,275.69209)">
    <rect
       style="color:#000000;fill:#917c6f;fill-opacity:1;fill-rule:evenodd;stroke:#000000;stroke-width:0.99898392px;stroke-linecap:butt;stroke-linejoin:miter;stroke-miterlimit:4;stroke-opacity:1;stroke-dasharray:none;stroke-dashoffset:0;marker:none;visibility:visible;display:inline;overflow:visible;enable-background:accumulate"
       id="rect2987"
       width="1365.001"
       height="767.00104"
       x="-1490.6831"
       y="-275.1926" />
    <g
       id="g3007"
       transform="matrix(-0.6271701,0,0,0.60872787,-1154.5376,-37.191456)">
      <path
         d="m -159.74397,122.24407 c 0,55.82854 -45.25797,101.0865 -101.0865,101.0865 -55.82854,0 -101.08651,-45.25796 -101.08651,-101.0865 0,-55.828532 45.25797,-101.0865 101.08651,-101.0865 55.82853,0 101.0865,45.257968 101.0865,101.0865 z"
         sodipodi:ry="101.0865"
         sodipodi:rx="101.0865"
         sodipodi:cy="122.24407"
         sodipodi:cx="-260.83047"
         id="path2989"
         style="fill:#000000;fill-opacity:1;fill-rule:evenodd;stroke:#000000;stroke-opacity:1"
         sodipodi:type="arc" />
      <path
         inkscape:connector-curvature="0"
         id="path2993"
         d="m -296.02681,123.05717 c 0,-37.155196 13.58164,-71.392527 36.47085,-98.876105 23.22784,27.595673 37.06512,62.102242 37.06512,99.559775 0,37.15518 -13.61292,71.421 -36.50212,98.90458 -23.23242,-27.59717 -37.03385,-62.12667 -37.03385,-99.58825 z"
         style="opacity:0.72000002;fill:#800000;fill-opacity:1;fill-rule:evenodd;stroke:#000000;stroke-width:2;stroke-miterlimit:4;stroke-opacity:1;stroke-dasharray:none" />
      <path
         style="opacity:0.72000002;fill:#800000;fill-opacity:1;fill-rule:evenodd;stroke:#000000;stroke-width:2;stroke-miterlimit:4;stroke-opacity:1;stroke-dasharray:none"
         d="m -277.49952,87.477648 c -34.36248,15.832522 -60.83832,42.324682 -77.51259,74.096092 34.39441,8.59786 71.59313,6.02096 106.23524,-9.94041 34.36249,-15.83253 60.85271,-42.36424 77.527,-74.135629 -34.39754,-8.601251 -71.60376,-5.983159 -106.24965,9.979947 z"
         id="path3000"
         inkscape:connector-curvature="0" />
      <path
         inkscape:connector-curvature="0"
         id="path3002"
         d="m -240.254,85.651219 c -32.64344,-17.738411 -68.66928,-23.290978 -102.83626,-18.222839 14.07576,31.632865 38.33436,59.10275 71.24342,76.9855 32.64345,17.73842 68.70801,23.27971 102.87498,18.2116 -14.07506,-31.63723 -38.36949,-59.08956 -71.28214,-76.974261 z"
         style="opacity:0.72000002;fill:#800000;fill-opacity:1;fill-rule:evenodd;stroke:#000000;stroke-width:2;stroke-miterlimit:4;stroke-opacity:1;stroke-dasharray:none" />
      <path
         inkscape:connector-curvature="0"
         id="path3799"
         d="m -300.68054,90.846902 c -0.84611,-0.003 -1.68695,0.0143 -2.53224,0.0363 4.6018,12.790038 13.94934,24.437918 27.64474,32.797468 1.72791,1.05469 3.49667,2.03016 5.28831,2.93762 -0.0247,0.29487 -0.0499,0.58668 -0.0699,0.8825 -0.7586,11.22753 1.90049,21.75789 7.19098,30.87532 1.48132,2.55288 3.15921,4.99705 5.03648,7.31384 10.15886,-10.71354 16.69078,-24.08784 17.66968,-38.576 0.0617,-0.91332 0.0953,-1.82898 0.11193,-2.73211 0.26952,-0.11787 0.54282,-0.22955 0.81143,-0.3506 11.52132,-5.19208 20.79604,-12.66722 27.47685,-21.43379 1.87062,-2.45463 3.53824,-5.002048 4.99451,-7.640258 -15.26727,-2.31422 -31.53836,-0.46201 -46.40565,6.237938 -1.3727,0.61861 -2.70803,1.26485 -4.01519,1.94632 -0.32228,-0.20355 -0.63803,-0.40467 -0.96534,-0.60443 -10.61317,-6.478208 -22.54821,-10.191648 -34.62585,-11.315318 -2.5363,-0.236 -5.07238,-0.36538 -7.6107,-0.37477 z"
         style="fill:#000000;fill-opacity:1;fill-rule:evenodd;stroke:#000000;stroke-width:0.83231539;stroke-miterlimit:4;stroke-opacity:1;stroke-dasharray:none" />
      <path
         transform="matrix(2.0989834,0,0,1.1982594,598.8309,-170.38324)"
         d="m -398.9172,241.83069 c 0,7.33843 -3.43464,13.2874 -7.67148,13.2874 -4.23685,0 -7.67149,-5.94897 -7.67149,-13.2874 0,-7.33843 3.43464,-13.2874 7.67149,-13.2874 4.23684,0 7.67148,5.94897 7.67148,13.2874 z"
         sodipodi:ry="13.287401"
         sodipodi:rx="7.6714849"
         sodipodi:cy="241.83069"
         sodipodi:cx="-406.58868"
         id="path3820"
         style="opacity:0.76954735;fill:#800000;fill-opacity:1;fill-rule:evenodd;stroke:#000000;stroke-width:2;stroke-miterlimit:4;stroke-opacity:1;stroke-dasharray:none"
         sodipodi:type="arc" />
    </g>
    <path
       style="fill:#000000;fill-opacity:1;fill-rule:evenodd;stroke:#000000;stroke-width:2.5821619;stroke-miterlimit:4;stroke-opacity:1;stroke-dasharray:none"
       d="m -1022.8748,-37.18286 c 75.09394,5.590452 140.9646,48.140541 167.0455,102.471825 -30.83823,-50.456989 -90.95697,-88.017231 -158.3272,-93.032689 -45.3149,-3.373505 -85.7222,8.575948 -115.0685,30.8447885 -0.4587,5.7268444 -0.5186,11.5808185 -0.1876,17.5662135 0.783,14.164778 3.7953,27.995437 8.6817,41.173075 -10.1021,-17.199554 -16.2822,-36.108941 -17.3636,-55.6681301 -0.3015,-5.45279703 -0.211,-10.7895392 0.2743,-16.0017877 29.3867,-20.0899082 69.7489,-30.7179892 114.9454,-27.3532952 z"
       id="path3282"
       inkscape:connector-curvature="0" />
    <g
       transform="matrix(0.6271701,0,0,0.60872787,-460.82764,-37.191456)"
       id="g3034">
      <path
         sodipodi:type="arc"
         style="fill:#000000;fill-opacity:1;fill-rule:evenodd;stroke:#000000;stroke-opacity:1"
         id="path3036"
         sodipodi:cx="-260.83047"
         sodipodi:cy="122.24407"
         sodipodi:rx="101.0865"
         sodipodi:ry="101.0865"
         d="m -159.74397,122.24407 c 0,55.82854 -45.25797,101.0865 -101.0865,101.0865 -55.82854,0 -101.08651,-45.25796 -101.08651,-101.0865 0,-55.828532 45.25797,-101.0865 101.08651,-101.0865 55.82853,0 101.0865,45.257968 101.0865,101.0865 z" />
      <path
         style="opacity:0.72000002;fill:#800000;fill-opacity:1;fill-rule:evenodd;stroke:#000000;stroke-width:2;stroke-miterlimit:4;stroke-opacity:1;stroke-dasharray:none"
         d="m -296.02681,123.05717 c 0,-37.155196 13.58164,-71.392527 36.47085,-98.876105 23.22784,27.595673 37.06512,62.102242 37.06512,99.559775 0,37.15518 -13.61292,71.421 -36.50212,98.90458 -23.23242,-27.59717 -37.03385,-62.12667 -37.03385,-99.58825 z"
         id="path3038"
         inkscape:connector-curvature="0" />
      <path
         inkscape:connector-curvature="0"
         id="path3040"
         d="m -277.49952,87.477648 c -34.36248,15.832522 -60.83832,42.324682 -77.51259,74.096092 34.39441,8.59786 71.59313,6.02096 106.23524,-9.94041 34.36249,-15.83253 60.85271,-42.36424 77.527,-74.135629 -34.39754,-8.601251 -71.60376,-5.983159 -106.24965,9.979947 z"
         style="opacity:0.72000002;fill:#800000;fill-opacity:1;fill-rule:evenodd;stroke:#000000;stroke-width:2;stroke-miterlimit:4;stroke-opacity:1;stroke-dasharray:none" />
      <path
         style="opacity:0.72000002;fill:#800000;fill-opacity:1;fill-rule:evenodd;stroke:#000000;stroke-width:2;stroke-miterlimit:4;stroke-opacity:1;stroke-dasharray:none"
         d="m -240.254,85.651219 c -32.64344,-17.738411 -68.66928,-23.290978 -102.83626,-18.222839 14.07576,31.632865 38.33436,59.10275 71.24342,76.9855 32.64345,17.73842 68.70801,23.27971 102.87498,18.2116 -14.07506,-31.63723 -38.36949,-59.08956 -71.28214,-76.974261 z"
         id="path3042"
         inkscape:connector-curvature="0" />
      <path
         style="fill:#000000;fill-opacity:1;fill-rule:evenodd;stroke:#000000;stroke-width:0.83231539;stroke-miterlimit:4;stroke-opacity:1;stroke-dasharray:none"
         d="m -300.68054,90.846902 c -0.84611,-0.003 -1.68695,0.0143 -2.53224,0.0363 4.6018,12.790038 13.94934,24.437918 27.64474,32.797468 1.72791,1.05469 3.49667,2.03016 5.28831,2.93762 -0.0247,0.29487 -0.0499,0.58668 -0.0699,0.8825 -0.7586,11.22753 1.90049,21.75789 7.19098,30.87532 1.48132,2.55288 3.15921,4.99705 5.03648,7.31384 10.15886,-10.71354 16.69078,-24.08784 17.66968,-38.576 0.0617,-0.91332 0.0953,-1.82898 0.11193,-2.73211 0.26952,-0.11787 0.54282,-0.22955 0.81143,-0.3506 11.52132,-5.19208 20.79604,-12.66722 27.47685,-21.43379 1.87062,-2.45463 3.53824,-5.002048 4.99451,-7.640258 -15.26727,-2.31422 -31.53836,-0.46201 -46.40565,6.237938 -1.3727,0.61861 -2.70803,1.26485 -4.01519,1.94632 -0.32228,-0.20355 -0.63803,-0.40467 -0.96534,-0.60443 -10.61317,-6.478208 -22.54821,-10.191648 -34.62585,-11.315318 -2.5363,-0.236 -5.07238,-0.36538 -7.6107,-0.37477 z"
         id="path3044"
         inkscape:connector-curvature="0" />
      <path
         sodipodi:type="arc"
         style="opacity:0.76954735;fill:#800000;fill-opacity:1;fill-rule:evenodd;stroke:#000000;stroke-width:2;stroke-miterlimit:4;stroke-opacity:1;stroke-dasharray:none"
         id="path3046"
         sodipodi:cx="-406.58868"
         sodipodi:cy="241.83069"
         sodipodi:rx="7.6714849"
         sodipodi:ry="13.287401"
         d="m -398.9172,241.83069 c 0,7.33843 -3.43464,13.2874 -7.67148,13.2874 -4.23685,0 -7.67149,-5.94897 -7.67149,-13.2874 0,-7.33843 3.43464,-13.2874 7.67149,-13.2874 4.23684,0 7.67148,5.94897 7.67148,13.2874 z"
         transform="matrix(2.0989834,0,0,1.1982594,598.8309,-170.38324)" />
    </g>
    <path
       inkscape:connector-curvature="0"
       id="path3048"
       d="m -592.49036,-37.18286 c -75.09406,5.590452 -140.96469,48.140541 -167.0456,102.471825 30.83824,-50.456989 90.95694,-88.017231 158.32726,-93.032689 45.31481,-3.373505 85.72223,8.575948 115.06842,30.8447885 0.45874,5.7268444 0.51863,11.5808185 0.18771,17.5662135 -0.7831,14.164778 -3.79531,27.995437 -8.68177,41.173075 10.10215,-17.199554 16.28224,-36.108941 17.36358,-55.6681301 0.30148,-5.45279703 0.21097,-10.7895392 -0.2742,-16.0017877 -29.38676,-20.0899082 -69.74899,-30.7179892 -114.9454,-27.3532952 z"
       style="fill:#000000;fill-opacity:1;fill-rule:evenodd;stroke:#000000;stroke-width:2.5821619;stroke-miterlimit:4;stroke-opacity:1;stroke-dasharray:none" />
    <path
       sodipodi:nodetypes="csszaccssssccc"
       inkscape:connector-curvature="0"
       id="path3050"
       d="m -737.00462,112.76879 c 0,0 37.39495,4.32443 80.26295,8.07379 32.48557,2.84128 68.11413,5.76591 92.99384,3.85314 3.56187,-0.27383 7.27293,-1.21426 10.40123,-2.35786 3.12831,-1.1436 5.75541,-1.80494 8.25033,-3.32854 3.17072,-1.9363 8.25032,-7.21119 8.25032,-7.21119 l 12.19883,-15.393056 -14.34973,9.706646 c -3.29929,2.23175 -4.6559,3.16909 -8.21326,5.75713 -0.82315,0.59885 -1.76958,1.06725 -2.79397,1.43621 -4.77764,1.72082 -11.25077,2.25022 -14.8192,2.79227 -10.84787,1.64779 -31.92584,0.97066 -31.92584,0.97066 l -57.75227,-1.38636 z"
       style="fill:#000000;stroke:#000000;stroke-width:0.51085806px;stroke-linecap:butt;stroke-linejoin:miter;stroke-opacity:1" />
    <path
       style="fill:#550000;stroke:none"
       d="m -1071.3711,96.446952 c 3.6255,-6.279434 41.9647,9.074798 58.7897,11.806668 9.622,1.5623 18.34075,-0.9772 28.38751,-1.84412 4.20929,-0.36321 8.65163,-0.43283 13.49121,0.21583 5.5507,0.74396 50.28604,3.32279 55.74114,4.4934 21.88389,4.69606 2.98446,9.47403 14.97489,2.55136 3.85352,-2.22482 4.36948,2.13428 0,1.29337 -34.68167,-6.67449 -139.22165,15.71624 -162.34275,2.36721 -2.1806,-1.259 -16.8286,-13.65806 -13.0318,-17.03406 2.9127,-2.589862 3.0242,-2.176784 3.9901,-3.849658 z"
       id="path3132"
       inkscape:connector-curvature="0"
       sodipodi:nodetypes="ssssssssss" />
    <path
       style="fill:#000000;stroke:#000000;stroke-width:0.51085806px;stroke-linecap:butt;stroke-linejoin:miter;stroke-opacity:1"
       d="m -878.36063,112.76879 c 0,0 -37.39495,4.32443 -80.26294,8.07379 -32.48557,2.84128 -68.11413,5.76591 -92.99383,3.85314 -3.5619,-0.27383 -7.273,-1.21426 -10.4012,-2.35786 -3.1283,-1.1436 -5.7555,-1.80494 -8.2504,-3.32854 -3.1707,-1.9363 -8.2503,-7.21119 -8.2503,-7.21119 l -12.1988,-15.393056 14.3498,9.706646 c 3.2992,2.23175 4.6558,3.16909 8.2132,5.75713 0.8231,0.59885 1.7695,1.06725 2.794,1.43621 4.7776,1.72082 11.2507,2.25022 14.8192,2.79227 10.8478,1.64779 31.9258,0.97066 31.9258,0.97066 l 57.7523,-1.38636 13.23341,-0.46722 14.72836,-0.52 27.2308,-0.9614 z"
       id="path3005"
       inkscape:connector-curvature="0"
       sodipodi:nodetypes="csszaccsssscccccc" />
    <path
       style="fill:#550000;stroke:#000000;stroke-width:0;stroke-linecap:butt;stroke-linejoin:miter;stroke-miterlimit:4;stroke-opacity:1;stroke-dasharray:none"
       d="m -1076.2637,100.9679 c -7.6019,14.66907 5.7157,32.68651 5.9531,49.2066 0.3977,27.68576 -11.4978,55.30368 -7.6038,82.71712 1.0895,7.66956 0.8688,20.23381 8.4877,21.63424 11.3662,2.08921 19.9904,-14.59341 23.3116,-25.66246 8.2047,-27.34433 -12.2776,-56.09235 -13.1733,-84.62703 -0.4343,-13.83749 9.2035,-28.61152 3.8019,-41.35855 -1.6284,-3.842559 -5.5992,-7.466045 -9.755,-7.848057 -4.1558,-0.382019 -9.102,2.232812 -11.0222,5.938137 z"
       id="path3134"
       inkscape:connector-curvature="0"
       sodipodi:nodetypes="sssssssss" />
    <path
       sodipodi:nodetypes="sssssssss"
       inkscape:connector-curvature="0"
       id="path3994"
       d="m -932.38546,112.1279 c -4.7886,5.47812 3.60043,12.20667 3.74998,18.37604 0.25052,10.33916 -7.24271,20.65298 -4.78979,30.89043 0.6863,2.86417 0.54727,7.55625 5.34658,8.07924 7.15981,0.78021 12.59238,-5.44986 14.68447,-9.58357 5.16832,-10.21164 -7.73392,-20.94749 -8.29815,-31.60367 -0.27356,-5.16756 5.79748,-10.68488 2.39491,-15.44522 -1.02576,-1.43498 -3.52706,-2.78817 -6.14489,-2.93082 -2.61782,-0.14267 -5.73353,0.83383 -6.94311,2.21757 z"
       style="fill:#550000;stroke:#000000;stroke-width:0;stroke-linecap:butt;stroke-linejoin:miter;stroke-miterlimit:4;stroke-opacity:1;stroke-dasharray:none" />
  </g>
</svg>
